<svg width="393" height="225" viewBox="0 0 393 225" fill="none" xmlns="http://www.w3.org/2000/svg">
<rect x="0.5" y="0.5" width="392" height="224" rx="14.5" stroke="#E6E6E6"/>
<line y1="44.5" x2="393" y2="44.5" stroke="#E6E6E6"/>
<line y1="89.5" x2="393" y2="89.5" stroke="#E6E6E6"/>
<line y1="134.5" x2="393" y2="134.5" stroke="#E6E6E6"/>
<line y1="179.5" x2="393" y2="179.5" stroke="#E6E6E6"/>
<rect x="22" y="195" width="146" height="16" fill="#E6E6E6"/>
<rect x="22" y="59" width="221" height="16" fill="#E6E6E6"/>
<rect x="22" y="104" width="257" height="16" fill="#E6E6E6"/>
<rect x="22" y="149" width="198" height="16" fill="#E6E6E6"/>
<path d="M24.94 25.615L23.89 28H22L26.62 17.515H28.51L33.13 28H31.24L30.19 25.615H24.94ZM29.47 23.98L27.565 19.66L25.66 23.98H29.47ZM36.0278 28H34.3478V16.87H36.0278V28ZM40.534 21.37V25.42C40.534 25.8 40.634 26.105 40.834 26.335C41.034 26.555 41.314 26.665 41.674 26.665C42.034 26.665 42.379 26.49 42.709 26.14L43.399 27.325C42.809 27.855 42.154 28.12 41.434 28.12C40.724 28.12 40.114 27.875 39.604 27.385C39.104 26.885 38.854 26.215 38.854 25.375V21.37H37.849V20.02H38.854V17.515H40.534V20.02H42.634V21.37H40.534ZM53.6798 28H49.0898V17.515H53.1698C53.8798 17.515 54.4898 17.6 54.9998 17.77C55.5198 17.94 55.9048 18.17 56.1548 18.46C56.6348 19 56.8748 19.61 56.8748 20.29C56.8748 21.11 56.6148 21.72 56.0948 22.12C55.9048 22.26 55.7748 22.35 55.7048 22.39C55.6348 22.42 55.5098 22.475 55.3298 22.555C55.9798 22.695 56.4948 22.99 56.8748 23.44C57.2648 23.88 57.4598 24.43 57.4598 25.09C57.4598 25.82 57.2098 26.465 56.7098 27.025C56.1198 27.675 55.1098 28 53.6798 28ZM50.8598 21.865H53.1098C54.3898 21.865 55.0298 21.43 55.0298 20.56C55.0298 20.06 54.8748 19.7 54.5648 19.48C54.2548 19.26 53.7748 19.15 53.1248 19.15H50.8598V21.865ZM50.8598 26.365H53.6348C54.2848 26.365 54.7798 26.265 55.1198 26.065C55.4698 25.855 55.6448 25.465 55.6448 24.895C55.6448 23.965 54.8998 23.5 53.4098 23.5H50.8598V26.365ZM65.9056 28H64.3756V26.935C63.7156 27.725 62.8306 28.12 61.7206 28.12C60.8906 28.12 60.2006 27.885 59.6506 27.415C59.1106 26.945 58.8406 26.32 58.8406 25.54C58.8406 24.75 59.1306 24.16 59.7106 23.77C60.2906 23.38 61.0756 23.185 62.0656 23.185H64.2406V22.885C64.2406 21.825 63.6506 21.295 62.4706 21.295C61.7306 21.295 60.9606 21.565 60.1606 22.105L59.4106 21.055C60.3806 20.285 61.4806 19.9 62.7106 19.9C63.6506 19.9 64.4156 20.14 65.0056 20.62C65.6056 21.09 65.9056 21.835 65.9056 22.855V28ZM64.2256 25.03V24.355H62.3356C61.1256 24.355 60.5206 24.735 60.5206 25.495C60.5206 25.885 60.6706 26.185 60.9706 26.395C61.2706 26.595 61.6856 26.695 62.2156 26.695C62.7556 26.695 63.2256 26.545 63.6256 26.245C64.0256 25.945 64.2256 25.54 64.2256 25.03ZM73.9293 25.615C73.9293 26.375 73.6543 26.985 73.1043 27.445C72.5543 27.895 71.8493 28.12 70.9893 28.12C70.4093 28.12 69.8043 28.015 69.1743 27.805C68.5543 27.595 68.0043 27.3 67.5243 26.92L68.3343 25.615C69.2643 26.315 70.1643 26.665 71.0343 26.665C71.4143 26.665 71.7143 26.58 71.9343 26.41C72.1543 26.23 72.2643 26.005 72.2643 25.735C72.2643 25.335 71.7343 24.975 70.6743 24.655C70.5943 24.625 70.5343 24.605 70.4943 24.595C68.8343 24.145 68.0043 23.395 68.0043 22.345C68.0043 21.605 68.2893 21.015 68.8593 20.575C69.4393 20.125 70.1893 19.9 71.1093 19.9C72.0293 19.9 72.8993 20.17 73.7193 20.71L73.0893 21.955C72.4393 21.525 71.7343 21.31 70.9743 21.31C70.5743 21.31 70.2493 21.385 69.9993 21.535C69.7493 21.675 69.6243 21.89 69.6243 22.18C69.6243 22.44 69.7543 22.63 70.0143 22.75C70.1943 22.84 70.4443 22.925 70.7643 23.005C71.0943 23.085 71.3843 23.165 71.6343 23.245C71.8843 23.325 72.1243 23.415 72.3543 23.515C72.5943 23.615 72.8493 23.755 73.1193 23.935C73.6593 24.295 73.9293 24.855 73.9293 25.615ZM77.5122 28H75.8322V16.87H77.5122V28ZM79.9484 20.02H81.6284V28H79.9484V20.02ZM85.7446 28H84.0646V16.87H85.7446V23.41L88.9846 20.02H91.1446L88.1146 23.185L91.3696 28H89.3296L86.9596 24.505L85.7446 25.735V28ZM94.4604 28H92.7804V16.87H94.4604V28ZM103.362 28H101.832V26.935C101.172 27.725 100.287 28.12 99.1766 28.12C98.3466 28.12 97.6566 27.885 97.1066 27.415C96.5666 26.945 96.2966 26.32 96.2966 25.54C96.2966 24.75 96.5866 24.16 97.1666 23.77C97.7466 23.38 98.5316 23.185 99.5216 23.185H101.697V22.885C101.697 21.825 101.107 21.295 99.9266 21.295C99.1866 21.295 98.4166 21.565 97.6166 22.105L96.8666 21.055C97.8366 20.285 98.9366 19.9 100.167 19.9C101.107 19.9 101.872 20.14 102.462 20.62C103.062 21.09 103.362 21.835 103.362 22.855V28ZM101.682 25.03V24.355H99.7916C98.5816 24.355 97.9766 24.735 97.9766 25.495C97.9766 25.885 98.1266 26.185 98.4266 26.395C98.7266 26.595 99.1416 26.695 99.6716 26.695C100.212 26.695 100.682 26.545 101.082 26.245C101.482 25.945 101.682 25.54 101.682 25.03ZM109.885 21.595C109.055 21.595 108.43 21.865 108.01 22.405C107.59 22.945 107.38 23.67 107.38 24.58V28H105.7V20.02H107.38V21.625C107.65 21.125 108.015 20.715 108.475 20.395C108.945 20.075 109.44 19.91 109.96 19.9L109.975 21.595C109.945 21.595 109.915 21.595 109.885 21.595Z" fill="#005EFE"/>
<path d="M70.6667 28V28.6C70.6667 28.6 72 28.5974 72 29.2987C72 30 70 29.8 70 29.8" stroke="#005EFE" stroke-width="0.7"/>
<path d="M370.5 75L359.675 64.5H381.325L370.5 75Z" fill="#E6E6E6"/>
<path d="M370.5 120L359.675 109.5H381.325L370.5 120Z" fill="#E6E6E6"/>
<path d="M370.5 165L359.675 154.5H381.325L370.5 165Z" fill="#E6E6E6"/>
<path d="M370.5 210L359.675 199.5H381.325L370.5 210Z" fill="#E6E6E6"/>
</svg>
