<svg width="306" height="162" viewBox="0 0 306 162" fill="none" xmlns="http://www.w3.org/2000/svg">
<rect x="0.1" y="0.1" width="305.8" height="161.8" rx="9.9" stroke="#979797" stroke-width="0.2"/>
<path d="M14.1841 22H16.6279L17.1992 19.9878H20.189L20.7603 22H23.2041L20.1191 12.8403H17.269L14.1841 22ZM18.6719 14.8335H18.7163L19.7065 18.312H17.6816L18.6719 14.8335ZM23.9722 22H26.2256V12.8403H23.9722V22ZM30.3516 22.146C30.8213 22.146 31.1577 22.1079 31.4053 22.0635V20.4639C31.2783 20.4829 31.1641 20.4956 30.9863 20.4956C30.4341 20.4956 30.1675 20.2734 30.1675 19.6768V16.7378H31.4053V15.0874H30.1675V13.4941H27.9141V15.0874H26.9746V16.7378H27.9141V19.9814C27.9141 21.543 28.6758 22.146 30.3516 22.146ZM35.0171 22H39.3906C41.3521 22 42.5898 20.9717 42.5898 19.3784V19.3657C42.5898 18.166 41.606 17.2583 40.3555 17.1948V17.1504C41.3965 17.0171 42.1899 16.1919 42.1899 15.1572V15.1445C42.1899 13.7163 41.0918 12.8403 39.2764 12.8403H35.0171V22ZM38.6606 14.4844C39.4478 14.4844 39.9175 14.8652 39.9175 15.5V15.5127C39.9175 16.1982 39.4224 16.6045 38.4893 16.6045H37.3467V14.4844H38.6606ZM38.6606 18.0708C39.6826 18.0708 40.2222 18.4707 40.2222 19.2007V19.2134C40.2222 19.9561 39.6826 20.356 38.7305 20.356H37.3467V18.0708H38.6606ZM45.4971 22.0952C46.3984 22.0952 47.084 21.7017 47.4775 21.0225H47.522V22H49.769V17.2837C49.769 15.8809 48.5439 14.9414 46.6841 14.9414C44.7607 14.9414 43.6118 15.8618 43.5039 17.2075L43.4976 17.29H45.5225L45.5352 17.2266C45.6113 16.8711 45.9668 16.5918 46.5698 16.5918C47.1982 16.5918 47.522 16.9028 47.522 17.4043V17.7471L45.9478 17.8486C44.1641 17.9692 43.1611 18.6992 43.1611 20.0005V20.0068C43.1611 21.2129 44.1069 22.0952 45.4971 22.0952ZM45.3701 19.8608V19.8545C45.3701 19.4419 45.6812 19.1816 46.3096 19.1436L47.522 19.061V19.5244C47.522 20.1084 47.0078 20.54 46.2842 20.54C45.7319 20.54 45.3701 20.2925 45.3701 19.8608ZM53.6729 25.0786C54.7012 25.0786 55.3804 24.5708 55.3804 23.7837V23.771C55.3804 23.0156 54.936 22.5586 54.2188 22.4824L54.4282 22.1206C56.0278 21.9619 57.0815 21.0986 57.0815 19.8101V19.8037C57.0815 18.769 56.4468 18.1978 54.9805 17.9058L53.7617 17.6646C53.1079 17.5312 52.8984 17.3535 52.8984 17.0552V17.0488C52.8984 16.687 53.2539 16.4585 53.8062 16.4585C54.4282 16.4585 54.7773 16.7949 54.8281 17.2012L54.8345 17.252H56.8911L56.8848 17.2012C56.8657 15.9634 55.8057 14.9414 53.8062 14.9414C51.9146 14.9414 50.7339 15.7983 50.7339 17.1758V17.1821C50.7339 18.2358 51.4385 18.9404 52.7905 19.2007L54.0093 19.4419C54.625 19.5688 54.8472 19.7402 54.8472 20.0513V20.0576C54.8472 20.4131 54.4854 20.6289 53.8887 20.6289C53.2285 20.6289 52.873 20.356 52.7651 19.8862L52.7524 19.8354H50.5688L50.5752 19.8926C50.7085 21.0923 51.6035 21.9429 53.2476 22.1143L52.8477 22.7681V23.3203H53.0635C53.5332 23.3203 53.7173 23.4663 53.7173 23.6821V23.6948C53.7173 23.9106 53.5078 24.0249 53.1587 24.0249C52.9302 24.0249 52.708 23.9868 52.5493 23.9424V24.9326C52.7588 25.0151 53.2095 25.0786 53.6729 25.0786ZM57.9194 22H60.1729V12.8403H57.9194V22ZM61.3154 22H63.5625V15.0874H61.3154V22ZM64.7114 22H66.9585V19.8735L67.3647 19.3848L69.0469 22H71.6367L69.0532 18.0454L71.4907 15.0874H68.9834L67.0029 17.709H66.9585V12.8403H64.7114V22ZM72.0493 22H74.3027V12.8403H72.0493V22ZM77.502 22.0952C78.4033 22.0952 79.0889 21.7017 79.4824 21.0225H79.5269V22H81.7739V17.2837C81.7739 15.8809 80.5488 14.9414 78.689 14.9414C76.7656 14.9414 75.6167 15.8618 75.5088 17.2075L75.5024 17.29H77.5273L77.54 17.2266C77.6162 16.8711 77.9717 16.5918 78.5747 16.5918C79.2031 16.5918 79.5269 16.9028 79.5269 17.4043V17.7471L77.9526 17.8486C76.1689 17.9692 75.166 18.6992 75.166 20.0005V20.0068C75.166 21.2129 76.1118 22.0952 77.502 22.0952ZM77.375 19.8608V19.8545C77.375 19.4419 77.686 19.1816 78.3145 19.1436L79.5269 19.061V19.5244C79.5269 20.1084 79.0127 20.54 78.2891 20.54C77.7368 20.54 77.375 20.2925 77.375 19.8608ZM82.853 22H85.1064V18.3311C85.1064 17.3472 85.6206 16.8267 86.5664 16.8267C86.833 16.8267 87.0933 16.8774 87.2837 16.9536V15.0303C87.1123 14.9731 86.9155 14.9414 86.6997 14.9414C85.8872 14.9414 85.3413 15.4365 85.1509 16.3125H85.1064V15.0874H82.853V22Z" fill="#005EFE"/>
<path d="M0 33.2246H306" stroke="#979797" stroke-width="0.2"/>
<path d="M0 65.5H306" stroke="#979797" stroke-width="0.2"/>
<rect x="14" y="42" width="181" height="15" fill="#D8D8D8"/>
<rect x="14" y="74.2754" width="223" height="15" fill="#D8D8D8"/>
<path d="M0 97.5H306" stroke="#979797" stroke-width="0.2"/>
<rect x="14" y="106.275" width="168" height="15" fill="#D8D8D8"/>
<path d="M0 129.5H306" stroke="#979797" stroke-width="0.2"/>
<rect x="14" y="138.275" width="102" height="15" fill="#D8D8D8"/>
<path fill-rule="evenodd" clip-rule="evenodd" d="M280 46L287.5 53.5L295 46H280Z" fill="#D8D8D8"/>
<path fill-rule="evenodd" clip-rule="evenodd" d="M280 78L287.5 85.5L295 78H280Z" fill="#D8D8D8"/>
<path fill-rule="evenodd" clip-rule="evenodd" d="M280 110L287.5 117.5L295 110H280Z" fill="#D8D8D8"/>
<path fill-rule="evenodd" clip-rule="evenodd" d="M280 142L287.5 149.5L295 142H280Z" fill="#D8D8D8"/>
</svg>
