<svg width="40" height="52" viewBox="0 0 40 52" fill="none" xmlns="http://www.w3.org/2000/svg">
<path fill-rule="evenodd" clip-rule="evenodd" d="M12.6042 34.5314C11.2261 33.164 10.9046 33.0826 9.37185 32.6944C9.13435 32.6343 8.86777 32.5668 8.56366 32.486C7.1168 32.101 5.98556 30.9788 5.59806 29.5427C5.54727 29.3547 5.50064 29.1804 5.45727 29.0183C5.16837 27.9383 5.02383 27.3979 4.75264 26.9311C4.48108 26.4637 4.08254 26.07 3.2849 25.2822C3.16435 25.1631 3.03469 25.035 2.89497 24.8963C1.8356 23.8452 1.42207 22.3126 1.80956 20.8766C1.86094 20.6863 1.90893 20.5103 1.95353 20.3467C2.24656 19.2721 2.39331 18.7339 2.39354 18.1957C2.39378 17.6556 2.24651 17.1155 1.95147 16.0334C1.90746 15.872 1.86016 15.6985 1.80956 15.5111C1.42207 14.0751 1.8356 12.5425 2.89497 11.4914C3.03385 11.3535 3.1628 11.2261 3.28274 11.1077C4.08191 10.3182 4.48093 9.92407 4.75274 9.45603C5.02377 8.98932 5.16832 8.44914 5.457 7.37032C5.50045 7.20794 5.54716 7.03335 5.59806 6.84498C5.98556 5.40891 7.1168 4.28667 8.56366 3.90176C8.75585 3.85061 8.93378 3.80373 9.09913 3.76017C10.1844 3.47425 10.7273 3.33123 11.1976 3.06157C11.6683 2.7917 12.0662 2.39498 12.8624 1.60123C12.9809 1.48309 13.1082 1.35616 13.2459 1.21954C14.3053 0.168394 15.85 -0.242926 17.2969 0.141988C17.4886 0.192943 17.6658 0.240538 17.8305 0.284774C18.9126 0.575357 19.4547 0.720937 19.9968 0.721263C20.5412 0.721591 21.0856 0.575512 22.1766 0.282774C22.3393 0.239109 22.5142 0.19218 22.7031 0.141988C24.15 -0.242926 25.6947 0.167378 26.7541 1.21954C26.8926 1.35699 27.0205 1.48462 27.1395 1.60336C27.9331 2.39491 28.3303 2.79113 28.8001 3.06085C29.271 3.33118 29.8148 3.47442 30.9037 3.76124C31.068 3.80451 31.2446 3.85103 31.4353 3.90176C32.8822 4.28667 34.0134 5.40891 34.4009 6.84498C34.4513 7.03178 34.4976 7.20502 34.5407 7.36625C34.8297 8.44765 34.9743 8.9886 35.2457 9.45586C35.5174 9.92354 35.9162 10.3174 36.714 11.1055C36.8346 11.2246 36.9643 11.3527 37.104 11.4914C38.1634 12.5425 38.5779 14.0751 38.1894 15.5111C38.138 15.7013 38.09 15.8772 38.0454 16.0407C37.7525 17.114 37.6058 17.6518 37.6054 18.1896C37.605 18.7298 37.7523 19.2701 38.0475 20.353C38.0915 20.5145 38.1388 20.6881 38.1894 20.8756C38.5769 22.3116 38.1634 23.8442 37.104 24.8963C36.9643 25.035 36.8346 25.1631 36.7141 25.2822C35.9164 26.07 35.5179 26.4637 35.2463 26.9311C34.9751 27.3979 34.8306 27.9383 34.5417 29.0183C34.4983 29.1804 34.4517 29.3547 34.4009 29.5427C34.0134 30.9788 32.8822 32.101 31.4353 32.486C31.174 32.5554 30.9398 32.6158 30.7277 32.6706L30.7275 32.6706C29.048 33.104 28.7581 33.1788 27.3958 34.5314C26.0176 35.8994 23.8708 36.1442 22.2146 35.1225C20.8626 34.2856 19.1364 34.2856 17.7844 35.1225C16.1292 36.1442 13.9824 35.8994 12.6042 34.5314ZM30.5645 36.1902C30.4408 36.2705 30.3345 36.3777 30.1608 36.5532L30.1608 36.5532C30.0839 36.6309 29.9939 36.7218 29.8832 36.8297C28.4468 38.2292 26.5385 39 24.5072 39C23.2114 39 21.9583 38.6405 20.8292 38.0271L26.251 50.9882C26.7083 52.082 28.1707 52.3492 29.0041 51.492L32.779 47.6042L38.2675 47.8084C39.4779 47.8531 40.3321 46.6648 39.8748 45.571L35.1488 34.2734C34.3613 34.8696 33.4905 35.3672 32.4999 35.6262C32.1362 35.7211 31.8462 35.7933 31.6112 35.8518L31.6112 35.8518C30.9977 36.0045 30.7594 36.0639 30.5645 36.1902ZM4.8512 34.2734L0.125206 45.571C-0.332085 46.6638 0.522076 47.8531 1.73248 47.8084L7.22096 47.6042L10.997 51.492C11.8293 52.3492 13.2928 52.082 13.7501 50.9882L19.1719 38.0271C18.0427 38.6395 16.7896 39 15.4938 39C13.4626 39 11.5532 38.2292 10.1168 36.8297C10.0031 36.7189 9.91136 36.6259 9.83346 36.547L9.83344 36.547C9.66512 36.3765 9.56139 36.2715 9.44057 36.1925C9.24653 36.0658 9.00843 36.0064 8.38792 35.8517C8.15295 35.7932 7.86314 35.7209 7.50013 35.6262C6.50951 35.3672 5.63869 34.8706 4.8512 34.2734ZM20 8.11956C25.427 8.11956 29.827 12.4856 29.827 17.8714C29.827 23.2572 25.427 27.6232 20 27.6232C14.573 27.6232 10.173 23.2572 10.173 17.8714C10.173 12.4856 14.573 8.11956 20 8.11956Z" fill="#747A88"/>
</svg>
