<?xml version="1.0" encoding="UTF-8"?>
<svg width="1135px" height="186px" viewBox="0 0 1135 186" version="1.1" xmlns="http://www.w3.org/2000/svg" xmlns:xlink="http://www.w3.org/1999/xlink">
    <!-- Generator: Sketch 60.1 (88133) - https://sketch.com -->
    <title>Beyaz</title>
    <desc>Created with Sketch.</desc>
    <g id="Page-1" stroke="none" stroke-width="1" fill="none" fill-rule="evenodd">
        <g id="Uzman---Hesap-Bilgileri-Copy" transform="translate(-131.000000, -128.000000)">
            <g id="Beyaz" transform="translate(131.000000, 128.000000)">
                <path d="M442.859375,157.40625 C454.109375,157.40625 465.886719,152.484375 470.984375,142.992188 L471.6875,142.992188 L471.6875,156 L506.84375,156 L506.84375,89.6425781 C506.84375,69.9550781 488.826172,56.5078125 461.931641,56.5078125 C433.630859,56.5078125 416.052734,69.6035156 415.173828,90.3457031 L447.341797,90.3457031 C447.869141,85.4238281 452.615234,81.3808594 459.998047,81.3808594 C466.765625,81.3808594 471.6875,84.8964844 471.6875,91.4003906 L471.6875,96.1464844 L450.417969,97.4648438 C424.490234,99.046875 410.164063,109.154297 410.164063,127.787109 C410.164063,145.277344 425.193359,157.40625 442.859375,157.40625 Z M456.306641,133.324219 C449.978516,133.324219 445.671875,130.248047 445.671875,124.974609 C445.671875,120.228516 449.539063,116.976562 456.394531,116.449219 L471.6875,115.394531 L471.6875,121.722656 C471.6875,128.841797 464.304688,133.324219 456.306641,133.324219 Z M571.588987,158.460938 C600.417112,158.460938 618.346799,142.728516 618.698362,116.449219 L585.915159,116.449219 C585.299924,126.029297 580.114377,131.654297 572.02844,131.654297 C562.448362,131.654297 557.438596,123.216797 557.438596,107.396484 C557.438596,91.7519531 562.536252,83.3144531 572.02844,83.3144531 C579.762815,83.3144531 585.212034,89.2910156 585.915159,99.1347656 L618.698362,99.1347656 C618.258909,72.8554688 599.626096,56.5078125 571.413205,56.5078125 C540.212034,56.5078125 520.963987,75.7558594 520.963987,107.396484 C520.963987,139.388672 540.124143,158.460938 571.588987,158.460938 Z M650.220942,49.7402344 C659.80102,49.7402344 667.359614,42.09375 667.359614,32.953125 C667.359614,23.8125 659.80102,16.1660156 650.220942,16.1660156 C640.640864,16.1660156 633.08227,23.8125 633.08227,32.953125 C633.08227,42.09375 640.640864,49.7402344 650.220942,49.7402344 Z M668.414302,156 L668.414302,58.96875 L632.379145,58.96875 L632.379145,156 L668.414302,156 Z M721.470085,156 L721.470085,29.1738281 L685.434929,29.1738281 L685.434929,156 L721.470085,156 Z M753.344228,156 L753.344228,99.8378906 C753.344228,84.28125 763.012197,73.4707031 776.459462,73.4707031 C788.939931,73.4707031 797.377431,81.9960938 797.377431,95.0917969 L797.377431,156 L809.066884,156 L809.066884,98.4316406 C809.066884,83.8417969 818.383291,73.4707031 831.918447,73.4707031 C845.189931,73.4707031 853.100087,81.9960938 853.100087,96.1464844 L853.100087,156 L864.70165,156 L864.70165,93.5097656 C864.70165,75.0527344 853.012197,63.0996094 835.1704,63.0996094 C821.371572,63.0996094 810.648916,71.0976562 806.342275,82.3476562 L806.078603,82.3476562 C802.650869,70.8339844 792.9829,63.0996094 779.623525,63.0996094 C766.352041,63.0996094 756.947744,70.7460938 752.992666,81.46875 L752.728994,81.46875 L752.728994,64.59375 L741.742666,64.59375 L741.742666,156 L753.344228,156 Z M924.34923,157.494141 C949.222277,157.494141 966.009387,139.300781 966.009387,110.296875 C966.009387,81.2050781 949.222277,63.0996094 924.34923,63.0996094 C899.564074,63.0996094 882.689074,81.2050781 882.689074,110.296875 C882.689074,139.300781 899.476184,157.494141 924.34923,157.494141 Z M924.34923,147.210938 C906.419543,147.210938 894.554309,133.5 894.554309,110.296875 C894.554309,87.09375 906.419543,73.3828125 924.34923,73.3828125 C942.278918,73.3828125 954.232043,87.09375 954.232043,110.296875 C954.232043,133.5 942.278918,147.210938 924.34923,147.210938 Z M1028.46947,157.494141 C1051.49681,157.494141 1067.14134,138.773438 1067.14134,110.296875 C1067.14134,81.8203125 1051.49681,63.0996094 1028.55736,63.0996094 C1014.23119,63.0996094 1002.45384,71.0976562 997.268295,83.6660156 L997.004623,83.6660156 L997.004623,29.1738281 L985.31517,29.1738281 L985.31517,156 L996.47728,156 L996.47728,136.664062 L996.740952,136.664062 C1002.19017,149.496094 1013.87962,157.494141 1028.46947,157.494141 Z M1026.2722,147.210938 C1009.04564,147.210938 996.916733,132.269531 996.916733,110.296875 C996.916733,88.4121094 1009.13353,73.3828125 1026.2722,73.3828125 C1043.85033,73.3828125 1055.18822,87.9726562 1055.18822,110.296875 C1055.18822,132.708984 1043.85033,147.210938 1026.2722,147.210938 Z M1092.3358,45.609375 C1096.64244,45.609375 1100.15806,42.1816406 1100.15806,37.875 C1100.15806,33.5683594 1096.64244,30.140625 1092.3358,30.140625 C1088.11705,30.140625 1084.60142,33.5683594 1084.60142,37.875 C1084.60142,42.1816406 1088.11705,45.609375 1092.3358,45.609375 Z M1098.13658,156 L1098.13658,64.59375 L1086.53502,64.59375 L1086.53502,156 L1098.13658,156 Z M1134.40525,156 L1134.40525,29.1738281 L1122.80369,29.1738281 L1122.80369,156 L1134.40525,156 Z" id="acilmobil" fill="#FFFFFF" fill-rule="nonzero"></path>
                <g id="Group-3">
                    <path d="M-2.13162821e-13,-1.42108547e-14 L101.951161,174.467535 C106.291385,181.805673 112.472511,185.474741 120.49454,185.474741 C128.516569,185.474741 163.965343,185.474741 226.840862,185.474741 C234.755489,183.544479 237.569906,178.838324 235.284114,171.356277 C231.500002,164.551752 198.422778,107.432994 136.052442,-1.42108547e-14 L-2.13162821e-13,-1.42108547e-14 Z" id="Path-25-Copy" fill="#FFFFFF" transform="translate(118.026221, 92.737371) scale(-1, 1) translate(-118.026221, -92.737371) "></path>
                    <path d="M100,-1.42108547e-14 L201.704485,174.467535 C206.04471,181.805673 212.225836,185.474741 220.247865,185.474741 C228.269893,185.474741 263.718667,185.474741 326.594187,185.474741 C334.508814,183.544479 337.323231,178.838324 335.037439,171.356277 C331.253327,164.551752 298.258328,107.432994 236.052442,-1.42108547e-14 L100,-1.42108547e-14 Z" id="Path-25" fill="#9ABFFE"></path>
                    <polygon id="Path-26" fill="#D9E7FF" points="100 -2.13162821e-14 167.91539 116.538708 236.052442 -2.13162821e-14"></polygon>
                </g>
            </g>
        </g>
    </g>
</svg>