<svg width="32" height="36" viewBox="0 0 32 36" fill="none" xmlns="http://www.w3.org/2000/svg">
<path fill-rule="evenodd" clip-rule="evenodd" d="M4.57143 4.5C4.57143 5.74805 5.58929 6.75 6.85714 6.75C8.125 6.75 9.14286 5.80078 9.14286 3.9375C9.14286 2.07422 7.71429 0 6.85714 0C6.85714 1.54199 6.20318 2.09825 5.59485 2.61569C5.06589 3.06562 4.57143 3.48621 4.57143 4.5ZM32 27C31.1074 27 30.5669 26.5525 29.9679 26.0566C29.2239 25.4406 28.3897 24.75 26.6786 24.75C24.9569 24.75 24.1161 25.443 23.3677 26.0598C22.7676 26.5544 22.2269 27 21.3393 27C20.4602 27 19.9188 26.5557 19.3171 26.0619C18.5648 25.4446 17.7183 24.75 16 24.75C14.298 24.75 13.446 25.446 12.6896 26.0638C12.0861 26.5568 11.5435 27 10.6786 27C9.78253 27 9.24249 26.5531 8.64377 26.0577C7.89907 25.4414 7.06358 24.75 5.33929 24.75C3.61434 24.75 2.77775 25.4419 2.03243 26.0584C1.43376 26.5536 0.893978 27 0 27V21.375C0 19.5117 1.53571 18 3.42857 18H4.57143V7.875H9.14286V18H13.7143V7.875H18.2857V18H22.8571V7.875H27.4286V18H28.5714C30.4643 18 32 19.5117 32 21.375V27ZM0 36V29.25C1.71725 29.25 2.55718 28.5582 3.30553 27.9417C3.90674 27.4465 4.44885 27 5.33929 27C6.22762 27 6.76738 27.4454 7.36659 27.9399C8.11407 28.5568 8.95405 29.25 10.6786 29.25C12.3806 29.25 13.2326 28.554 13.9889 27.9362C14.5925 27.4432 15.1351 27 16 27C16.896 27 17.4361 27.4469 18.0348 27.9423C18.7795 28.5586 19.6149 29.25 21.3393 29.25C23.0566 29.25 23.8965 28.5582 24.6449 27.9417C25.2461 27.4465 25.7881 27 26.6786 27C27.5495 27 28.087 27.4427 28.6852 27.9354C29.4355 28.5534 30.2812 29.25 32 29.25V36H0ZM16 6.75C14.7321 6.75 13.7143 5.74805 13.7143 4.5C13.7143 3.48621 14.2087 3.06562 14.7377 2.61569C15.346 2.09825 16 1.54199 16 0C16.8571 0 18.2857 2.07422 18.2857 3.9375C18.2857 5.80078 17.2679 6.75 16 6.75ZM22.8571 4.5C22.8571 5.74805 23.875 6.75 25.1429 6.75C26.4107 6.75 27.4286 5.80078 27.4286 3.9375C27.4286 2.07422 26 0 25.1429 0C25.1429 1.54199 24.4889 2.09825 23.8806 2.61569C23.3516 3.06562 22.8571 3.48621 22.8571 4.5Z" fill="#454D65"/>
</svg>
