<svg width="40" height="31" viewBox="0 0 40 31" fill="none" xmlns="http://www.w3.org/2000/svg">
<path fill-rule="evenodd" clip-rule="evenodd" d="M8.95342 13.3697L8.17718 16.1772C7.98906 16.8584 7.95031 17.5631 8.02656 18.2594L5.82658 20.014C5.41596 20.3416 4.80722 19.988 4.91284 19.4831L5.87783 14.8404C5.94408 14.5219 5.71158 14.218 5.37784 14.1871L0.511647 13.73C-0.0177218 13.6803 -0.19022 13.0137 0.2529 12.7285L4.32473 10.1069C4.60347 9.92708 4.66097 9.5529 4.44847 9.30224L1.34164 5.64466C1.00352 5.24687 1.36851 4.65776 1.89038 4.75948L6.68282 5.69431C7.01157 5.75849 7.32531 5.53325 7.35781 5.20994L7.82968 0.495827C7.88093 -0.0176035 8.56905 -0.184105 8.86405 0.245166L11.5703 4.18913C11.7559 4.45917 12.1421 4.51487 12.4009 4.30901L16.1758 1.29927C16.5865 0.971718 17.1946 1.32531 17.0896 1.83026L16.3815 5.23052L16.3622 5.25151L16.3621 5.25161L16.3621 5.25164C16.1991 5.42924 16.0362 5.60689 15.8871 5.79966L13.8777 8.40132L13.2084 9.26834C11.1628 9.79872 9.50966 11.359 8.95342 13.3697ZM39.8637 21.3927L39.0874 24.1996C38.8918 24.9068 38.5012 25.508 37.9906 25.9772C37.8206 26.1331 37.6375 26.2749 37.4431 26.401L36.5687 29.5634C36.4975 29.8219 36.375 30.0538 36.2156 30.2524C35.7362 30.8481 34.9194 31.1412 34.1194 30.9335L32.1875 30.4322C31.1207 30.1555 30.4875 29.0929 30.7732 28.0594L31.2907 26.1879L15.8358 22.1761L15.3183 24.0476C15.0327 25.0811 13.9359 25.6945 12.869 25.4178L10.9371 24.9165C10.1372 24.7088 9.58091 24.0591 9.47341 23.3114C9.43779 23.0619 9.45154 22.8016 9.52279 22.5437L10.3972 19.3813C10.2937 19.1778 10.2082 18.9661 10.1415 18.7486C9.94153 18.0953 9.91341 17.3851 10.109 16.678L10.8853 13.8704C11.2171 12.6716 12.0953 11.7616 13.1909 11.3148C13.5593 11.1644 13.9488 11.0681 14.3465 11.029L15.4796 9.56199L17.4889 6.96032C17.7046 6.68121 17.9383 6.42146 18.1889 6.18291C18.6889 5.70521 19.2533 5.30863 19.8602 5.00166C20.1639 4.84787 20.4783 4.71649 20.8008 4.60872C21.4464 4.39196 22.1251 4.26784 22.8158 4.24302C23.5064 4.2182 24.2101 4.29267 24.9051 4.47309L32.5725 6.46324C33.2675 6.64367 33.915 6.91976 34.5006 7.27637C35.3745 7.80795 36.1152 8.52153 36.6687 9.36521C37.22 10.2056 37.5837 11.1719 37.7112 12.2103L38.1087 15.4368L38.3331 17.2562C38.9821 17.7101 39.4768 18.341 39.7543 19.0683C40.0287 19.7876 40.0849 20.5935 39.8637 21.3927ZM13.5259 15.553C13.8359 14.4335 14.8146 13.888 15.974 14.1889C17.1327 14.4898 18.4071 16.6198 18.0971 17.7393C17.8253 18.7228 16.4904 18.3498 15.384 18.0406L15.3839 18.0406C15.2309 17.9978 15.0823 17.9563 14.9415 17.9198C13.7827 17.6188 13.2159 16.6725 13.5259 15.553ZM34.1369 15.8945L33.7394 12.668C33.7031 12.3731 33.6213 12.091 33.5006 11.8288C33.1381 11.0423 32.4256 10.4357 31.5369 10.205L23.8695 8.21484C22.6846 7.90734 21.4257 8.32958 20.6908 9.28105L18.6814 11.8827L29.4313 14.6727L34.1369 15.8945ZM31.6206 21.2492C31.93 20.1303 34.1331 18.9024 35.2925 19.2033C36.4518 19.5042 37.0181 20.4512 36.7087 21.5701C36.3987 22.6896 35.42 23.2351 34.2606 22.9342C34.1199 22.8977 33.97 22.8617 33.8156 22.8246C32.6978 22.5565 31.3488 22.2328 31.6206 21.2492Z" fill="#454D65"/>
</svg>
