<?xml version="1.0" encoding="UTF-8"?>
<svg width="203px" height="267px" viewBox="0 0 203 267" version="1.1" xmlns="http://www.w3.org/2000/svg" xmlns:xlink="http://www.w3.org/1999/xlink">
    <!-- Generator: Sketch 60.1 (88133) - https://sketch.com -->
    <title>undraw_in_real_life_v8fk</title>
    <desc>Created with Sketch.</desc>
    <g id="Page-1" stroke="none" stroke-width="1" fill="none" fill-rule="evenodd">
        <g id="Ortak-Hesap---Favoriler" transform="translate(-855.000000, -138.000000)">
            <g id="undraw_in_real_life_v8fk" transform="translate(855.000000, 138.000000)">
                <path d="M2.24840455,188.145198 C-0.688715077,191.025221 -0.757048072,195.732673 2.09524025,198.69667 L48.1545478,245.716981 C49.5474569,247.158008 51.4604103,247.980297 53.4648974,248 C55.4693845,248.019004 57.3978701,247.233804 58.8183643,245.81994 L200.7967,101.801638 C202.397451,100.208021 203.192554,97.9769588 202.960292,95.7305932 C202.72803,93.4842276 201.49325,91.4628847 199.600277,90.2302241 L146.783886,55.2248749 C143.851467,53.2958244 139.969214,53.67781 137.469326,56.1413604 L2.24840455,188.145198 Z" id="Path" fill="#3F3D56" fill-rule="nonzero"></path>
                <path d="M193.055531,95.9238172 L187.163604,92.1569905 C188.441541,94.4403438 187.980605,97.3057408 186.051495,99.0703892 C184.122385,100.835038 181.234558,101.032913 179.08398,99.5478062 L140.956486,73.2638644 C139.188177,72.0468473 138.266567,69.9254247 138.582043,67.7982169 C138.89752,65.6710092 140.394874,63.9102865 142.439837,63.2618791 L139.404275,61.3212025 C138.592637,60.8022984 137.529846,60.9220298 136.853277,61.6085918 L8.58964168,187.999827 C8.203055,188.392127 7.99058988,188.924181 8,189.475604 C8.01005027,190.027026 8.24115337,190.551211 8.64133848,190.929552 L55.2235628,236.442095 C56.0263812,237.201069 57.2852093,237.183537 58.066696,236.402498 L193.399363,99.1013683 C193.838363,98.6626191 194.054928,98.0477217 193.988069,97.4298402 C193.92121,96.8119587 193.578162,96.2579449 193.055531,95.9238172 Z" id="Path" fill="#FFFFFF" fill-rule="nonzero"></path>
                <polygon id="Path" fill="#E6E6E6" fill-rule="nonzero" points="45 160.016006 84.0697096 197 177 104.819995 129.837006 74"></polygon>
                <path d="M174.401355,127.645526 C174.944938,128.118158 175.800192,128.118158 176.343775,127.645526 L184.598639,120.124177 C185.133787,119.635039 185.133787,118.843613 184.598639,118.354475 C184.055058,117.881842 183.199803,117.881842 182.656222,118.354475 L174.401358,125.875824 C173.866214,126.364964 173.866214,127.156386 174.401358,127.645526 L174.401355,127.645526 Z" id="Path" fill="#3F3D56" fill-rule="nonzero"></path>
                <path d="M160.401412,141.598706 C160.938217,142.133765 161.806694,142.133765 162.343499,141.598706 L170.596944,133.345165 C170.944344,132.998338 171.080195,132.492448 170.953274,132.018244 C170.826353,131.54404 170.455966,131.173649 169.981767,131.046726 C169.507569,130.919804 169.001685,131.055657 168.654861,131.40306 L160.401416,139.6566 C159.866196,140.193341 159.866195,141.061963 160.401412,141.598706 Z" id="Path" fill="#3F3D56" fill-rule="nonzero"></path>
                <circle id="Oval" fill="#005EFE" fill-rule="nonzero" cx="46" cy="192" r="9"></circle>
                <path d="M65,28.9352094 L64.69486,31.68466 L64.5153276,33.3116176 L63.6320076,41.2695738 C63.6320076,41.2695738 62.9586309,42.510424 61.7543762,44.2500919 C59.7515483,47.1414223 56.2709769,51.4098798 51.9518179,53.6562971 C45.0306964,57.2548265 42.3011186,31.4100117 42.3011186,31.4100117 C42.3011186,31.4100117 40.805713,21.3895316 44.4798951,21.0217723 C48.1540771,20.654013 46.8903129,24.9701853 47.1695714,32.0714814 C47.44883,39.1727774 52.2478065,45.1797096 52.2478065,45.1797096 C52.2478065,45.1797096 57.3556507,38.1473731 59.6000456,33.4289311 C60.7690619,30.9707499 62.1867923,29.8537305 63.2746354,29.3505339 L63.2778902,29.3492012 C63.6367256,29.178577 64.0167664,29.0558915 64.4080878,28.9843486 C64.6029429,28.9462243 64.8014696,28.929743 65,28.9352094 L65,28.9352094 Z" id="Path" fill="#FFB8B8" fill-rule="nonzero"></path>
                <path d="M53,39.6957752 L64.0066456,46 L70,35.4784686 L68.6462726,30.7330856 L68.6462726,30.7330856 C65.4092317,28.237116 60.8035061,28.4595542 57.8297663,31.2554797 L53,39.6957752 Z" id="Path" fill="#003DA4" fill-rule="nonzero"></path>
                <path d="M109.695478,113.522368 L131.255004,129.92066 C132.573744,130.923701 132.829669,132.805876 131.826628,134.124616 C131.742468,134.235265 131.650719,134.33993 131.552044,134.437854 L95.7173144,170 L95.7173144,170 L95.7173144,146.764458 L70,146.764458 L105.845419,113.704874 C106.914781,112.718621 108.537618,112.641693 109.695478,113.522368 Z" id="Path-9" fill="#FFFFFF"></path>
                <path d="M57.4816939,1.00944444 L57.4816939,1.00944444 C51.0426337,3.68643775 48.2174516,11.6825321 51.1714833,18.8692351 L54.9246065,28 L57.7168903,26.8391295 L57.9429023,22.7840317 L58.9293127,26.3350741 L76.8770555,18.8734401 L77.0825133,15.1869855 L77.9792712,18.4152015 L80,17.575099 L77.0531061,10.4057946 C73.6537688,2.13583421 64.8913699,-2.07107417 57.4816939,1.00944444 Z" id="Path" fill="#2F2E41" fill-rule="nonzero"></path>
                <path d="M64,47.8437261 L65.1357903,56 L83,47.9495939 L80.1331045,42 C80.1331045,42 65.0618579,44.0365379 64,47.8437261 Z" id="Path" fill="#A0616A" fill-rule="nonzero"></path>
                <polygon id="Path" fill="#FFB8B8" fill-rule="nonzero" points="58 84.9829133 69.2819058 96 72 86.5161479 63.6450619 79"></polygon>
                <polygon id="Path" fill="#FFB8B8" fill-rule="nonzero" points="93 126.740249 99.8396686 141 107 138.129389 99.8345517 124"></polygon>
                <path d="M59,68.8996706 L66.7350695,78.2391447 L93.2829413,128 C93.2829413,128 98.4044626,127.421692 101,124.466506 L98.6788324,117.081042 L82.9459044,75.7794903 C82.9459044,75.7794903 87.8097979,70.0028408 85.2619212,65.740713 C82.7140445,61.4785851 78.5083751,56 78.5083751,56 L59,68.8996706 Z" id="Path" fill="#2F2E41" fill-rule="nonzero"></path>
                <path d="M99.8813257,136.900657 L97.8845624,137.730093 C97.8845624,137.730093 94.7033422,146.099537 92.981723,147.5978 C91.2601038,149.096062 83.2821895,159.06644 92.0147681,156.613682 C100.747347,154.160924 104.283646,147.60176 104.283646,147.60176 C104.283646,147.60176 107.633862,148.167898 110.74431,145.309606 C113.854759,142.451315 110.20713,139.267862 110.20713,139.267862 C110.20713,139.267862 105.832698,133.923721 105.783379,134.000826 C105.734059,134.077932 104.975429,137.917049 99.8813257,136.900657 Z" id="Path" fill="#2F2E41" fill-rule="nonzero"></path>
                <ellipse id="Oval" fill="#FFB8B8" fill-rule="nonzero" transform="translate(60.408081, 14.608043) rotate(-22.459480) translate(-60.408081, -14.608043) " cx="60.4080807" cy="14.6080428" rx="8.07385023" ry="8.07343571"></ellipse>
                <path d="M76,19.9646898 L73.7374579,24.2220231 L73.4332787,24.7921956 L74.7256308,28.79774 L62,34 C62,34 63.1140834,31.8028022 64.0825907,29.6046574 C64.1003752,29.5558325 64.1200783,29.5024416 64.1444088,29.450921 C64.2753435,29.1518191 64.39019,28.8781612 64.4935622,28.6318921 C64.5477158,28.4964126 64.6012949,28.3687053 64.6478081,28.2514591 C64.7235973,28.0580195 64.7988358,27.8723588 64.8740333,27.6867049 C64.8750791,27.6842432 64.8752762,27.6815094 64.8745942,27.6789259 C65.0640422,27.1967927 65.2255801,26.7043845 65.3584237,26.2040914 L65.3603287,26.1995525 C65.3957579,26.0648125 65.4241525,25.928359 65.4454,25.790733 C65.7498597,23.777143 62.1169054,21.4840946 62.1169054,21.4840946 L67.8117144,15 C69.525134,18.3951377 73.4938827,19.5081379 75.1985913,19.8389375 C75.69671,19.9337599 76,19.9646898 76,19.9646898 Z" id="Path" fill="#FFB8B8" fill-rule="nonzero"></path>
                <path d="M115.88557,67.2954915 C111.528491,70.6542928 107.153417,60.9123272 107.153417,60.9123272 L94.9441638,50.2168758 C92.3642928,47.9568863 90.1430023,45.3115182 88.3576239,42.372867 L82.8283114,33.2718194 L82.5922394,34.0295029 L82.5935842,34.0327815 L81.9273328,34.8040767 L73.454198,28.6984397 L71.0796332,26.9897347 L70,24.3555748 L73.9522175,20.008955 L75.910971,19.1922657 C75.910971,19.1922657 75.9507115,19.1679794 76.023089,19.1300849 C76.8849943,18.6589227 82.5862581,15.819166 85.2523449,21.4660445 C86.2990674,23.6821428 87.0580661,25.5632231 87.6005037,27.0613201 C89.0843793,31.2129609 91.139988,35.1333919 93.7068926,38.7073478 C94.6386604,39.9933701 95.5247611,41.0781856 96.1746016,41.5865003 C98.4251063,43.3469324 110.418011,59.5511509 110.418011,59.5511509 C110.418011,59.5511509 120.242646,63.9366696 115.88557,67.2954915 Z" id="Path" fill="#FFB8B8" fill-rule="nonzero"></path>
                <path d="M64.9999147,26 C65.0024316,26.0398784 64.9555582,26.3816698 64,28 C64.3953886,27.3487331 64.7293822,26.6806887 64.9999147,26 L64.9999147,26 Z" id="Path" fill="#D0CDE1" fill-rule="nonzero"></path>
                <path d="M83,34.1704185 L82.8614137,34.691209 L82.7610747,45.4043847 C82.7610747,45.4043847 78.5041492,53.0840621 73.6773563,54.3134446 C70.9332038,54.9284199 65.7887219,52.2333613 65.3286556,55 L63.4153522,46.233556 L61.7491772,44.1914454 C61.5547264,43.9523244 61.3351925,43.6893536 61.0929744,43.3901284 C58.7705761,40.5467075 60.8712431,35.5001131 60.8712431,35.5001131 L63.2632366,29.2806512 L63.2664782,29.2793141 C63.6238478,29.1085624 64.0023363,28.9857858 64.3920591,28.9141905 C64.2889221,29.1619225 64.1743405,29.4372061 64.0437081,29.7380849 C64.0194371,29.7899115 63.9997794,29.8436195 63.982036,29.8927346 C63.2613803,31.6758244 64.0559067,31.7626365 64.6776667,31.6165571 C64.8826234,31.5665862 65.0819332,31.495899 65.2725011,31.4055932 C66.7107415,31.040803 69.190442,28.6276794 70.9598053,26.7353771 C72.1643649,25.44834 73.0420089,24.4024754 73.0420089,24.4024754 L74.8074141,20.6342695 L75.0723881,20.0689604 C75.5693676,20.1643699 75.8719576,20.1954836 75.8719576,20.1954836 L76.1975084,20.0612985 C76.1975084,20.0612985 76.2371376,20.0373568 76.309309,20 L75.2817024,21.7076924 C74.2421135,23.4353302 74.1507118,25.5703655 75.0388667,27.3800507 L75.0388667,27.3800507 L83,34.1704185 Z" id="Path" fill="#003DA4" fill-rule="nonzero"></path>
                <path d="M68.6357982,50.3821912 L64.6308811,54.243397 C64.6308811,54.243397 34.552523,54.935144 34.0085027,64.7783621 C33.4644823,74.6215801 59.2072907,87 59.2072907,87 L65.5619721,80.1265689 L58.2440071,71.6285353 C58.2440071,71.6285353 83.8080651,79.8497681 88.0020765,67.7197257 C92.1960879,55.5896834 81.8138224,45.2200233 81.8138224,45.2200233 C81.8138224,45.2200233 75.3171439,43.3729527 68.6357982,50.3821912 Z" id="Path" fill="#2F2E41" fill-rule="nonzero"></path>
                <path d="M69.939786,91.3156578 L68,94.783145 C68,94.783145 74.7435881,104.063748 74.4471962,106.082102 C74.1508043,108.100455 74.0832458,113.43094 77.4462961,111.636719 C80.8093465,109.842498 82.3889479,102.739404 81.9186785,100.665045 C81.4484091,98.5906852 81.3083541,91.8326822 81.3083541,91.8326822 C81.3083541,91.8326822 81.4434412,81.1717018 78.4530883,82.051619 C75.4627353,82.9315362 70.8211769,84.6317203 70.8211769,84.6317203 L69.939786,91.3156578 Z" id="Path" fill="#2F2E41" fill-rule="nonzero"></path>
                <path d="M62.1602431,3.94628663 C60.3960075,2.87896716 58.2412594,2.70440266 56.3317638,3.47409894 L56.1034057,3.56964736 C51.7005169,5.4119271 49.7782724,10.9380422 51.8099189,15.9126129 L51.8099189,15.9126129 L53.2851936,15.2953211 L52.7737646,13.3599934 L53.8727825,15.0494593 L62.6226459,11.3883437 L62.7214711,9.52863557 L63.17244,11.1582978 L64.893784,10.4380415 C67.3460528,14.1396787 67.8409597,18.6603315 66.3785049,24 L69.3107863,22.7730581 L69.50842,19.0536487 L70.4103746,22.3129629 L76,19.9741225 L74.182075,12.3703119 C71.9971336,7.02032827 67.0732852,3.7686556 62.1602431,3.94628663 Z" id="Path" fill="#2F2E41" fill-rule="nonzero"></path>
                <path d="M96,30.9624026 L78.585387,38 L73,24.7915056 L75.2897185,19.3983269 L75.2897185,19.3983269 C79.4871186,16.9127148 84.9144704,17.8147338 88.0358039,21.5167102 L96,30.9624026 Z" id="Path" fill="#003DA4" fill-rule="nonzero"></path>
                <ellipse id="Oval" fill="#000000" opacity="0.13109189" cx="115.5" cy="263" rx="78.5" ry="4"></ellipse>
            </g>
        </g>
    </g>
</svg>