<svg width="113" height="138" viewBox="0 0 113 138" fill="none" xmlns="http://www.w3.org/2000/svg">
<path d="M65.681 28.7564L65.0225 28.8844L61.5153 10.8412C60.9769 8.07152 59.3591 5.62938 57.0178 4.05207C54.6765 2.47475 51.8035 1.89148 49.0308 2.43057L10.7624 9.8692C7.98971 10.4081 5.54446 12.0252 3.96458 14.3648C2.3847 16.7043 1.7996 19.5746 2.33802 22.3443L21.5789 121.33C22.7 127.097 28.2892 130.863 34.0629 129.741L72.3315 122.302C78.1051 121.18 81.8768 115.595 80.7557 109.827L67.5185 41.7279L68.177 41.5999L65.681 28.7564Z" fill="#3F3D56"/>
<path d="M59.2216 11.1097L78.5289 110.437C79.3693 114.764 76.5307 118.956 72.1876 119.802L33.4369 127.334C29.0919 128.179 24.8869 125.356 24.0442 121.028L4.73694 21.7005C3.89692 17.372 6.73802 13.1793 11.0831 12.3353L15.7838 11.4216C15.5383 12.6608 15.927 13.9397 16.821 14.8336C17.7149 15.7275 18.997 16.1193 20.2416 15.879L42.334 11.5847C43.5779 11.3413 44.6199 10.4977 45.1139 9.33402C45.6079 8.17036 45.4892 6.83896 44.7974 5.78191L49.8326 4.80316C54.1761 3.95964 58.3787 6.78198 59.2213 11.1082L59.2216 11.1097Z" fill="#EFF4FA"/>
<rect x="24.96" y="76.3896" width="37.6637" height="0.496403" transform="rotate(-11 24.96 76.3896)" fill="#CCCCCC"/>
<ellipse cx="25.3645" cy="73.2768" rx="0.99115" ry="0.992806" transform="rotate(-11 25.3645 73.2768)" fill="#005EFE"/>
<rect x="27.2329" y="88.0844" width="37.6637" height="0.496403" transform="rotate(-11 27.2329 88.0844)" fill="#CCCCCC"/>
<rect x="29.5063" y="99.7791" width="37.6637" height="0.496403" transform="rotate(-11 29.5063 99.7791)" fill="#CCCCCC"/>
<ellipse cx="27.5427" cy="84.4843" rx="0.99115" ry="0.992806" transform="rotate(-11 27.5427 84.4843)" fill="#005EFE"/>
<ellipse cx="29.8162" cy="96.179" rx="0.99115" ry="0.992806" transform="rotate(-11 29.8162 96.179)" fill="#005EFE"/>
<ellipse cx="29.2561" cy="72.5202" rx="0.99115" ry="0.992806" transform="rotate(-11 29.2561 72.5202)" fill="#005EFE"/>
<ellipse cx="33.6345" cy="71.6692" rx="0.99115" ry="0.992806" transform="rotate(-11 33.6345 71.6692)" fill="#005EFE"/>
<ellipse cx="38.0125" cy="70.8182" rx="0.99115" ry="0.992806" transform="rotate(-11 38.0125 70.8182)" fill="#005EFE"/>
<ellipse cx="31.4348" cy="83.7278" rx="0.99115" ry="0.992806" transform="rotate(-11 31.4348 83.7278)" fill="#005EFE"/>
<ellipse cx="33.7078" cy="95.4226" rx="0.99115" ry="0.992806" transform="rotate(-11 33.7078 95.4226)" fill="#005EFE"/>
<ellipse cx="35.8128" cy="82.8767" rx="0.99115" ry="0.992806" transform="rotate(-11 35.8128 82.8767)" fill="#005EFE"/>
<ellipse cx="38.0862" cy="94.5715" rx="0.99115" ry="0.992806" transform="rotate(-11 38.0862 94.5715)" fill="#005EFE"/>
<path fill-rule="evenodd" clip-rule="evenodd" d="M20.2897 41.9733C22.1119 51.3251 31.0866 57.4455 40.3358 55.644L40.3357 55.6435L40.3375 55.6431C46.3237 54.4792 51.2273 50.1746 53.2012 44.3509C55.1751 38.5271 53.9194 32.069 49.9071 27.4092C45.8949 22.7494 39.7356 20.5959 33.7494 21.7599C24.563 23.5455 18.5149 32.5619 20.2677 41.8496C20.2726 41.8855 20.2798 41.9228 20.2867 41.9583L20.2897 41.9733ZM20.6228 41.7925C18.9233 32.6656 24.8096 23.8886 33.8187 22.1163L33.8212 22.1158C40.4566 20.8261 47.2242 23.7049 50.968 29.4099C54.7119 35.1148 54.6948 42.5223 50.9246 48.1781C47.1545 53.834 40.3738 56.6242 33.7446 55.2477C27.1153 53.8712 21.9431 48.5991 20.6398 41.8899C20.6342 41.861 20.6283 41.8307 20.6228 41.7925Z" fill="#E6E6E6"/>
<path fill-rule="evenodd" clip-rule="evenodd" d="M36.3679 42.8318C36.0044 43.9065 35.0914 44.703 33.9773 44.9173C31.6116 45.3724 29.6304 43.1131 30.3907 40.827L31.7761 36.6614C32.1365 35.5776 33.0531 34.7723 34.1743 34.5543C36.5572 34.0912 38.5524 36.3737 37.7745 38.6733L36.3679 42.8318Z" fill="#E6E6E6"/>
<path opacity="0.604515" fill-rule="evenodd" clip-rule="evenodd" d="M38.4496 41.9904C39.3881 43.082 40.8409 43.5851 42.2535 43.3076L47.0502 42.3656L39.5193 33.5154L32.3597 34.9071L38.4496 41.9904Z" fill="#E6E6E6"/>
<rect x="31.2109" y="108.55" width="37.6637" height="5.46043" rx="2" transform="rotate(-11 31.2109 108.55)" fill="#005EFE"/>
<path d="M79.3497 134.882H77.2111L76.1938 126.597H79.3498L79.3497 134.882Z" fill="#FEB8B8"/>
<path d="M79.8951 136.964H73V136.877C73.0001 135.388 74.2015 134.181 75.6836 134.181H79.8953L79.8951 136.964Z" fill="#2F2E41"/>
<path d="M105.915 133.476L103.833 133.968L100.952 126.137L104.024 125.411L105.915 133.476Z" fill="#FEB8B8"/>
<path d="M106.921 135.377L100.209 136.964L100.189 136.879C100.026 136.183 100.145 135.45 100.519 134.842C100.894 134.234 101.493 133.8 102.186 133.636L106.286 132.666L106.921 135.377Z" fill="#2F2E41"/>
<path d="M78.9129 99.9375C78.917 99.5063 79.0443 89.3165 81.8249 85.4638L81.8659 85.4069L91.5561 86.7499L91.3394 88.8887C91.7656 89.3051 95.1182 92.8241 96.0863 101.157L106.372 128.904L101.591 129.341L87.4358 99.051L79.9454 131.976H75.2061L78.9129 99.9375Z" fill="#2F2E41"/>
<path d="M80.6895 85.8399L81.6366 80.8447C81.4512 80.605 80.6295 79.4536 80.8124 78.1039C80.9317 77.2234 81.455 76.4512 82.368 75.8083L84.8235 70.0539L84.8567 70.0344C85.022 69.9366 88.9312 67.666 91.0624 69.8083C91.1156 69.8497 96.3628 74.0342 94.2563 79.6775L91.6551 87.5169L80.6895 85.8399Z" fill="#CCCCCC"/>
<path d="M77.3941 92.5978C77.9111 92.5384 78.3754 92.2521 78.662 91.8158C78.9487 91.3795 79.0282 90.8381 78.8792 90.3372L83.9495 86.668L80.9143 85.5084L76.5648 89.1706C75.7277 89.4865 75.2571 90.3803 75.4683 91.2532C75.6794 92.126 76.506 92.7032 77.3941 92.598V92.5978Z" fill="#FEB8B8"/>
<path d="M78.3262 86.6619L86.0668 80.536L83.7658 72.6384C83.5466 71.8825 83.6499 71.0691 84.0511 70.3927C84.4226 69.7549 85.0446 69.304 85.7643 69.1508C87.0894 68.8691 88.2923 69.6144 89.3389 71.3663L89.347 71.3822C89.5201 71.8074 93.5527 81.8203 90.4736 83.9617C87.4615 86.0562 80.4771 89.1053 80.4069 89.1362L80.325 89.1717L78.3262 86.6619Z" fill="#CCCCCC"/>
<ellipse cx="88.6136" cy="63.0155" rx="4.68925" ry="4.71021" fill="#FEB8B8"/>
<ellipse cx="95.9652" cy="57.1669" rx="4.14834" ry="4.16688" fill="#2F2E41"/>
<path d="M99.5432 60.6174C98.4538 61.4078 97.0507 61.6192 95.7783 61.1846C94.506 60.7499 93.522 59.7231 93.1382 58.4294C93.3329 59.9881 94.3836 61.3044 95.856 61.834C97.3283 62.3635 98.9721 62.0164 100.108 60.9362C101.243 59.8559 101.677 58.2261 101.231 56.7206C101.42 58.2317 100.773 59.726 99.5432 60.6174Z" fill="#2F2E41"/>
<path d="M83.1719 60.6216C83.896 59.3193 84.1732 58.776 85.107 57.9826C85.9327 57.2821 86.9485 57.0765 87.7677 57.74C89.8164 56.8416 92.2105 57.4387 93.6029 59.1954C94.9952 60.9522 95.0379 63.4297 93.7069 65.2338C92.376 67.0379 90.0038 67.7179 87.9254 66.8911C85.847 66.0644 84.5814 63.9375 84.841 61.7072C84.1287 61.6073 83.884 60.7226 83.1719 60.6216Z" fill="#2F2E41"/>
<ellipse opacity="0.131092" cx="92" cy="136" rx="20" ry="2" fill="black"/>
<ellipse opacity="0.131092" cx="45" cy="136" rx="32" ry="2" fill="black"/>
</svg>
