<?xml version="1.0" encoding="UTF-8"?>
<svg width="309px" height="139px" viewBox="0 0 309 139" version="1.1" xmlns="http://www.w3.org/2000/svg" xmlns:xlink="http://www.w3.org/1999/xlink">
    <!-- Generator: Sketch 60.1 (88133) - https://sketch.com -->
    <title>undraw_Team_goals_re_4a3t</title>
    <desc>Created with Sketch.</desc>
    <g id="Page-1" stroke="none" stroke-width="1" fill="none" fill-rule="evenodd">
        <g id="Genel-Bildirim-Ekranı" transform="translate(-566.000000, -310.000000)" fill-rule="nonzero">
            <g id="undraw_Team_goals_re_4a3t" transform="translate(566.000000, 310.000000)">
                <path d="M25.7953618,127.579537 C28.2796516,128.439951 31.0395394,127.960935 33.0759093,126.315898 C35.6259421,124.207001 36.4264142,120.732811 37.0759477,117.515533 L39,108 L34.9717643,110.733199 C32.0747386,112.698605 29.1126933,114.727095 27.1067029,117.574041 C25.1007125,120.420987 24.2252687,124.307347 25.8368284,127.38767" id="b606c935-a134-40cd-80b0-a21a1aa0225b" fill="#E6E6E6"></path>
                <path d="M25.5949705,138.793349 C25.2130688,135.900419 24.8202912,132.970653 25.0881506,130.046703 C25.3261788,127.450078 26.087807,124.913877 27.6390301,122.834251 C28.4623508,121.732484 29.464177,120.788494 30.5994672,120.044721 C30.8956042,119.850846 31.167814,120.338441 30.8732308,120.531669 C28.9089523,121.822542 27.3896412,123.728705 26.534343,125.97534 C25.5896879,128.473735 25.4380459,131.197348 25.6021175,133.851166 C25.7006227,135.456123 25.9091304,137.050094 26.1195026,138.643096 C26.1546695,138.792719 26.0715451,138.944904 25.9299501,138.990131 C25.785554,139.030656 25.6366992,138.942742 25.5962134,138.793026 L25.5949705,138.793349 Z" id="a422fa29-1efa-4f1e-8f54-a5852f8559f8" fill="#F2F2F2"></path>
                <path d="M293.148115,123.558471 C290.486344,124.461975 287.529272,123.958998 285.347411,122.231626 C282.61522,120.017062 281.758433,116.369858 281.061618,112.991864 L279,103 L283.316145,105.869796 C286.420271,107.933595 289.594112,110.063705 291.743179,113.052959 C293.892246,116.042213 294.829817,120.123119 293.103615,123.357765" id="e1d169dc-da63-490d-893d-3e04e06c6dbd" fill="#E6E6E6"></path>
                <path d="M292.207089,135.728311 C292.716192,131.922053 293.239999,128.066573 292.882033,124.219502 C292.564805,120.80285 291.549011,117.466356 289.481013,114.729466 C288.383325,113.279776 287.047641,112.037677 285.534009,111.059013 C285.139408,110.803479 284.776136,111.445152 285.169053,111.699716 C287.788115,113.398212 289.813898,115.90635 290.954327,118.862508 C292.213832,122.149784 292.416074,125.733406 292.199129,129.225504 C292.067994,131.337284 291.789333,133.435216 291.509477,135.530675 C291.463626,135.727304 291.574035,135.926776 291.762092,135.987063 C291.954508,136.040252 292.152809,135.924666 292.206835,135.72783 L292.207089,135.728311 Z" id="b7dc7a19-2955-4780-ad93-c52a96f67a65" fill="#F2F2F2"></path>
                <path d="M289,130.355379 C287.908761,132.068588 286.030887,133.069694 284.046317,132.996217 C281.537994,132.873315 279.44773,131.066384 277.566248,129.350354 L272,124.275647 L275.683786,124.093589 C278.333013,123.962565 281.050603,123.83967 283.573917,124.684218 C286.09723,125.528766 288.424315,127.558148 288.885645,130.255106" id="ba9a9309-6361-43cb-a10e-efdc2c0b21e6" fill="#E6E6E6"></path>
                <path d="M293.949533,138.499645 C291.348872,134.043738 288.332585,129.0915 282.942506,127.50862 C281.44393,127.070039 279.872585,126.912922 278.313081,127.045728 C277.821496,127.086846 277.944265,127.82045 278.434826,127.779589 C281.048998,127.569419 283.658125,128.237838 285.82297,129.672318 C287.906207,131.045425 289.528298,132.954497 290.901012,134.978727 C291.741981,136.218836 292.495221,137.511444 293.248464,138.80232 C293.48915,139.214926 294.193026,138.916976 293.949533,138.499645 Z" id="abb4e2ed-9276-4565-9a98-ba1ebe7a1fe1" fill="#F2F2F2"></path>
                <polygon id="Path" fill="#FFFFFF" points="222 84 94 84 94 57 222 57"></polygon>
                <circle id="Oval" fill="#005EFE" cx="111" cy="70" r="7"></circle>
                <path d="M126.159856,66 C125.519285,66 125,66.4477153 125,67 C125,67.5522847 125.519285,68 126.159856,68 L210.842891,68 C211.482388,67.9986925 212,67.5513604 212,67 C212,66.4486396 211.482388,66.0013075 210.842891,66 L126.159856,66 Z" id="Path" fill="#005EFE"></path>
                <path d="M126.165285,73 C125.523072,72.9988376 125.001357,73.4456078 125,73.9978916 C124.998648,74.5501753 125.518167,74.9988339 126.160381,75 L179.835218,75 C180.251122,75.0005983 180.635731,74.810131 180.843885,74.5004842 C181.052038,74.1908374 181.052038,73.8091635 180.843885,73.4995167 C180.635731,73.1898698 180.251122,72.9994025 179.835218,73 L126.165285,73 Z" id="Path" fill="#005EFE"></path>
                <path d="M222,84 L94,84 L94,57 L222,57 L222,84 Z M95.9541985,82.0714286 L220.045802,82.0714286 L220.045802,58.9285714 L95.9541985,58.9285714 L95.9541985,82.0714286 Z" id="Shape" fill="#CCCCCC"></path>
                <path d="M258.131618,77.2046178 C257.895901,76.4736901 257.979597,75.670306 258.360184,75.0106431 C258.74077,74.3509802 259.379152,73.902802 260.103551,73.786706 L261.460954,68 L265,68.0113708 L262.974145,76.1549538 C263.080957,77.4790462 262.230873,78.6780433 260.995416,78.9458405 C259.759959,79.2136376 258.529638,78.4655883 258.131618,77.2046178 L258.131618,77.2046178 Z" id="Path" fill="#FFB7B7"></path>
                <polygon id="Path" fill="#3F3D56" points="263.910445 74 258 73.5978231 260.862564 56.8483229 259.040945 38.4053215 265.015645 36 269 56.4811135 268.989113 56.5184398"></polygon>
                <path d="M219.000408,71.4787778 C218.986561,70.7286292 219.325994,70.0112295 219.927371,69.5196188 C220.528748,69.0280082 221.330294,68.8126871 222.116326,68.9315947 L225.341925,64 L229,65.1163973 L224.341041,72.0204669 C224.034848,73.2793337 222.777965,74.1234131 221.415421,73.9852134 C220.052877,73.8470136 219.015355,72.7702179 219.000401,71.4787778 L219.000408,71.4787778 Z" id="Path" fill="#FFB7B7"></path>
                <polygon id="Path" fill="#FFB7B7" points="236.999283 136 233.611573 136 232 124 237 124.000329"></polygon>
                <path d="M237.999813,138 L228,137.999631 L228,137.87375 C228.000149,135.734374 229.742672,134.000114 231.892207,134 L231.892453,134 L238,134.000245 L237.999813,138 Z" id="Path" fill="#2F2E41"></path>
                <polygon id="Path" fill="#FFB7B7" points="258.999283 136 255.611573 136 254 124 259 124.000329"></polygon>
                <path d="M258.999816,138 L249,137.999631 L249,137.87375 C249.000149,135.734374 250.742672,134.000114 252.892207,134 L252.892456,134 L259,134.000245 L258.999816,138 Z" id="Path" fill="#2F2E41"></path>
                <circle id="Oval" fill="#FFB8B8" cx="255.5" cy="17.5" r="7.5"></circle>
                <path d="M253.599569,17.1563524 C251.337965,18.1059489 248.72767,17.1767074 247.5675,15.0089894 C246.40733,12.8412714 247.076497,10.1436197 249.113865,8.7750479 C251.058174,7.4689964 253.96186,7.90128082 255.846757,9.4160075 C258.454489,8.22539916 261.530039,8.86603914 263.450468,10.9998679 C265.270035,13.1126825 265.468933,16.4664292 264.142921,18.9294267 C262.965391,21.536691 263.154118,24.5606303 264.646612,27 C264.076083,26.9766516 262.8203,26.8705747 261.248984,26.7344957 C260.794282,26.695119 260.597622,25.3544859 260.099036,25.3113626 C259.659332,25.2733317 258.921577,26.5330817 258.460854,26.4940056 C255.048348,26.204578 251.227856,25.9105611 249.496445,25.9680762 C250.801185,22.9024342 252.105911,19.8367954 253.599569,17.1563524 Z" id="Path" fill="#2F2E41"></path>
                <path d="M261.612873,69 C261.612873,69 263.976267,71.4219497 262.533184,83.9287092 L261.536184,110.485309 L259.772255,134 L254.097017,133.624907 L249.112004,79.5026093 L242.132989,99.3075308 L238.37506,132.049514 L232.929896,131.674422 L232,99.1144235 L234.387051,73.9512287 L261.612873,69 Z" id="Path" fill="#2F2E41"></path>
                <path d="M237.356902,75 C234.410295,75 233.223513,74.6545305 233.136755,74.6279071 L233,74.5859369 L233.023998,74.4481276 C233.04366,74.3349115 235.023385,63.0738037 237.739751,57.1616657 L239.64982,33.1857137 C239.76254,31.7189071 240.897227,30.5217128 242.387275,30.2974588 L242.412798,30.4559453 L242.387275,30.2974588 L247.24596,29.5532763 L250.218084,27 L257.33805,27.3841522 L257.965911,30.3225171 C258.817452,30.5547609 264.436907,32.2349679 264.993096,36.2584434 L265,36.3088711 L264.976002,36.3538175 L254.681081,55.6756643 C255.551084,56.5133383 262.426261,63.4037693 262.892882,72.2125908 L262.904118,72.4244781 L262.692154,72.3771807 C262.67241,72.3732679 260.472206,71.9653147 248.902638,73.8735351 C243.551808,74.7558541 239.832954,75 237.356902,75 Z" id="Path" fill="#3F3D56"></path>
                <path d="M226.227049,72 L222,68.7787535 L231.434542,50.0999361 L240.209524,31.7929812 C240.460577,31.26907 241.014401,30.9549058 241.598136,31.0052713 C242.181871,31.0556367 242.672391,31.4599083 242.828025,32.018909 L245,39.8160316 L238.207895,57.3024633 L226.227049,72 Z" id="Path" fill="#3F3D56"></path>
                <path d="M308.67624,139 L185.32376,139 C185.144952,139 185,138.776142 185,138.5 C185,138.223858 185.144952,138 185.32376,138 L308.67624,138 C308.855048,138 309,138.223858 309,138.5 C309,138.776142 308.855048,139 308.67624,139 Z" id="Path" fill="#CBCBCB"></path>
                <polygon id="Path" fill="#3F3D56" points="166 41 148 41 148 24 157 24 157 24.6296296 148.666667 24.6296296 148.666667 40.3703704 165.333333 40.3703704 165.333333 32.5 166 32.5"></polygon>
                <polygon id="Path" fill="#005EFE" points="156.348508 36 152 31.2490144 152.749834 30.6276613 156.357127 34.56868 166.25779 24 167 24.6295537"></polygon>
                <path d="M57,22 L57.4033572,19.6 C57.4033572,19.6 63.3362076,17.2 64,22 L57,22 Z" id="Path" fill="#E6E6E6"></path>
                <polygon id="Path" fill="#9F616A" points="69.0006679 135 73.0658949 135 75 120 69 120"></polygon>
                <path d="M68,133.000317 L75.9398051,133 L75.9401362,133 C78.7345264,133.000149 80.9998007,135.167969 81,137.842184 L81,137.999537 L68.0002616,138 L68,133.000317 Z" id="Path" fill="#2F2E41"></path>
                <polygon id="Path" fill="#9F616A" points="50.0006679 135 54.0658949 135 56 120 50 120"></polygon>
                <path d="M48,133.000317 L55.939803,133 L55.9401342,133 C58.734525,133.000147 60.9998007,135.167968 61,137.842184 L61,137.999537 L48.0002649,138 L48,133.000317 Z" id="Path" fill="#2F2E41"></path>
                <polygon id="Path" fill="#3F3D56" points="51.3332258 30.4079206 46.8516487 30 44 43.4562135 44.4072401 55.689311 48.8888172 72 55 68.3300062 51.7407885 51.6117195"></polygon>
                <polygon id="Path" fill="#2F2E41" points="49.2167303 71.6266409 50.2090934 80.1666667 51.1408103 100.093501 49 129.787911 56.6567402 129.373359 60.4094622 98.4665378 62.7015688 84.2332689 65.9253922 100.5 67.9404414 131 75.7985908 130.364483 75.7985908 100.392738 76 78.5400258 73.1793141 70"></polygon>
                <path d="M64.7887383,22.2286468 C64.7887383,22.2286468 61.9295827,18.1669397 56.6197218,21.0101324 L54.1690165,24.2595019 L46.4084503,29.9458938 L48.0422549,49.0359214 L46,73 L75,72.5938296 L70.0985992,48.629751 L70.0985992,23.0409876 L64.7887383,22.2286468 Z" id="Path" fill="#3F3D56"></path>
                <polygon id="Path" fill="#000000" opacity="0.25" points="49.3778605 37 47 65 50 49.824909"></polygon>
                <path d="M98.8780836,60.8307938 C98.0142629,61.1338402 97.0648192,61.0262211 96.2852282,60.5368946 C95.5056373,60.047568 94.9759808,59.226799 94.8387782,58.2954394 L88,56.5501699 L88.013471,52 L97.6376318,54.6047254 C99.2024868,54.4673575 100.619517,55.560329 100.935998,57.1487931 C101.252479,58.7372573 100.368373,60.3191027 98.8780969,60.8307938 L98.8780836,60.8307938 Z" id="Path" fill="#9F616A"></path>
                <polygon id="Rectangle" fill="#E6E6E6" transform="translate(92.291604, 55.644223) rotate(-80.098450) translate(-92.291604, -55.644223) " points="89.0180995 54.2070125 95.5637427 54.2101326 95.5651077 57.0814336 89.0194646 57.0783135"></polygon>
                <circle id="Oval" fill="#9F616A" cx="61" cy="10" r="8"></circle>
                <path d="M61.1369847,16.7647941 C57.031062,17.7799792 52.8463755,15.4250421 51.4582235,11.3180602 C50.0700715,7.21107833 51.9303739,2.68910058 55.7609169,0.859178075 C57.1848012,0.204706063 58.7419488,-0.0830738919 60.2979538,0.0206780415 C62.7206992,0.151858515 65.0754648,1.07404764 67.5006577,1.00609139 L67.8521743,1.58799249 L69.1769396,1.25711258 L69.460812,2.34028934 L69.8097563,2.32785049 C70.4348213,3.52412862 69.4291244,5.23680646 68.1101073,5.22231421 C67.5914286,5.16072643 67.0800111,5.04599386 66.5834542,4.87982142 C66.0727965,4.7671314 65.4714374,4.79521752 65.1193041,5.19241162 C64.6616785,5.70859415 64.8608886,6.51410491 64.9563094,7.20613259 C65.0517302,7.89816026 64.8134099,8.83030376 64.1350603,8.85289441 C63.788538,8.8644349 63.4589731,8.60851714 63.1184803,8.67580209 C62.7218942,8.75417341 62.5213709,9.2473671 62.5792726,9.65895143 C62.6774901,10.0627997 62.8376719,10.4479135 63.0537725,10.7997582 C64.0034969,12.9326648 63.24041,15.4598688 61.2836802,16.6619794" id="Path" fill="#2F2E41"></path>
                <path d="M68.2797546,25.5695983 L70.2723284,24.0036491 C70.2723284,24.0036491 74.2937629,23.7322301 74.2211395,27.8710027 L80.6557276,47.4114912 L93,51.6567596 L91.3366274,60 L73.8712817,53.5407164 L65,39.2658146 L68.2797546,25.5695983 Z" id="Path" fill="#3F3D56"></path>
                <path d="M123.67624,139 L0.323759791,139 C0.144952196,139 0,138.776142 0,138.5 C0,138.223858 0.144952196,138 0.323759791,138 L123.67624,138 C123.855048,138 124,138.223858 124,138.5 C124,138.776142 123.855048,139 123.67624,139 Z" id="Path" fill="#CBCBCB"></path>
            </g>
        </g>
    </g>
</svg>