<?xml version="1.0" encoding="UTF-8"?>
<svg width="372px" height="223px" viewBox="0 0 372 223" version="1.1" xmlns="http://www.w3.org/2000/svg" xmlns:xlink="http://www.w3.org/1999/xlink">
    <!-- Generator: Sketch 60.1 (88133) - https://sketch.com -->
    <title>undraw_message_sent_1030</title>
    <desc>Created with Sketch.</desc>
    <g id="Page-1" stroke="none" stroke-width="1" fill="none" fill-rule="evenodd">
        <g id="Genel-Bildirim---Onay-Sayfası" transform="translate(-551.000000, -420.000000)">
            <g id="undraw_message_sent_1030" transform="translate(518.000000, 367.000000)">
                <path d="M286.803234,180.058509 L289.973587,179.510528 C290.277722,179.457247 290.579657,179.39236 290.883467,179.337259 C280.547986,172.923704 276.035514,160.20823 280.016942,148.717017 C283.998371,137.225804 295.411443,130.024745 307.500859,131.376087 L303.345431,141.26104 L313.190537,132.667255 C313.213502,132.672946 313.235976,132.680461 313.257745,132.689729 C319.768691,134.982161 325.101967,139.766453 328.084234,145.990045 C331.066501,152.213636 331.45345,159.366685 329.15995,165.875496 C328.995253,166.344155 328.79919,166.791642 328.611049,167.244604 C331.390416,165.84854 334.056635,164.223369 336.230924,162.14245 C340.63279,157.925674 343.044607,152.106734 345.739794,144.937661 C351.079434,130.731077 356.220316,116.318855 361.156056,101.875216 C349.910252,95.7916208 344.754134,82.4399899 348.993309,70.3801085 C349.257773,69.6290322 349.564137,68.905791 349.888866,68.1954825 C349.970037,68.0177203 350.051944,67.8410888 350.136727,67.6658686 C350.466739,66.9848796 350.815135,66.3176623 351.197471,65.6773208 C351.259966,65.5723448 351.329983,65.4741124 351.39381,65.3702744 C351.726581,64.8303718 352.077597,64.3064487 352.446856,63.7985049 C352.584319,63.607799 352.721327,63.4176219 352.863489,63.2314457 C353.281874,62.6845224 353.71515,62.1523372 354.172039,61.6442706 C354.324712,61.4742732 354.486692,61.3154397 354.643433,61.1498335 C354.994443,60.7795843 355.355075,60.4205112 355.725329,60.0726142 C355.920548,59.8894615 356.113681,59.7049813 356.314022,59.5283205 C356.365441,59.4829974 356.413412,59.433531 356.46516,59.3885799 C356.46775,59.3918951 356.469764,59.3954511 356.472252,59.3987263 C365.932014,51.1575903 379.928806,50.8432548 389.74922,58.6514029 L384.341966,71.5149382 L394.075132,63.0233501 C401.066378,71.9277528 401.456111,84.3415674 395.037183,93.6667238 C395.046154,93.6698859 395.055424,93.6723294 395.064395,93.6754769 C394.958124,93.8316188 394.837432,93.9745215 394.728119,94.127877 C394.522881,94.4157005 394.312762,94.6984047 394.097762,94.9759894 C393.821223,95.3319515 393.534049,95.6759801 393.240891,96.0153111 C393.019528,96.2714434 392.801358,96.5297019 392.570951,96.7760816 C392.233941,97.1365041 391.880846,97.4777718 391.525424,97.8171393 C391.317884,98.0150885 391.119509,98.2230674 390.906089,98.4137478 C390.346609,98.9133712 389.767798,99.3874341 389.169658,99.8359366 C388.95985,99.9930231 388.738469,100.131593 388.524318,100.282034 C388.104354,100.577355 387.682212,100.868336 387.246239,101.137853 C386.975694,101.305017 386.697973,101.457825 386.421729,101.614926 C386.021929,101.842596 385.61929,102.063161 385.208224,102.269207 C384.916785,102.415261 384.623223,102.5539 384.32656,102.689016 C383.904498,102.881312 383.477124,103.059651 383.045256,103.229375 C382.755447,103.343166 382.467084,103.458416 382.173241,103.561889 C381.688501,103.732576 381.196641,103.880858 380.701858,104.022809 C380.452122,104.094567 380.206422,104.176661 379.954362,104.240909 C379.212135,104.430152 378.461648,104.591251 377.702346,104.714674 C377.55956,104.737983 377.414198,104.746769 377.270868,104.767598 C376.641486,104.859159 376.008783,104.933043 375.371043,104.978181 C375.096907,104.997481 374.821127,105.000261 374.54582,105.010979 C374.030352,105.031039 373.514358,105.041251 372.995547,105.030156 C372.692966,105.023737 372.39055,105.008091 372.087177,104.990982 C371.582012,104.96241 371.076383,104.918431 370.570289,104.859043 C370.271043,104.824395 369.972658,104.790009 369.673218,104.744686 C369.130916,104.662436 368.589453,104.554892 368.047732,104.437107 C368.012223,104.42939 367.976558,104.424707 367.940987,104.416844 C365.857733,110.510375 363.735908,116.590891 361.575513,122.658393 C366.900933,117.871089 373.965353,115.490912 381.103024,116.079095 C388.240696,116.667278 394.819888,120.171763 399.289268,125.766212 L390.291095,135.714349 L402.474192,130.852385 C405.433441,137.055941 405.807974,144.180227 403.51549,150.659704 C402.721181,152.936551 401.608114,155.089377 400.209487,157.053968 C394.050073,165.763588 383.195541,169.830675 372.827104,167.313881 C362.458666,164.797086 354.678462,156.206676 353.200229,145.643123 C352.971336,146.254462 352.750185,146.873471 352.520701,147.484205 C350.142276,153.808834 347.18337,161.679805 341.241049,167.370435 C337.213092,171.227557 332.257272,173.67465 327.502564,175.743549 C324.406409,177.090595 321.269047,178.335976 318.090476,179.479691 C314.556799,181.621595 310.564617,182.893507 306.442833,183.19064 C301.427502,184.583411 296.348918,185.746072 291.222782,186.643742 L288.026468,187.194556 C285.153979,187.686481 282.208561,188.192953 279.285317,188.776491 C279.706226,188.901333 280.127678,189.020438 280.546387,189.167757 C291.234237,192.928277 298.262046,203.167248 297.926546,214.489294 L277.8883,220.63794 L296.020518,223.516477 C292.648938,231.799891 285.259975,237.773199 276.45195,239.335894 C267.643925,240.898589 258.650116,237.831866 252.633186,231.214135 C252.817231,231.830606 253.002028,232.446111 253.187574,233.060651 C253.555641,234.281904 253.920787,235.496249 254.271536,236.699051 C259.042814,253.088671 256.989422,265.981158 248.488575,273 L243.87581,267.417997 C252.149373,260.58552 249.582485,246.506819 247.317474,238.721437 C246.973186,237.540343 246.613689,236.347363 246.252086,235.147807 C243.144484,224.827172 239.621638,213.128807 244.18429,202.378972 C251.060639,186.176738 270.878931,182.7843 286.803234,180.058509 Z" id="Path" fill="#F2F2F2" fill-rule="nonzero"></path>
                <path d="M280.552849,275 L139.447143,275 C129.811352,275 122,267.256094 122,257.703501 L122,193.614053 C122,191.733154 122.779892,189.93495 124.156851,188.640978 L198.928915,118.375266 C205.13674,112.541578 214.863256,112.541578 221.071082,118.375266 L292.362288,185.369889 C295.96147,188.75216 298,193.452424 298,198.368839 L298,257.703501 C298,262.290819 296.161823,266.690253 292.889847,269.933975 C289.617872,273.177698 285.180121,275 280.552849,275 L280.552849,275 Z" id="Path" fill="#3F3D56" fill-rule="nonzero"></path>
                <path d="M122,194 L296,194 L296,264.469164 C296,270.285184 291.297657,275 285.497024,275 L132.502976,275 C126.702343,275 122,270.285184 122,264.469164 L122,194 Z" id="Path" fill="#000000" fill-rule="nonzero" opacity="0.1"></path>
                <g id="Group"></g>
                <rect id="Rectangle" fill="#005EFE" fill-rule="nonzero" x="145" y="140" width="129" height="129" rx="26.1811"></rect>
                <polygon id="Path" fill="#000000" fill-rule="nonzero" opacity="0.1" points="274 198 274 269 145 269 145 198 209.5 229.221023"></polygon>
                <path d="M209,233.010715 L125.842273,193.331927 C124.796696,192.83303 123.564711,192.900027 122.580968,193.509281 C121.597225,194.118535 121,195.184409 121,196.330856 L121,264.599584 C121,267.357945 122.109951,270.003332 124.085678,271.953788 C126.061406,273.904245 128.741068,275 131.535169,275 L286.464831,275 C289.258932,275 291.938594,273.904245 293.914322,271.953788 C295.890049,270.003332 297,267.357945 297,264.599584 L297,197.500345 C297,196.101373 296.271231,194.800722 295.070803,194.057269 C293.870374,193.313816 292.367023,193.232062 291.091141,193.840852 L209,233.010715 Z" id="Path" fill="#3F3D56" fill-rule="nonzero"></path>
                <rect id="Rectangle" fill="#F2F2F2" fill-rule="nonzero" x="156" y="152" width="36" height="5"></rect>
                <rect id="Rectangle" fill="#F2F2F2" fill-rule="nonzero" x="153" y="170" width="108" height="3"></rect>
                <rect id="Rectangle" fill="#F2F2F2" fill-rule="nonzero" x="153" y="180" width="108" height="3"></rect>
                <rect id="Rectangle" fill="#F2F2F2" fill-rule="nonzero" x="153" y="190" width="108" height="3"></rect>
                <line x1="56" y1="275" x2="358" y2="275" id="Path" stroke="#3F3D56"></line>
                <path d="M33,230 C33,251.556641 46.8652357,269 64,269" id="Path" fill="#46455B" fill-rule="nonzero"></path>
                <path d="M64,269 C64,247.443361 79.2070304,230 98,230" id="Path" fill="#005EFE" fill-rule="nonzero"></path>
                <path d="M44,232 C44,252.451176 52.9453127,269 64,269" id="Path" fill="#005EFE" fill-rule="nonzero"></path>
                <path d="M64,269 C64,241.363284 81.8906266,219 104,219" id="Path" fill="#46455B" fill-rule="nonzero"></path>
                <path d="M58,269.287818 C58,269.287818 62.2999265,269.157415 63.5958149,268.248792 C64.8917034,267.340169 70.210182,266.255219 70.531661,267.712454 C70.85314,269.169689 76.9936515,274.960077 72.139056,274.998632 C67.2844606,275.037188 60.8591371,274.254058 59.5657418,273.47829 C58.2723464,272.702521 58,269.287818 58,269.287818 Z" id="Path" fill="#A8A8A8" fill-rule="nonzero"></path>
                <path d="M72.2266855,274.555213 C67.3717509,274.588941 60.9459821,273.904105 59.6524927,273.225708 C58.6674334,272.709076 58.2748991,270.855273 58.1435581,270 C58.0526009,270.003368 58,270.004817 58,270.004817 C58,270.004817 58.2723655,272.990905 59.5658548,273.669298 C60.8593442,274.347692 67.2851313,275.032532 72.1400439,274.998803 C73.5414741,274.989073 74.0255486,274.559771 73.9989695,273.92394 C73.8042808,274.308094 73.269787,274.547974 72.2266855,274.555213 Z" id="Path" fill="#000000" fill-rule="nonzero" opacity="0.2"></path>
                <path d="M296.532884,112.21333 C296.31089,114.199336 294.802323,115.799138 294.243364,117.717176 C293.402049,120.604088 294.856809,123.702001 296.846789,125.950353 C300.089987,129.576153 304.643776,131.747292 309.491802,131.979196 C310.196901,132.041436 310.907306,131.963691 311.582499,131.750395 C312.185336,131.506817 312.72812,131.134343 313.173126,130.658861 C314.671769,129.147857 315.476239,127.054249 315.796841,124.946156 C316.117443,122.838064 315.992849,120.690378 315.867484,118.561567 C315.868098,118.121511 315.788478,117.685061 315.632562,117.273797 C315.428199,116.882028 315.147487,116.535511 314.807111,116.254838 C313.728156,115.260969 312.539707,114.394064 311.264859,113.670972 C310.688624,113.411691 310.180441,113.02122 309.780575,112.530498 C309.539652,112.11011 309.383731,111.646106 309.321753,111.165088 L308.93042,109.162636 C308.860612,108.585577 308.664344,108.031217 308.355726,107.539408 C307.664406,106.602971 306.34201,106.475533 305.182029,106.429842 L300.932327,106.262446 C299.610426,106.210375 297.868658,105.829738 296.578191,106.090419 C295.37315,106.333845 295.773429,107.448889 295.992324,108.464188 C296.309752,109.69004 296.491043,110.947413 296.532884,112.21333 L296.532884,112.21333 Z" id="Path" fill="#A0616A" fill-rule="nonzero"></path>
                <path d="M296.532884,112.21333 C296.31089,114.199336 294.802323,115.799138 294.243364,117.717176 C293.402049,120.604088 294.856809,123.702001 296.846789,125.950353 C300.089987,129.576153 304.643776,131.747292 309.491802,131.979196 C310.196901,132.041436 310.907306,131.963691 311.582499,131.750395 C312.185336,131.506817 312.72812,131.134343 313.173126,130.658861 C314.671769,129.147857 315.476239,127.054249 315.796841,124.946156 C316.117443,122.838064 315.992849,120.690378 315.867484,118.561567 C315.868098,118.121511 315.788478,117.685061 315.632562,117.273797 C315.428199,116.882028 315.147487,116.535511 314.807111,116.254838 C313.728156,115.260969 312.539707,114.394064 311.264859,113.670972 C310.688624,113.411691 310.180441,113.02122 309.780575,112.530498 C309.539652,112.11011 309.383731,111.646106 309.321753,111.165088 L308.93042,109.162636 C308.860612,108.585577 308.664344,108.031217 308.355726,107.539408 C307.664406,106.602971 306.34201,106.475533 305.182029,106.429842 L300.932327,106.262446 C299.610426,106.210375 297.868658,105.829738 296.578191,106.090419 C295.37315,106.333845 295.773429,107.448889 295.992324,108.464188 C296.309752,109.69004 296.491043,110.947413 296.532884,112.21333 L296.532884,112.21333 Z" id="Path" fill="#000000" fill-rule="nonzero" opacity="0.1"></path>
                <path d="M323.72191,200.591069 C323.130368,207.057585 322.538832,213.523101 321.947301,219.987617 C321.484229,225.075048 321.012192,230.183334 320.103982,235.205221 C319.790276,236.935775 319.422801,238.657407 318.98662,240.364133 C317.773675,245.103055 316.014028,249.734752 315.446372,254.59284 C315.428448,254.732824 315.413515,254.875783 315.398581,255.018777 C315.335026,256.093029 315.131144,257.15442 314.792097,258.17607 C314.508277,258.917735 314.072085,259.593879 313.764378,260.326618 C313.151932,261.792078 313.07126,263.412429 312.996574,265 C310.842191,263.792079 308.483815,262.988463 306.038557,262.629057 C304.858469,262.453314 303.543957,262.328219 302.740301,261.449525 C301.849997,260.478502 301.948592,258.992191 302.097951,257.68757 C302.567002,253.636702 303.035054,249.587819 303.502106,245.540922 C303.65453,243.799814 303.951309,242.07428 304.389402,240.38201 C304.550744,239.819051 304.744922,239.26504 304.942113,238.711029 C305.213972,237.948512 305.488822,237.185992 305.694965,236.40262 C305.992026,235.136894 306.199675,233.851954 306.316382,232.557258 C306.797372,228.482553 307.37696,224.416778 307.884848,220.345055 L307.911743,220.130605 C308.673567,213.958967 309.253155,207.757551 309.085854,201.541243 C309.061945,200.620872 309.023106,199.700478 308.963353,198.777125 C308.87971,197.439742 308.757221,196.73084 309.868591,195.893857 C311.096474,194.970493 312.712713,194.324135 314.11689,193.719476 C314.87275,193.391838 323.19608,190.446014 323.390276,191.092379 C323.780736,192.471072 323.985682,193.895387 323.999732,195.327917 C324.005668,197.086094 323.912916,198.843225 323.72191,200.591069 Z" id="Path" fill="#605D82" fill-rule="nonzero"></path>
                <path d="M320,235.122939 C319.689643,236.85904 319.32609,238.58619 318.894566,240.298386 C317.694569,245.052497 315.953706,249.699039 315.39211,254.572697 C315.374377,254.71313 315.359603,254.856547 315.344828,255 C311.673877,249.69905 308.582262,243.997693 305,238.639977 C305.268957,237.875016 305.540873,237.110051 305.744816,236.324168 C306.038705,235.054386 306.244137,233.765328 306.359599,232.466482 C306.835454,228.378718 307.408855,224.299911 307.911322,220.215138 L307.93793,220 C308.148179,220.867187 308.44836,221.709522 308.833487,222.513011 C311.239405,227.455396 316.955652,229.953471 319.751716,234.683669 C319.837425,234.830104 319.920186,234.976528 320,235.122939 Z" id="Path" fill="#000000" fill-rule="nonzero" opacity="0.1"></path>
                <path d="M290.013708,191.228733 C290.134878,195.221805 290.762142,199.178847 291.388107,203.122588 L292.679625,211.259393 C293.38648,215.712691 294.122399,220.256744 296.190478,224.24541 C297.737519,227.22913 299.96642,229.775235 301.982806,232.452144 C306.939899,239.03307 310.663882,246.487876 315.364293,253.261556 C316.730537,255.230428 318.683434,257.35968 321.015145,256.94857 C322.545469,256.678751 323.656965,255.380394 324.859885,254.379346 C326.278088,253.199141 327.987354,252.335554 329.103216,250.856207 C330.219079,249.376859 330.437709,246.917874 328.925932,245.865175 C328.378912,245.556389 327.798152,245.314233 327.195619,245.143698 C324.852053,244.235452 323.335159,241.903322 322.369986,239.545162 C321.404813,237.187002 320.820039,234.651365 319.533918,232.458057 C316.739898,227.693224 311.026427,225.176958 308.621436,220.196604 C307.274435,217.407177 307.146057,214.192118 307.043096,211.085024 L306.780627,203.16453 C306.751922,202.29838 306.729468,201.397556 307.074991,200.60566 C307.994925,198.497297 310.772508,198.30092 313.021545,198.033631 C315.574133,197.728779 318.046909,196.933763 320.309004,195.69066 C321.60439,194.977837 322.869937,194.069126 323.562932,192.745526 C324.195176,191.537954 324.282428,190.121587 324.356569,188.75498 L325.135297,174.400814 C325.202294,173.165866 325.263392,171.888965 324.836265,170.731266 C323.763757,167.824264 320.161497,166.874339 317.116878,167.013037 C311.451272,167.271134 306.221034,169.754678 300.879078,171.43184 C299.555933,171.857136 298.212589,172.21419 296.854162,172.501644 C295.655263,172.746815 294.204305,172.645087 293.060868,173.037911 C291.027392,173.736511 291.079025,178.268143 290.790678,180.147923 C290.195144,183.808994 289.935033,187.518572 290.013708,191.228733 L290.013708,191.228733 Z" id="Path" fill="#605D82" fill-rule="nonzero"></path>
                <path d="M321.168209,257.287164 C321.685435,257.800951 321.854502,258.553658 321.989235,259.264938 C322.736347,263.210375 323.124958,267.213552 323.150454,271.226954 C323.115888,271.601419 323.191783,271.977752 323.369028,272.310774 C323.514685,272.509399 323.712053,272.665632 323.940324,272.763 C325.435214,273.464788 327.170326,272.486748 328.415984,271.411951 C330.725153,269.419493 332.679092,266.745141 332.810251,263.724109 C332.786211,262.94598 332.813883,262.167135 332.893089,261.392565 C333.095912,260.255221 333.77018,259.264257 334.364297,258.268771 C335.375375,256.574183 336.190886,254.773536 336.795624,252.9004 C337.02273,252.196665 337.173782,251.31056 336.613941,250.819432 C336.415445,250.666231 336.189784,250.55068 335.948443,250.478658 L329.195624,248.008966 C328.610449,247.794954 327.15433,251.479234 326.923219,251.882012 C326.357885,252.867253 325.79576,253.426569 324.661584,253.653988 C323.503857,253.886127 322.125691,253.55303 321.045438,254.121969 C319.218075,255.084371 320.133543,256.259366 321.168209,257.287164 Z" id="Path" fill="#535070" fill-rule="nonzero"></path>
                <path d="M310.006128,260.155512 C309.875338,259.907755 309.693261,259.687793 309.470871,259.508879 C309.145322,259.312134 308.775172,259.192309 308.391218,259.159376 C307.052473,258.942778 305.465705,258.800159 304.541711,259.748319 C303.675436,260.637256 303.824363,262.085386 303.100126,263.083052 C302.870854,263.398885 302.560207,263.659176 302.361425,263.993239 C302.114698,264.5039 302.003413,265.064499 302.037355,265.625747 C302,267.172121 301.962654,268.721119 302.074758,270.264223 C302.1687,271.557275 302.397443,272.912252 303.246043,273.925268 C304.608103,275.551204 307.064678,275.785004 309.245184,275.890534 L311.011176,275.976002 C311.497546,276.032329 311.99093,275.989228 312.458443,275.849571 C313.04312,275.592051 313.493453,275.119922 313.70679,274.540806 C314.626049,272.363671 313.170252,270.018045 312.27351,267.832399 C311.242812,265.320188 311.427888,262.530708 310.006128,260.155512 Z" id="Path" fill="#535070" fill-rule="nonzero"></path>
                <path d="M296.621526,101.649135 C296.601494,101.433886 296.633011,101.216949 296.71345,101.016405 C296.952937,100.591384 297.578281,100.707057 298.050007,100.826427 C299.947086,101.306474 301.945999,100.871937 303.899244,100.984084 C305.852488,101.096231 308.052679,102.07631 308.445411,104 C309.863154,102.991201 311.085283,101.730845 312.05157,100.281044 C312.59366,99.4668193 313.066168,98.5341855 312.992369,97.5577022 C312.885928,96.1492558 311.708576,95.0959407 310.618428,94.2027096 L307.368773,91.5400341 C306.9423,91.1466071 306.449664,90.832244 305.913769,90.6115595 C305.163352,90.3541711 304.345015,90.4768045 303.551991,90.4773149 C301.18646,90.4788356 298.664346,89.3983077 296.560492,90.4837604 C295.681665,90.9371774 295.020193,91.7141775 294.382532,92.4718052 L291.482166,95.9177537 C291.263841,96.1373699 291.104362,96.4088092 291.018545,96.7068539 C290.936025,97.127479 291.151242,97.5425932 291.226344,97.9646131 C291.363343,98.734438 291.032996,99.5560353 291.28697,100.295326 C291.708604,101.522641 293.193296,101.696374 294.100969,102.399979 C294.439264,102.662217 294.969456,103.550944 295.37252,103.540091 C296.099764,103.52051 296.602618,102.216238 296.621526,101.649135 Z" id="Path" fill="#3F3D56" fill-rule="nonzero"></path>
                <circle id="Oval" fill="#A0616A" fill-rule="nonzero" cx="302.5" cy="102.5" r="9.5"></circle>
                <path d="M303.838876,123.335768 C303.178016,121.426469 301.366757,120.169241 299.362652,120.228737 C299.083275,120.281191 298.794633,120.244379 298.536993,120.123437 C298.391289,120.010518 298.274859,119.863692 298.197656,119.69551 C297.620511,118.648672 297.156536,117.542323 296.813719,116.395507 C296.662299,115.888773 296.455232,115.291373 295.947037,115.159628 C295.518272,115.103031 295.093488,115.289407 294.842215,115.644373 C294.600853,115.995015 294.337073,116.329404 294.052555,116.645412 C292.858804,117.722012 290.74271,116.740751 289.475677,117.72848 C289.268716,117.889816 289.097915,118.096492 288.880544,118.243248 C288.662981,118.375345 288.428496,118.476746 288.183635,118.544621 C285.73692,119.350291 283.338381,120.297826 281,121.382491 C281.842796,126.501969 282.706404,131.710703 284.681942,136.502489 C285.622071,138.782846 286.687471,141.016197 287.440298,143.366217 C289.10835,148.573138 289.182302,154.144293 289.201024,159.616255 C289.213835,163.361334 289.19538,167.186368 287.994104,170.730047 C287.670943,171.51318 287.443156,172.332962 287.315733,173.171429 C287.243184,174.015857 287.486875,174.94692 288.165202,175.447212 C288.558485,175.70665 289.008286,175.866002 289.476032,175.911604 C291.557523,176.219667 293.655953,175.660924 295.705486,175.182163 C301.198855,173.898965 306.801431,173.164695 312.393253,172.432356 L321.763412,171.205171 C322.435061,171.159157 323.092407,170.987797 323.702051,170.699799 C325.416683,169.752884 325.579461,167.151402 324.514668,165.497858 C324.004197,164.705131 323.283967,164.054793 322.855057,163.214337 C322.426146,162.373882 322.389621,161.198608 323.128001,160.616496 C324.629969,159.432399 324.181952,157.235504 324.253587,155.314055 C324.453883,149.941435 324.426785,144.566716 324.172293,139.189899 C324.097066,138.076878 324.079405,136.960658 324.119384,135.845782 C324.285903,133.956615 324.631963,132.087952 325.152798,130.265541 L328,118.95801 C327.256214,117.772491 325.832076,117.020338 324.482985,116.678845 C323.133894,116.337353 321.728779,116.236848 320.400178,115.821588 C317.678321,114.970876 315.255107,112.811956 312.41256,113.013164 C312.197544,113.017061 311.986078,113.069143 311.793478,113.16564 C311.15238,113.531968 311.253908,114.463842 311.212928,115.205887 C311.122264,116.847624 309.925113,118.219742 308.603063,119.181764 C307.281014,120.143787 305.771135,120.845269 304.556891,121.942396 C304.121134,122.273581 303.857212,122.785747 303.838876,123.335768 L303.838876,123.335768 Z" id="Path" fill="#3F3D56" fill-rule="nonzero"></path>
                <path d="M266.047757,133.590983 C265.41802,134.008464 264.748836,134.360268 264.050281,134.641098 C263.366242,134.849005 262.719952,135.169462 262.136843,135.589861 C261.868099,135.827352 261.642807,136.111755 261.471475,136.429801 C260.816717,137.616058 260.845741,139.072393 261.54722,140.230433 C262.248699,141.388473 263.511445,142.064665 264.842639,141.995107 C265.711256,141.895666 266.555502,141.638481 267.335591,141.235671 L274.033531,138.270191 C275.167184,137.768273 276.391767,137.180059 276.927588,136.042598 C276.990016,135.936499 277.013154,135.811051 276.992802,135.689014 C276.938793,135.559964 276.841141,135.455078 276.717688,135.393522 C275.20692,134.391056 273.885701,133.118146 272.817599,131.636035 C272.5428,131.254834 272.206562,130.354743 271.818125,130.126193 C270.400378,129.291999 267.182527,132.838552 266.047757,133.590983 Z" id="Path" fill="#A0616A" fill-rule="nonzero"></path>
                <path d="M338.536902,131 L340.936539,133.785378 C341.451698,134.383346 341.967408,134.982008 342.436999,135.61754 C343.590148,137.232367 344.51523,139.003223 345.185336,140.878591 C345.706943,142.26938 346.139869,143.750811 345.957599,145.227603 C345.836586,145.984682 345.635357,146.726245 345.357421,147.439359 C344.917611,148.810864 344.37241,150.145128 343.726853,151.429828 C343.183875,152.405887 342.570576,153.339789 341.891976,154.223888 C340.034068,156.725999 338.001138,159.088823 335.808979,161.294002 C334.988606,162.119197 334.644564,163.453482 334.287451,164.568912 C333.628747,166.626315 332.061405,168.228741 330.545738,169.748274 C330.058672,170.270897 329.520354,170.741612 328.939163,171.153093 C328.068433,171.722926 327.050873,172.017393 326.015336,171.999206 C325.562018,172.00242 325.113173,171.908009 324.698365,171.722191 C323.661161,171.221717 323.134006,170.002993 323.025955,168.841452 C322.929403,167.787378 323.103244,166.725867 323.530538,165.760371 C324.907532,162.660868 328.443594,161.317745 330.943039,159.056237 C332.408671,157.730127 333.529457,156.064396 334.634852,154.416708 C335.385673,153.387958 336.012502,152.271516 336.501941,151.091244 C337.060135,149.577836 336.842859,147.786213 337.330528,146.247826 C337.536658,145.597556 337.903137,145.010407 338.124784,144.365424 C338.34643,143.72044 338.402233,142.95479 338.014502,142.396663 C337.722002,142.041945 337.349193,141.76461 336.928049,141.588442 C335.331352,140.76498 333.543073,139.705226 333.237482,137.912457 C333.115673,136.918263 333.371333,135.914271 333.952412,135.10488 C334.53139,134.306289 335.207978,133.585768 335.96589,132.96066 C336.664208,132.333215 337.838559,131.62745 338.536902,131 Z" id="Path" fill="#A0616A" fill-rule="nonzero"></path>
                <path d="M264.954005,136.580825 C264.496342,135.671948 263.924173,134.744669 263.00067,134.292754 C262.095852,133.906527 261.06945,133.902292 260.161366,134.281039 C259.265866,134.660603 258.427489,135.159003 257.669626,135.762334 L255.435551,137.381366 C254.929019,137.708018 254.480865,138.114702 254.109196,138.584989 C253.756662,139.155446 253.521923,139.788604 253.418394,140.448284 C253.029,141.952716 252.910129,143.51249 253.067148,145.057169 C253.421684,147.533938 254.940591,149.696209 256.612429,151.581549 C257.657106,152.759643 258.946899,153.948525 260.535847,153.998776 C261.221733,154.020466 261.984533,153.754683 262.269797,153.141087 C262.368579,152.897814 262.421071,152.638773 262.424661,152.376857 C262.596304,149.614265 261.591075,146.915861 260.418851,144.399455 C260.0451,143.740545 259.824243,143.008511 259.77211,142.255818 C259.763705,142.129149 259.79721,142.003206 259.867619,141.896801 C259.968723,141.793348 260.103859,141.728482 260.249015,141.713729 C261.853419,141.401739 264.616932,142.627068 265.742451,140.875467 C266.472102,139.739946 265.472519,137.610551 264.954005,136.580825 Z" id="Path" fill="#A0616A" fill-rule="nonzero"></path>
                <path d="M295.621526,98.6491343 C295.601493,98.4338858 295.633009,98.2169489 295.713448,98.0164046 C295.952934,97.591383 296.578282,97.7070568 297.050009,97.8264261 C298.947084,98.3064734 300.945997,97.8719364 302.899242,97.9840837 C304.852487,98.096231 307.052679,99.0763092 307.445414,101 C308.863157,99.9912008 310.085286,98.730845 311.051573,97.281043 C311.59366,96.4668185 312.066168,95.5341846 311.992369,94.5577011 C311.885928,93.1492725 310.708576,92.0959427 309.618432,91.2027079 L306.368772,88.540032 C305.9423,88.1466045 305.449664,87.8322423 304.913768,87.6115608 C304.163351,87.3541724 303.345013,87.4768022 302.55199,87.4773126 C300.186458,87.4788368 297.664343,86.3983088 295.560493,87.4837581 C294.681665,87.9371751 294.020194,88.7141754 293.382532,89.4718068 L290.482166,92.9177559 C290.263842,93.1373711 290.104362,93.4088091 290.018545,93.7068527 C289.936025,94.1274778 290.151242,94.5425921 290.226348,94.9646157 C290.363347,95.7344407 290.032996,96.5560381 290.28697,97.2953252 C290.708608,98.5226402 292.193296,98.6963737 293.100973,99.3999823 C293.439264,99.6622166 293.969457,100.550947 294.372521,100.540091 C295.099744,100.52051 295.602616,99.2162372 295.621526,98.6491343 Z" id="Path" fill="#3F3D56" fill-rule="nonzero"></path>
                <path d="M275.890083,124.205786 C275.520865,124.456835 275.196781,124.774897 274.932874,125.145209 C274.597584,125.679649 274.529433,126.354347 274.241427,126.918594 C273.625112,128.126003 272.183579,128.55555 271.284304,129.546102 C271.141439,129.682299 271.042162,129.861861 271.000157,130.060038 C270.995821,130.328868 271.081337,130.590738 271.241728,130.79978 L275.578259,137.987053 C277.022116,138.12108 278.407283,137.16741 279.851753,137.294004 C280.391087,137.341273 280.942976,137.537664 281.46017,137.369641 C281.830444,137.196554 282.177479,136.972801 282.492319,136.704156 C283.354089,136.1297 284.50185,136.062767 285.224852,135.304863 C285.918714,134.577501 286.007245,133.439486 285.998972,132.407941 C286.010565,131.512135 285.924062,130.61791 285.741179,129.743013 C285.102734,126.984259 283.101392,124.867185 281.846743,122.423441 C281.23594,121.233715 280.90357,120.537245 279.610739,121.354141 C278.311201,122.175261 277.113098,123.262898 275.890083,124.205786 Z" id="Path" fill="#3F3D56" fill-rule="nonzero"></path>
                <path d="M330.483442,120.392185 C331.301935,120.942353 332.039825,121.611386 332.674502,122.378781 C333.337998,123.264352 333.713786,124.348147 334.351139,125.254058 C334.968921,126.132149 335.809871,126.812219 336.510609,127.620798 C337.573322,128.847056 338.293141,130.343082 339,131.819034 C337.273496,134.149831 335.39095,136.352209 333.366262,138.409905 C333.140903,138.684794 332.843967,138.886847 332.510815,138.992001 C332.05053,139.04259 331.5964,138.850945 331.301483,138.481657 C330.987817,138.141014 330.765501,137.721062 330.465634,137.367352 C329.757886,136.611604 328.814668,136.139396 327.802912,136.0343 C326.800143,135.93397 325.791079,135.919586 324.786022,135.991294 C324.565356,136.016739 324.342209,135.977921 324.141701,135.87921 C323.992619,135.772716 323.871741,135.629196 323.790143,135.461802 C322.610957,133.384781 322.990243,130.777024 323.406266,128.406698 L324.360889,122.967664 C324.499198,121.928889 324.76623,120.912889 325.155391,119.944758 C325.516919,119.144879 326.3255,117.788476 327.319664,118.027934 C328.321861,118.269309 329.640292,119.764422 330.483442,120.392185 Z" id="Path" fill="#3F3D56" fill-rule="nonzero"></path>
                <circle id="Oval" fill="#FFFFFF" fill-rule="nonzero" cx="150" cy="141" r="15"></circle>
                <path d="M150,124 C140.058875,124 132,132.058875 132,142 C132,151.941125 140.058875,160 150,160 C159.941125,160 168,151.941125 168,142 C167.970937,132.070938 159.929062,124.029063 150,124 Z M146.304809,151.597122 L137.079809,142.372111 L139.667306,139.784615 L146.313468,146.43077 L160.341345,132.402892 L162.928845,134.990392 L146.304806,151.597122 L146.304809,151.597122 Z" id="Shape" fill="#82C91D" fill-rule="nonzero"></path>
            </g>
        </g>
    </g>
</svg>