<?xml version="1.0" encoding="UTF-8"?>
<svg width="523px" height="317px" viewBox="0 0 523 317" version="1.1" xmlns="http://www.w3.org/2000/svg" xmlns:xlink="http://www.w3.org/1999/xlink">
    <!-- Generator: Sketch 60.1 (88133) - https://sketch.com -->
    <title>undraw_add_post_64nu</title>
    <desc>Created with Sketch.</desc>
    <g id="Page-1" stroke="none" stroke-width="1" fill="none" fill-rule="evenodd">
        <g id="Giriş-Yap" transform="translate(-94.000000, -472.000000)" fill-rule="nonzero">
            <g id="Group-4">
                <g id="undraw_add_post_64nu" transform="translate(94.000000, 472.000000)">
                    <ellipse id="Oval" fill="#0256E5" cx="119.5" cy="314.5" rx="106.5" ry="2.5"></ellipse>
                    <ellipse id="Oval-Copy" fill="#0256E5" cx="416.5" cy="314.5" rx="106.5" ry="2.5"></ellipse>
                    <path d="M221.392276,91 L212,85.2492887 L217.77197,70.8955132 C218.904496,68.0791374 221.611224,66.1698273 224.696866,66.0107325 L224.696866,66.0107325 C227.78042,65.8517449 230.67516,67.469876 232.10425,70.1513869 C233.53334,72.8328978 233.233999,76.0847111 231.338261,78.4724894 L221.392276,91 Z" id="Path" fill="#FEB8B8"></path>
                    <polygon id="Path" fill="#FEB8B8" points="171.590539 249 159 243.40609 165.831664 229 176 235.096326"></polygon>
                    <path d="M166.800691,271.249424 L152.169843,256.487027 C149.263217,253.573427 149.278743,248.884956 152.204603,245.990261 L159.570625,238.702692 C160.109116,238.165611 160.873947,237.91435 161.630199,238.026083 C162.386452,238.137816 163.043715,238.599185 163.400112,239.268481 C165.213431,242.755604 167.683382,244.635711 170.882372,244.731453 C172.800005,244.788847 173.10219,244.718074 173.601531,246.550732 L172.985733,260.360142 L175.51671,263.209567 C177.478815,265.418529 177.496224,268.720025 175.557521,270.94912 L175.557521,270.94912 C174.472082,272.197136 172.908739,272.93942 171.245576,272.996455 C169.582412,273.053491 167.970871,272.420086 166.800691,271.249424 Z" id="Path" fill="#2F2E41"></path>
                    <path d="M178.037339,237 L164.589732,230.611111 L175.698624,160.914141 L121.392336,165.409706 C104.222081,166.831089 90.0493264,151.577901 93.529567,134.814979 C94.5428015,129.74151 97.3503764,125.195768 101.444448,122 L155.234875,128.388889 L190.087429,133.149389 C197.250981,134.127858 203.041735,139.437364 204.596303,146.452485 L204.596303,146.452485 C205.201082,149.181596 205.125368,152.016172 204.375751,154.709584 L178.037339,237 Z" id="Path" fill="#2F2E41"></path>
                    <ellipse id="Oval" fill="#0352D8" cx="84.5" cy="228" rx="84.5" ry="85"></ellipse>
                    <path d="M212.60422,81.0423249 L226,87.471557 L204.688404,122.606726 C202.779683,125.753524 199.17674,127.44492 195.54636,126.898443 L195.54636,126.898443 C192.087314,126.377758 189.229853,123.917431 188.191361,120.565649 L164.385004,74.8707179 C162.746349,71.7254096 162.552291,68.020308 163.853348,64.7199434 C165.154406,61.4195788 167.821854,58.8504863 171.161289,57.6814645 L171.161318,57.6814645 C174.251442,56.5997171 177.645499,56.8125677 180.577377,58.2719714 C183.509255,59.731375 185.731815,62.3143128 186.743376,65.4377603 L198.04359,100.330021 L212.60422,81.0423249 Z" id="Path" fill="#3F3D56"></path>
                    <path d="M153.195751,63.8634607 C157.55773,64.4632042 162.038036,63.0365785 165.678028,60.5773904 C169.318021,58.1182022 172.194668,54.6905621 174.629758,51.049916 C178.744545,44.8915881 181.711749,38.05034 183.390195,30.8516656 C186.217439,34.2232553 190.691501,35.7678013 195.017335,34.8656139 C201.943349,33.3227502 206.096958,25.3045425 204.746055,18.3899819 C203.395152,11.4754213 197.678019,5.9934173 191.153845,3.21829378 C184.629672,0.44317026 177.358731,-0.0152801434 170.260332,0 C165.579701,0.0107202309 160.809492,0.227293954 156.412752,1.82016991 C152.016013,3.41304586 147.98804,6.58774286 146.426083,10.9658174 C145.446827,13.7106177 145.478782,16.748673 144.365346,19.4426368 C142.343959,24.3333874 137.101109,27.0041808 132.180693,29.0305674 C127.260277,31.0569539 121.911166,33.1148798 119.009512,37.5480329 C115.732836,42.5541511 116.678522,49.5409318 120.289372,54.3153636 C123.900221,59.0897955 129.699556,61.8581465 135.601284,63.0158116 C141.503012,64.1734767 147.583149,63.8872075 153.591946,63.5961658" id="Path" fill="#2F2E41"></path>
                    <polygon id="Path" fill="#FEB8B8" points="151.590539 249 139 243.40609 145.831664 229 156 235.096326"></polygon>
                    <path d="M146.800691,271.249424 L132.169843,256.487027 C129.263217,253.573427 129.278743,248.884956 132.204603,245.990261 L139.570625,238.702692 C140.109116,238.165611 140.873947,237.91435 141.630199,238.026083 C142.386452,238.137816 143.043715,238.599185 143.400112,239.268481 C145.213431,242.755604 147.683382,244.635711 150.882372,244.731453 C152.800005,244.788847 153.10219,244.718074 153.601531,246.550732 L152.985733,260.360142 L155.51671,263.209567 C157.478815,265.418529 157.496224,268.720025 155.557521,270.94912 L155.557521,270.94912 C154.472082,272.197136 152.908739,272.93942 151.245576,272.996455 C149.582412,273.053491 147.970871,272.420086 146.800691,271.249424 L146.800691,271.249424 Z" id="Path" fill="#2F2E41"></path>
                    <path d="M155.037339,241 L141.589732,234.611111 L152.698624,164.914141 L98.3923357,169.409706 C81.2220806,170.831089 67.0493264,155.577901 70.529567,138.814979 C71.5428015,133.74151 74.3503764,129.195768 78.4444482,126 L132.234875,132.388889 L167.087429,137.149389 C174.250981,138.127858 180.041735,143.437364 181.596303,150.452485 L181.596303,150.452485 C182.201082,153.181596 182.125368,156.016172 181.375751,158.709584 L155.037339,241 Z" id="Path" fill="#2F2E41"></path>
                    <circle id="Oval" fill="#FEB8B8" cx="174.5" cy="27.5" r="21.5"></circle>
                    <path d="M159.653846,78 L151,54 C157.144808,47.3842654 158.497813,39.2657971 156.192308,30 L181,44.0487805 L159.653846,78 Z" id="Path" fill="#FEB8B8"></path>
                    <path d="M141.995827,134.056807 C126.437192,139.28788 105.84713,137.576402 80.048637,128.678004 C78.6331633,128.183835 77.551473,127.017105 77.1586645,125.560829 C76.7658561,124.104552 77.1126651,122.546824 78.0852408,121.399017 C95.4856898,100.796007 111.097205,80.6170915 123.980364,61.0850644 C128.84231,54.7527533 135.758775,50.3430334 143.520909,48.6266289 L155.3994,46 L173.465086,55.3927261 L178.199659,58.0884385 C180.45628,59.3732951 182.089934,61.5354684 182.718188,64.0687991 C183.346443,66.6021299 182.91414,69.2842066 181.522481,71.4871622 C174.268286,89.3410849 164.812788,105.64084 148.406232,117.032491 L141.995827,134.056807 Z" id="Path" fill="#3F3D56"></path>
                    <path d="M175.157862,23.4452275 C177.776128,27.6360719 181.666617,30.8666558 186.252782,32.6582271 C189.500943,33.9167901 193.622521,34.229493 196.060449,31.7298664 C197.826471,29.9191598 198.178531,27.1323922 197.927933,24.6080083 C197.145729,16.7284721 191.260009,9.86691294 183.957368,6.91457156 C176.654726,3.96223017 168.224247,4.60760746 160.936354,7.59663275 C154.06019,10.4167899 147.529825,16.1943445 147.159905,23.6564345 C146.970329,27.4805576 148.346513,31.6914267 146.306297,34.9234572 C144.769706,37.3576904 141.801873,38.3467819 139.143642,39.4247557 C136.485411,40.5027295 133.632457,42.203725 133.086805,45.0347047 C132.715899,46.9590392 133.572373,48.9675993 134.917165,50.3858638 C136.330576,51.7438646 138.003237,52.799063 139.833838,53.4875481 C144.168891,55.3449391 148.941002,56.5028223 153.598357,55.7847702 C158.255712,55.066718 162.759279,52.2129951 164.58197,47.8412441 C165.985595,44.4746394 165.69803,40.6756025 165.535989,37.0284043 C165.373948,33.3812061 165.423106,29.4968632 167.358488,26.4087497 C169.293869,23.3206361 173.787217,21.5918004 176.679536,23.7961881" id="Path" fill="#2F2E41"></path>
                    <path d="M124,85 C124,85 140.860465,127.107984 144.930233,129.447316 C149,131.786649 149,125.94292 149,125.94292 L124,85 Z" id="Path" fill="#000000" opacity="0.2"></path>
                    <path d="M256.378171,71.281202 L153.397883,87.9750644 C152.344967,88.1444863 151.353103,87.4326792 151.180614,86.3838506 L147.025023,60.9283021 C146.855006,59.879073 147.569315,58.8906824 148.621829,58.718798 L251.602117,42.0249357 C252.655034,41.8555136 253.6469,42.5673201 253.819392,43.6161494 L257.974977,69.0716979 C258.144994,70.1209271 257.430685,71.1093177 256.378171,71.281202 L256.378171,71.281202 Z" id="Path" fill="#0352D8"></path>
                    <circle id="Oval" fill="#FFFFFF" cx="164" cy="71" r="8"></circle>
                    <path d="M182.126169,63.3004116 C181.653329,63.3777261 181.257183,63.705256 181.087203,64.1594181 C180.917223,64.6135802 180.999285,65.1252393 181.302426,65.5013369 C181.605567,65.8774344 182.083641,66.0607186 182.556261,65.9820329 L244.875728,55.6992694 C245.348007,55.6213426 245.743422,55.2937787 245.913025,54.8399679 C246.082628,54.3861571 246.000652,53.8750441 245.697976,53.4991601 C245.395301,53.1232762 244.917909,52.9397271 244.445631,53.0176541 L182.126169,63.3004116 Z" id="Path" fill="#FFFFFF"></path>
                    <path d="M183.126192,71.3003906 C182.653343,71.3777057 182.257188,71.7052381 182.087205,72.1594037 C181.917221,72.6135694 181.999285,73.1252325 182.302433,73.501333 C182.60558,73.8774335 183.083663,74.0607191 183.556293,73.9820327 L245.877052,63.6992185 C246.606411,63.5779923 247.101093,62.8804359 246.98242,62.1405288 C246.863747,61.4006216 246.17658,60.8980697 245.446946,61.0175764 L183.126192,71.3003906 Z" id="Path" fill="#FFFFFF"></path>
                    <path d="M181.392276,101 L172,95.2492887 L177.77197,80.8955132 C178.904496,78.0791374 181.611224,76.1698273 184.696866,76.0107325 L184.696866,76.0107325 C187.78042,75.8517449 190.67516,77.469876 192.10425,80.1513869 C193.53334,82.8328978 193.233999,86.0847111 191.338261,88.4724894 L181.392276,101 Z" id="Path" fill="#FEB8B8"></path>
                    <path d="M172.60422,91.0423249 L186,97.471557 L164.688404,132.606726 C162.779683,135.753524 159.17674,137.44492 155.54636,136.898443 L155.54636,136.898443 C152.087314,136.377758 149.229853,133.917431 148.191361,130.565649 L124.385004,84.8707179 C122.746349,81.7254096 122.552291,78.020308 123.853348,74.7199434 C125.154406,71.4195788 127.821854,68.8504863 131.161289,67.6814645 L131.161318,67.6814645 C134.251442,66.5997171 137.645499,66.8125677 140.577377,68.2719714 C143.509255,69.731375 145.731815,72.3143128 146.743376,75.4377603 L158.04359,110.330021 L172.60422,91.0423249 Z" id="Path" fill="#3F3D56"></path>
                    <path d="M508,218 C500.353102,228.888861 498.333166,290.861773 497.883009,310.726823 C497.871467,311.17447 497.859924,311.598862 497.854153,312 L478.497401,312 C478.26078,311.575608 478.041473,311.157029 477.833708,310.726823 C466.360475,287.91428 472.726157,260.561321 473.060889,259.177686 C472.189431,263.526254 476.131191,276.130126 480.586591,288.338673 C483.304812,250.800297 506.545647,219.895232 508,218 Z" id="Path" fill="#0256E5"></path>
                    <path d="M464,273 C460.693233,277.749397 459.819748,304.780135 459.625085,313.444678 C459.620094,313.639928 459.615102,313.825036 459.612607,314 L451.242119,314 C451.139797,313.814893 451.044961,313.632321 450.955117,313.444678 C445.993719,303.494527 448.746446,291.56398 448.891195,290.96048 C448.514349,292.857196 450.218893,298.354629 452.145553,303.679634 C453.321,287.306512 463.37109,273.826644 464,273 Z" id="Path-Copy" fill="#0256E5" transform="translate(456.000000, 293.500000) scale(-1, 1) translate(-456.000000, -293.500000) "></path>
                    <path d="M482.071434,140 L323.928566,140 C322.311952,139.998103 321.001901,138.69054 321,137.076995 L321,97.9230046 C321.001898,96.309459 322.311951,95.0018942 323.928566,95 L482.071434,95 C483.688048,95.0018974 484.998099,96.3094603 485,97.9230046 L485,137.076995 C484.998099,138.69054 483.688048,139.998103 482.071434,140 L482.071434,140 Z M323.928566,96.1692018 C322.958564,96.1702586 322.171427,96.9548441 322.171427,97.9230046 L322.171427,137.076995 C322.171427,138.045156 322.958564,138.829741 323.928566,138.830798 L482.071434,138.830798 C483.041435,138.829738 483.828573,138.045155 483.828573,137.076995 L483.828573,97.9230046 C483.828573,96.9548441 483.041436,96.1702586 482.071434,96.1692018 L323.928566,96.1692018 Z" id="Shape" fill="#E6E6E6"></path>
                    <circle id="Oval" fill="#E6E6E6" cx="344.5" cy="118.5" r="12.5"></circle>
                    <path d="M373.034884,109 C371.911048,109 371,110.119288 371,111.5 C371,112.880712 371.911048,114 373.034884,114 L468.965116,114 C470.088952,114 471,112.880712 471,111.5 C471,110.119288 470.088952,109 468.965116,109 L373.034884,109 Z" id="Path" fill="#E6E6E6"></path>
                    <path d="M373.034884,122 C371.911048,122 371,123.119288 371,124.5 C371,125.880712 371.911048,127 373.034884,127 L468.965116,127 C470.088952,127 471,125.880712 471,124.5 C471,123.119288 470.088952,122 468.965116,122 L373.034884,122 Z" id="Path" fill="#E6E6E6"></path>
                    <path d="M482.071434,206 L323.928566,206 C322.311952,205.998103 321.001901,204.69054 321,203.076995 L321,163.923005 C321.001898,162.309459 322.311951,161.001894 323.928566,161 L482.071434,161 C483.688048,161.001897 484.998099,162.30946 485,163.923005 L485,203.076995 C484.998099,204.69054 483.688048,205.998103 482.071434,206 Z M323.928566,162.169202 C322.958564,162.170259 322.171427,162.954844 322.171427,163.923005 L322.171427,203.076995 C322.171427,204.045156 322.958564,204.829741 323.928566,204.830798 L482.071434,204.830798 C483.041435,204.829738 483.828573,204.045155 483.828573,203.076995 L483.828573,163.923005 C483.828573,162.954844 483.041436,162.170259 482.071434,162.169202 L323.928566,162.169202 Z" id="Shape" fill="#E6E6E6"></path>
                    <circle id="Oval" fill="#E6E6E6" cx="344.5" cy="183.5" r="12.5"></circle>
                    <path d="M373.034884,175 C371.911048,175 371,176.119288 371,177.5 C371,178.880712 371.911048,180 373.034884,180 L468.965116,180 C470.088952,180 471,178.880712 471,177.5 C471,176.119288 470.088952,175 468.965116,175 L373.034884,175 Z" id="Path" fill="#E6E6E6"></path>
                    <path d="M373.034884,187 C371.911048,187 371,188.119288 371,189.5 C371,190.880712 371.911048,192 373.034884,192 L468.965116,192 C470.088952,192 471,190.880712 471,189.5 C471,188.119288 470.088952,187 468.965116,187 L373.034884,187 Z" id="Path" fill="#E6E6E6"></path>
                    <path d="M402.5,75 C388.969024,75 378,64.0309764 378,50.5 C378,36.9690236 388.969024,26 402.5,26 C416.030976,26 427,36.9690236 427,50.5 C426.98473,64.0246463 416.024646,74.9847302 402.5,75 Z M402.5,27.1666667 C389.613356,27.1666667 379.166667,37.6133558 379.166667,50.5 C379.166667,63.3866442 389.613356,73.8333333 402.5,73.8333333 C415.386644,73.8333333 425.833333,63.3866442 425.833333,50.5 C425.8187,37.6194219 415.380578,27.1812998 402.5,27.1666667 Z" id="Shape" fill="#E6E6E6"></path>
                    <path d="M413.500024,48 L406.000094,48 L406.000094,40.5000236 C406.000094,39.1192987 404.880792,38 403.500063,38 C402.119334,38 401.000033,39.1192987 401.000033,40.5000236 L401.000033,48 L393.5,48 C392.119286,48 391,49.1192863 391,50.5 C391,51.8806961 392.119286,52.9999785 393.5,52.9999785 L401.000014,52.9999785 L401.000014,60.4999768 C401.000015,61.8807016 402.119317,63 403.500045,63 C404.880774,63 406.000076,61.8807016 406.000076,60.4999768 L406.000076,53 L413.5,53 C414.880714,53 416,51.8807142 416,50.5 C416,49.1193044 414.880714,48.0000219 413.5,48.0000219 L413.500024,48 Z" id="Path" fill="#E6E6E6"></path>
                </g>
            </g>
        </g>
    </g>
</svg>