<svg width="248" height="225" viewBox="0 0 248 225" fill="none" xmlns="http://www.w3.org/2000/svg">
<rect x="5.26007" y="52.4495" width="143" height="157" rx="12" transform="rotate(-18 5.26007 52.4495)" fill="white" stroke="#C6C6C6" stroke-width="2"/>
<rect x="26.4854" y="69.2328" width="24" height="22.5799" transform="rotate(-18 26.4854 69.2328)" fill="#C6C6C6"/>
<rect x="59.6934" y="61.4105" width="44" height="5.64497" transform="rotate(-18 59.6934 61.4105)" fill="#C6C6C6"/>
<rect x="62.8916" y="71.2532" width="78" height="5.64497" transform="rotate(-18 62.8916 71.2532)" fill="#C6C6C6"/>
<rect x="40.4404" y="112.182" width="24" height="22.5799" transform="rotate(-18 40.4404 112.182)" fill="#C6C6C6"/>
<rect x="73.6484" y="104.36" width="44" height="5.64497" transform="rotate(-18 73.6484 104.36)" fill="#C6C6C6"/>
<rect x="76.8467" y="114.203" width="78" height="5.64497" transform="rotate(-18 76.8467 114.203)" fill="#C6C6C6"/>
<rect x="54.3955" y="155.132" width="24" height="22.5799" transform="rotate(-18 54.3955 155.132)" fill="#C6C6C6"/>
<rect x="87.6035" y="147.309" width="44" height="5.64497" transform="rotate(-18 87.6035 147.309)" fill="#C6C6C6"/>
<rect x="90.8018" y="157.152" width="78" height="5.64497" transform="rotate(-18 90.8018 157.152)" fill="#C6C6C6"/>
<rect x="83" y="45" width="143" height="157" rx="12" fill="white" stroke="#C6C6C6" stroke-width="2"/>
<rect x="98" y="67.5208" width="24" height="22.5799" fill="#C6C6C6"/>
<rect x="132" y="70.3431" width="44" height="5.64497" fill="#C6C6C6"/>
<rect x="132" y="80.6923" width="78" height="5.64497" fill="#C6C6C6"/>
<rect x="98" y="112.68" width="24" height="22.5799" fill="#C6C6C6"/>
<rect x="132" y="115.503" width="44" height="5.64497" fill="#C6C6C6"/>
<rect x="132" y="125.852" width="78" height="5.64497" fill="#C6C6C6"/>
<rect x="98" y="157.84" width="24" height="22.5799" fill="#C6C6C6"/>
<rect x="132" y="160.663" width="44" height="5.64497" fill="#C6C6C6"/>
<rect x="132" y="171.012" width="78" height="5.64497" fill="#C6C6C6"/>
<circle cx="223" cy="196" r="22" fill="#005EFE"/>
<path d="M223 206V196M223 196V186M223 196H233M223 196H213" stroke="white" stroke-width="2.16667" stroke-linecap="round"/>
</svg>
