<?xml version="1.0" encoding="UTF-8"?>
<svg width="267px" height="300px" viewBox="0 0 267 300" version="1.1" xmlns="http://www.w3.org/2000/svg" xmlns:xlink="http://www.w3.org/1999/xlink">
    <!-- Generator: Sketch 60.1 (88133) - https://sketch.com -->
    <title>Group 5</title>
    <desc>Created with Sketch.</desc>
    <g id="Page-1" stroke="none" stroke-width="1" fill="none" fill-rule="evenodd">
        <g id="Uzman---İçerik---Yayınlandı-" transform="translate(-587.000000, -381.000000)" fill-rule="nonzero">
            <g id="Group-5" transform="translate(587.000000, 374.000000)">
                <ellipse id="Ellipse_92" fill="#E6E6E6" cx="133.5" cy="299.362776" rx="133.5" ry="7.63722397"></ellipse>
                <g id="Group-2" transform="translate(108.500000, 146.000000) rotate(-21.000000) translate(-108.500000, -146.000000) translate(43.000000, 15.000000)">
                    <path d="M130.533333,62.1097751 L129.095,62.1097751 L129.095,22.7691281 C129.095,10.1940859 118.884406,-8.52651283e-13 106.289,-8.52651283e-13 L22.8060007,-8.52651283e-13 C10.2105943,-8.52651283e-13 -2.27373675e-13,10.1940859 -2.27373675e-13,22.7691281 L-2.27373675e-13,238.593648 C-2.27373675e-13,251.16869 10.2105943,261.362776 22.8060007,261.362776 L106.289,261.362776 C118.884406,261.362776 129.095,251.16869 129.095,238.593648 L129.095,90.1129017 L130.533333,90.1129017 L130.533333,62.1097751 Z" id="Path_607" fill="#3F3D56"></path>
                    <path d="M123.752381,22.9421636 L123.752381,238.420612 C123.752381,247.810524 116.135131,255.422713 106.738977,255.422713 L22.946345,255.422713 C13.5504975,255.422713 5.93333333,247.810609 5.93333333,238.421004 L5.93333333,22.9421636 C5.93333333,13.5522525 13.5505834,5.94006309 22.9467372,5.94006309 L33.1120254,5.94006309 C32.0976088,8.43085051 32.389448,11.2627293 33.8905605,13.4946232 C35.3916729,15.7265172 37.9053857,17.0660079 40.5963541,17.0679624 L88.371169,17.0679624 C91.0622068,17.0661383 93.57604,15.7267008 95.0772453,13.4947857 C96.5784506,11.2628706 96.8703326,8.43091476 95.8558899,5.94006309 L106.738977,5.94006309 C116.135131,5.94006309 123.752381,13.5522525 123.752381,22.9421636 Z" id="Path_608" fill="#FFFFFF"></path>
                    <ellipse id="Ellipse_94" fill="#E6E6E6" cx="43.2285714" cy="56.0063091" rx="16.1047619" ry="16.1230284"></ellipse>
                    <g id="Group-3" transform="translate(35.600000, 31.397476)">
                        <polygon id="Path_609" fill="#E6E6E6" points="9.32380952 154.44164 7.62857143 154.44164 8.19453118 120.498423 8.76049092 120.498423"></polygon>
                        <path d="M10.9274082,98.0327689 L13.712939,93.6038972 C12.8868751,91.2562498 11.9327793,88.9584032 10.8551964,86.7213033 L9.05412726,88.2182754 L10.4803098,85.9506867 C9.12096156,83.1982024 8.05161274,81.4637224 8.05161274,81.4637224 C8.05161274,81.4637224 2.46595524,90.5202454 0.598819973,100.110667 L4.17330276,105.794261 L0.217019426,102.505902 C0.0761087906,103.622971 0.00362589937,104.748053 1.05337961e-12,105.874484 C1.05337961e-12,117.231791 3.6052112,126.438486 8.05238095,126.438486 C12.4995507,126.438486 16.1047619,117.230606 16.1047619,105.874484 C16.1047619,102.353754 15.3304059,98.6702071 14.2610571,95.2625011 L10.9274082,98.0327689 Z" id="Path_610" fill="#CCCCCC"></path>
                        <polygon id="Path_611" fill="#E6E6E6" points="55.0952381 154.44164 53.4 154.44164 53.9659597 120.498423 54.5319195 120.498423"></polygon>
                        <path d="M56.7003732,98.0330601 L59.485904,93.6041105 C58.6598499,91.2564179 57.7057539,88.9585304 56.6281614,86.7213957 L54.8270922,88.2183941 L56.2532748,85.9507656 C54.8939265,83.1982329 53.8245777,81.4637224 53.8245777,81.4637224 C53.8245777,81.4637224 48.238152,90.5211949 46.3729373,100.110995 L49.9447313,105.793898 L45.988448,102.505481 C45.8475374,103.62257 45.7750545,104.747671 45.7714286,105.874123 C45.7714286,117.23163 49.3766398,126.438486 53.8238095,126.438486 C58.2709793,126.438486 61.8761905,117.230444 61.8761905,105.874123 C61.8761905,102.353331 61.1018344,98.6697191 60.0324856,95.2619533 L56.7003732,98.0330601 Z" id="Path_612" fill="#CCCCCC"></path>
                        <polygon id="Path_613" fill="#E6E6E6" points="30.5142857 149.350158 27.1238095 149.350158 28.2540903 78.9179811 29.384005 78.9179811"></polygon>
                        <path d="M33.1802482,33.7638086 L39.0445186,24.7396613 C37.3054202,19.9556685 35.2967514,15.2731671 33.0280823,10.7144663 L29.236092,13.7643047 L32.2386236,9.14326639 C29.3757082,3.53412574 27.1257704,-3.55271368e-14 27.1257704,-3.55271368e-14 C27.1257704,-3.55271368e-14 15.3650708,18.4560333 11.4358175,37.9970265 L18.9590101,49.5789139 L10.6283185,42.878174 C10.3316512,45.1544985 10.1790533,47.4471522 10.1714286,49.7425561 C10.1714286,72.8856314 17.7612918,91.6466877 27.1238095,91.6466877 C36.4863272,91.6466877 44.0761905,72.8856314 44.0761905,49.7425561 C44.0761905,42.5680739 42.4462896,35.062011 40.1979206,28.1183464 L33.1802482,33.7638086 Z" id="Path_614" fill="#CCCCCC"></path>
                    </g>
                    <path d="M123.752381,191.004766 L123.752381,239.360945 C123.752381,249.168748 116.135526,257.119874 106.73909,257.119874 L22.9470162,257.119874 C13.5509729,257.119874 5.93333333,249.169141 5.93333333,239.360945 L5.93333333,195.71899 C20.4610165,177.917998 41.4657133,167.279151 63.8518697,166.383244 C86.2380262,165.487337 107.961694,174.41653 123.752381,191.004766 Z" id="Path_615" fill="#E6E6E6"></path>
                    <g id="Group-4" transform="translate(65.685714, 214.233438) rotate(21.000000) translate(-65.685714, -214.233438) translate(40.685714, 189.233438)">
                        <ellipse id="Ellipse_95" fill="#82C91D" opacity="0.2" cx="24.5809524" cy="24.6088328" rx="24.5809524" ry="24.6088328"></ellipse>
                        <ellipse id="Ellipse_96" fill="#82C91D" cx="24.1571429" cy="24.1845426" rx="19.9190476" ry="19.9416404"></ellipse>
                        <polygon id="Path_616" fill="#FFFFFF" points="20.7558615 33.7643138 13.8457942 24.8585259 17.8642428 21.7254156 21.1357091 25.9421581 32.1878875 14.2469636 35.8838894 17.7566033"></polygon>
                    </g>
                </g>
            </g>
        </g>
    </g>
</svg>