<?xml version="1.0" encoding="UTF-8"?>
<svg width="213px" height="169px" viewBox="0 0 213 169" version="1.1" xmlns="http://www.w3.org/2000/svg" xmlns:xlink="http://www.w3.org/1999/xlink">
    <!-- Generator: Sketch 60.1 (88133) - https://sketch.com -->
    <title>undraw_Post_re_mtr4</title>
    <desc>Created with Sketch.</desc>
    <g id="Page-1" stroke="none" stroke-width="1" fill="none" fill-rule="evenodd">
        <g id="Uzman-Profil---Kategori-Seç" transform="translate(-330.000000, -216.000000)">
            <g id="undraw_Post_re_mtr4" transform="translate(330.000000, 216.000000)">
                <path d="M111.372197,0 L12.6278027,0 C5.65690138,0.00778237987 0.00783181786,5.60877557 0,12.5203339 L0,127.479682 C0.00783327745,134.391237 5.65690452,139.992225 12.6278027,140 L111.372197,140 C118.343095,139.992225 123.992167,134.391237 124,127.479682 L124,12.5203339 C123.992168,5.60877557 118.343099,0.00778237987 111.372197,0 Z" id="Path" fill="#F2F2F2" fill-rule="nonzero"></path>
                <path d="M110.06376,3 L11.9363683,3 C7.00324674,3.00552574 3.0055383,7.00039037 3,11.9300113 L3,127.070004 C3.00554406,131.99962 7.00325165,135.994477 11.9363683,136 L110.06376,136 C114.996832,135.99442 118.994469,131.999576 119,127.070004 L119,11.9300113 C118.994476,7.00043421 114.996837,3.00558176 110.06376,3 Z" id="Path" fill="#FFFFFF" fill-rule="nonzero"></path>
                <path d="M94.9414139,38 L46.0585858,38 C44.9216602,38 44,36.8807118 44,35.5 C44,34.1192882 44.9216602,33 46.0585858,33 L94.9414139,33 C95.6768759,33 96.3564708,33.4764972 96.7242018,34.2499999 C97.0919327,35.0235027 97.0919327,35.9764973 96.7242018,36.7500001 C96.3564708,37.5235028 95.6768759,38 94.9414139,38 L94.9414139,38 Z" id="Path" fill="#F2F2F2" fill-rule="nonzero"></path>
                <path d="M103.926558,45 L46.0734424,45 C44.9279373,44.9984589 44,43.8796223 44,42.5 C44,41.1203777 44.9279373,40.0015411 46.0734424,40 L103.926558,40 C105.072063,40.0015411 106,41.1203777 106,42.5 C106,43.8796223 105.072063,44.9984589 103.926558,45 L103.926558,45 Z" id="Path" fill="#F2F2F2" fill-rule="nonzero"></path>
                <path d="M94.9414139,69 L46.0585858,69 C44.9216602,69 44,67.8807118 44,66.5 C44,65.1192882 44.9216602,64 46.0585858,64 L94.9414139,64 C95.6768759,64 96.3564708,64.4764972 96.7242018,65.2499999 C97.0919327,66.0235027 97.0919327,66.9764973 96.7242018,67.7500001 C96.3564708,68.5235028 95.6768759,69 94.9414139,69 Z" id="Path" fill="#F2F2F2" fill-rule="nonzero"></path>
                <path d="M103.926558,76 L46.0734424,76 C44.9279373,75.9984589 44,74.8796223 44,73.5 C44,72.1203777 44.9279373,71.0015411 46.0734424,71 L103.926558,71 C105.072063,71.0015411 106,72.1203777 106,73.5 C106,74.8796223 105.072063,75.9984589 103.926558,76 L103.926558,76 Z" id="Path" fill="#F2F2F2" fill-rule="nonzero"></path>
                <path d="M94.9392015,100 L46.0584978,100 C44.9216208,100 44,98.880711 44,97.5 C44,96.119289 44.9216208,95 46.0584978,95 L94.9392015,95 C95.6751796,94.9990031 96.3556035,95.4752816 96.7238301,96.2491939 C97.0920566,97.0231062 97.0920566,97.9768938 96.7238301,98.7508061 C96.3556035,99.5247184 95.6751796,100.000997 94.9392015,100 Z" id="Path" fill="#F2F2F2" fill-rule="nonzero"></path>
                <path d="M103.926558,108 L46.0734424,108 C44.9279373,107.998459 44,106.879622 44,105.5 C44,104.120378 44.9279373,103.001541 46.0734424,103 L103.926558,103 C105.072063,103.001541 106,104.120378 106,105.5 C106,106.879622 105.072063,107.998459 103.926558,108 L103.926558,108 Z" id="Path" fill="#F2F2F2" fill-rule="nonzero"></path>
                <path d="M35.0269068,48 L17.9730932,48 C17.4359134,47.9993796 17.0005903,47.5418526 17,46.9772736 L17,31.0227264 C17.0005903,30.4581474 17.4359134,30.0006204 17.9730932,30 L35.0269068,30 C35.5640866,30.0006204 35.9994097,30.4581474 36,31.0227264 L36,46.9772736 C35.9994097,47.5418526 35.5640866,47.9993796 35.0269068,48 L35.0269068,48 Z" id="Path" fill="#E6E6E6" fill-rule="nonzero"></path>
                <path d="M35.0269068,79 L17.9730932,79 C17.4359134,78.9993796 17.0005903,78.5418523 17,77.977273 L17,62.022727 C17.0005903,61.4581477 17.4359134,61.0006204 17.9730932,61 L35.0269068,61 C35.5640866,61.0006204 35.9994097,61.4581477 36,62.022727 L36,77.9772836 C35.9994041,78.5418588 35.5640827,78.9993796 35.0269068,79 L35.0269068,79 Z" id="Path" fill="#E6E6E6" fill-rule="nonzero"></path>
                <path d="M35.0269068,111 L17.9730932,111 C17.4359134,110.99938 17.0005903,110.541853 17,109.977274 L17,94.0227264 C17.0005903,93.4581474 17.4359134,93.0006204 17.9730932,93 L35.0269068,93 C35.5640866,93.0006204 35.9994097,93.4581474 36,94.0227264 L36,109.977274 C35.9994097,110.541853 35.5640866,110.99938 35.0269068,111 L35.0269068,111 Z" id="Path" fill="#E6E6E6" fill-rule="nonzero"></path>
                <path d="M197.464783,108.873876 L198.24244,102.063887 L202.141558,67.918917 L202.919215,61.1089288 C203.697638,54.2235387 198.763209,48.0065279 191.888903,47.2115622 L103.413807,37.0808978 C96.5377411,36.3014053 90.3291369,41.2424991 89.5352312,48.1261086 L89.5332229,48.1436991 L84.0827948,95.8734779 L84.0807865,95.8910684 C83.302357,102.776454 88.2367807,108.993464 95.1110829,109.78843 L183.586192,119.919102 C190.462267,120.698596 196.670879,115.757494 197.464783,108.873876 Z" id="Path" fill="#E6E6E6" fill-rule="nonzero"></path>
                <path d="M193.477307,109.053204 L194.400179,100.963065 L198.019509,69.2350924 L198.942354,61.1450871 C199.49779,56.2271553 195.977043,51.7866035 191.072172,51.2187978 L102.425136,41.0577809 C97.519009,40.5010267 93.0891288,44.0302506 92.5226959,48.9469166 L92.5206837,48.9645572 L87.0596608,96.8372699 L87.0576355,96.8550387 C86.5022533,101.77293 90.022991,106.213414 94.9278181,106.781202 L183.574867,116.942214 C188.480955,117.498989 192.910827,113.969828 193.477307,109.053204 L193.477307,109.053204 Z" id="Path" fill="#FFFFFF" fill-rule="nonzero"></path>
                <path d="M178.695678,65.9862701 L129.837776,60.2437938 C129.102106,60.1581055 128.466901,59.6752557 128.171722,58.9773445 C127.876543,58.2794334 127.966298,57.4726401 128.407136,56.8612361 C128.847974,56.249832 129.572827,55.9268353 130.308327,56.0140597 L179.166228,61.7565361 C180.301627,61.8911853 181.116247,62.9458179 180.986402,64.1129883 C180.856556,65.2801588 179.83134,66.1185479 178.695678,65.9862701 L178.695678,65.9862701 Z" id="Path" fill="#E6E6E6" fill-rule="nonzero"></path>
                <path d="M186.674604,72.9874404 L128.852895,66.8588141 C128.111153,66.7808525 127.470729,66.3417976 127.173128,65.7072192 C126.875528,65.0726409 126.966024,64.3390732 127.410489,63.783148 C127.854955,63.2272228 128.585776,62.9335094 129.327357,63.0127684 L187.149064,69.1413971 C187.890259,69.2199576 188.529935,69.6590764 188.827133,70.2933416 C189.124331,70.9276068 189.033899,71.6606585 188.589903,72.2163632 C188.145906,72.772068 187.415798,73.0660009 186.674604,72.9874404 L186.674604,72.9874404 Z" id="Path" fill="#E6E6E6" fill-rule="nonzero"></path>
                <path d="M184.65763,87.9861501 L98.8609286,78.185348 C97.7087154,78.0525428 96.882031,77.0123539 97.0137996,75.8611683 C97.1455683,74.7099827 98.1859669,73.8830756 99.3384478,74.0135418 L185.13516,83.814344 C185.881683,83.898909 186.526236,84.3751519 186.825755,85.0634791 C187.125274,85.7518063 187.034195,86.5475072 186.586864,87.1505193 C186.139533,87.7535314 185.404,88.0721224 184.657638,87.9861501 L184.65763,87.9861501 Z" id="Path" fill="#E6E6E6" fill-rule="nonzero"></path>
                <path d="M184.668593,93.9864883 L98.8553258,84.1760454 C97.7065816,84.0435354 96.8823862,83.0056584 97.0137581,81.8570315 C97.14513,80.7084046 98.1823962,79.8833355 99.3314074,80.0135117 L185.144674,89.8239546 C186.293418,89.9564646 187.117614,90.9943416 186.986242,92.1429685 C186.85487,93.2915954 185.817604,94.1166645 184.668593,93.9864883 L184.668593,93.9864883 Z" id="Path" fill="#E6E6E6" fill-rule="nonzero"></path>
                <path d="M183.661556,100.986453 L97.8649897,91.1856666 C97.1184253,91.101152 96.4738151,90.6249157 96.1742651,89.9365639 C95.8747152,89.248212 95.9657986,88.4524694 96.4131645,87.8494397 C96.8605304,87.2464101 97.5961171,86.9278374 98.3425081,87.0138671 L184.139074,96.8146588 C185.291286,96.9474637 186.117969,97.987651 185.9862,99.1388347 C185.854432,100.290018 184.814035,101.116924 183.661556,100.986458 L183.661556,100.986453 Z" id="Path" fill="#E6E6E6" fill-rule="nonzero"></path>
                <path d="M182.664646,107.986164 L96.8552423,98.1759485 C95.7065498,98.0434416 94.8823915,97.0055887 95.0137575,95.8569885 C95.1451235,94.7083882 96.182343,93.8833382 97.3313024,94.0135114 L183.140706,103.823727 C183.88499,103.908052 184.527632,104.383219 184.826267,105.070026 C185.124902,105.756833 185.034097,106.55079 184.588097,107.152467 C184.142098,107.754143 183.408757,108.072001 182.664646,107.986164 Z" id="Path" fill="#E6E6E6" fill-rule="nonzero"></path>
                <ellipse id="Oval" fill-opacity="0.156058785" fill="#000000" cx="191" cy="167" rx="22" ry="2"></ellipse>
                <path d="M117.002991,67.9937144 L98.9205045,66.0527565 C98.3509918,65.9910313 97.9421896,65.5081934 98.006696,64.9734535 L99.8472364,49.8640842 C99.9129919,49.3294794 100.427355,48.9457342 100.997009,49.0062853 L119.079498,50.9472432 C119.649009,51.0089697 120.057809,51.4918056 119.993304,52.0265437 L118.152767,67.1359155 C118.087011,67.6705214 117.572646,68.054267 117.002991,67.9937144 Z" id="Path" fill="#005EFE" fill-rule="nonzero"></path>
                <path d="M198.079664,67.8317443 C197.890629,68.5187471 198.041837,69.24755 198.492599,69.8220454 C198.943361,70.3965407 199.647374,70.7577145 200.415201,70.8083814 L202.29455,76 L206,75.7180449 L203.234149,68.4207944 C203.241262,67.2008431 202.256142,66.1687968 200.941098,66.0185147 C199.626054,65.8682326 198.39675,66.6472164 198.079664,67.8317443 L198.079664,67.8317443 Z" id="Path" fill="#FFB8B8" fill-rule="nonzero"></path>
                <path d="M200.989408,101.177663 L200.989408,101.177663 C201.795675,101.933502 202.936305,102.191647 203.97998,101.854483 C205.023655,101.517319 205.811089,100.636305 206.044522,99.5445856 L208.721385,87.0254852 C209.179133,84.8847005 209.071348,82.6582008 208.409063,80.5739115 L205.276186,70.7143497 C205.185198,70.4279988 204.976373,70.1964033 204.704338,70.0801466 C204.432302,69.9638898 204.12412,69.9745375 203.860409,70.1093042 L201.81572,71.1542163 C201.378806,71.377496 201.160553,71.8875263 201.296981,72.3664432 L201.503132,73.0901146 C203.217412,79.1079277 203.307355,85.4866774 201.763457,91.5523591 L200.09833,98.0943271 C199.814048,99.211225 200.156762,100.397094 200.989408,101.177663 L200.989408,101.177663 Z" id="Path" fill="#005EFE" fill-rule="nonzero"></path>
                <polygon id="Path" fill="#FFB8B8" fill-rule="nonzero" points="189.998815 163 186.611154 162.999751 185 152 190 152.000249"></polygon>
                <path d="M184.477269,164 L190,164 L190,167 L181,167 L181,167 C181,166.204351 181.366352,165.441289 182.018467,164.87868 C182.670581,164.316071 183.555039,164 184.477269,164 Z" id="Path" fill="#2F2E41" fill-rule="nonzero"></path>
                <polygon id="Path" fill="#FFB8B8" fill-rule="nonzero" points="206.998815 163 203.611154 162.999751 202 152 207 152.000249"></polygon>
                <path d="M200.477269,164 L206,164 L206,167 L197,167 L197,167 C197,166.204351 197.366352,165.441289 198.018467,164.87868 C198.670581,164.316071 199.555039,164 200.477269,164 Z" id="Path" fill="#2F2E41" fill-rule="nonzero"></path>
                <circle id="Oval" fill="#FFB8B8" fill-rule="nonzero" cx="197" cy="75" r="6"></circle>
                <path d="M175.021798,117.248806 C175.113336,116.538865 175.521648,115.905048 176.136864,115.517902 C176.75208,115.130755 177.511006,115.030047 178.20943,115.242876 L181.827792,111 L185,112.522017 L179.804143,118.443579 C179.350903,119.592815 178.090554,120.228824 176.870449,119.924005 C175.650345,119.619187 174.856142,118.469889 175.021798,117.248806 Z" id="Path" fill="#FFB8B8" fill-rule="nonzero"></path>
                <path d="M198.041369,82.9983783 C200.663558,83.0558884 203.085336,81.5798395 204.268074,79.2032649 C205.450813,76.8266904 205.18438,73.9718262 203.58304,71.8630387 C201.981701,69.7542512 199.329958,68.7661998 196.765066,69.3226304 C195.361137,68.4572253 193.728849,67.8749045 192.09288,68.0230133 C190.456912,68.1711222 188.838985,69.1571449 188.227222,70.704597 C187.615458,72.2520491 188.272676,74.2918331 189.793841,74.9207158 C190.769057,75.32389 191.870333,75.1283696 192.911065,74.9657868 C193.951796,74.8032041 195.087124,74.6971104 195.992884,75.2422662 C196.898644,75.7874219 197.305808,77.2492127 196.494616,77.9307847 C195.614146,78.699888 195.294861,79.9421568 195.69294,81.0499369 C196.10063,82.12032 197.213364,82.9802179 198.041369,82.9983783 Z" id="Path" fill="#2F2E41" fill-rule="nonzero"></path>
                <path d="M206.868081,117.402595 L207.999639,159.943707 C208.007264,160.230378 207.893808,160.507201 207.686612,160.707466 C207.479415,160.90773 207.19727,161.013274 206.90817,160.998661 L203.180586,160.810257 C202.690383,160.78548 202.28457,160.42421 202.207512,159.943987 L197.773756,132.313287 C197.734617,132.069382 197.526087,131.887416 197.276909,131.879733 C197.027731,131.872051 196.808182,132.040819 196.753809,132.281841 L190.75223,158.8853 C190.687341,159.172936 190.501084,159.419211 190.240658,159.561716 C189.980232,159.70422 189.67063,159.729278 189.390308,159.63054 L185.690876,159.406693 C185.251003,159.251757 184.969476,158.825176 185.002645,158.36386 L188.232046,117 L206.868081,117.402595 Z" id="Path" fill="#2F2E41" fill-rule="nonzero"></path>
                <path d="M208.944972,96.7052245 C209.572384,90.3117804 204.762427,84.5289184 198.207079,84.0740018 C195.382623,83.877996 190.997667,83.8079256 189.552186,87.4260716 C185.197796,98.3254506 192.820509,98.0605993 190.194177,107.503797 C187.567846,116.946996 185.248265,117.488191 188.851832,118.170086 C192.455398,118.851982 208.660271,122.877256 207.994859,116.230762 C207.585846,112.145311 208.319137,103.082705 208.944972,96.7052245 Z" id="Path" fill="#005EFE" fill-rule="nonzero"></path>
                <path d="M190.661105,86.2135925 L190.661105,86.2135925 C191.725602,85.804242 192.929171,85.9915229 193.816694,86.7046173 C194.704218,87.4177116 195.140242,88.547786 194.959889,89.6675153 L192.89172,102.507844 C192.538061,104.703553 191.603423,106.766465 190.183486,108.485399 L183.466584,116.616684 C183.271505,116.85284 182.982441,116.992717 182.675008,117 C182.367576,117.006731 182.072358,116.880171 181.866582,116.653152 L180.271095,114.892959 C179.930166,114.516837 179.90841,113.952443 180.219385,113.55152 L180.689285,112.945707 C184.596863,107.907948 187.062065,101.91513 187.824408,95.6004778 L188.646607,88.7899929 C188.786977,87.6272381 189.561767,86.6363369 190.661105,86.2135925 L190.661105,86.2135925 Z" id="Path" fill="#005EFE" fill-rule="nonzero"></path>
            </g>
        </g>
    </g>
</svg>