<svg width="252" height="28" viewBox="0 0 252 28" fill="none" xmlns="http://www.w3.org/2000/svg">
<line x1="38" y1="13.5" x2="74" y2="13.5" stroke="white"/>
<line x1="74" y1="13.5" x2="110" y2="13.5" stroke="white"/>
<line x1="110" y1="13.5" x2="146" y2="13.5" stroke="white"/>
<line x1="146" y1="13.5" x2="182" y2="13.5" stroke="white"/>
<line x1="182" y1="13.5" x2="218" y2="13.5" stroke="white"/>
<circle cx="31" cy="13" r="8" fill="white"/>
<path d="M31.5596 16.5H30.6514V10.4795L28.8301 11.1484V10.3281L31.418 9.35645H31.5596V16.5Z" fill="#005EFE"/>
<circle cx="69" cy="13" r="8" fill="white"/>
<path d="M71.249 16.5H66.5908V15.8506L69.0518 13.1162C69.4163 12.7028 69.667 12.3675 69.8037 12.1104C69.9437 11.8499 70.0137 11.5814 70.0137 11.3047C70.0137 10.9336 69.9014 10.6292 69.6768 10.3916C69.4521 10.154 69.1527 10.0352 68.7783 10.0352C68.3291 10.0352 67.9792 10.1637 67.7285 10.4209C67.4811 10.6748 67.3574 11.0296 67.3574 11.4854H66.4541C66.4541 10.8311 66.6641 10.3021 67.084 9.89844C67.5072 9.49479 68.0719 9.29297 68.7783 9.29297C69.4391 9.29297 69.9616 9.46712 70.3457 9.81543C70.7298 10.1605 70.9219 10.6211 70.9219 11.1973C70.9219 11.8971 70.4759 12.7305 69.584 13.6973L67.6797 15.7627H71.249V16.5Z" fill="#005EFE"/>
<circle cx="107" cy="13" r="8" fill="white"/>
<path d="M105.904 12.5059H106.583C107.009 12.4993 107.345 12.387 107.589 12.1689C107.833 11.9508 107.955 11.6562 107.955 11.2852C107.955 10.4518 107.54 10.0352 106.71 10.0352C106.319 10.0352 106.007 10.1475 105.772 10.3721C105.541 10.5934 105.426 10.888 105.426 11.2559H104.522C104.522 10.6927 104.728 10.2256 105.138 9.85449C105.551 9.48014 106.075 9.29297 106.71 9.29297C107.381 9.29297 107.906 9.47038 108.287 9.8252C108.668 10.18 108.858 10.6732 108.858 11.3047C108.858 11.6139 108.757 11.9134 108.556 12.2031C108.357 12.4928 108.085 12.7093 107.74 12.8525C108.131 12.9762 108.432 13.1813 108.644 13.4678C108.858 13.7542 108.966 14.1042 108.966 14.5176C108.966 15.1556 108.757 15.6618 108.341 16.0361C107.924 16.4105 107.382 16.5977 106.715 16.5977C106.048 16.5977 105.504 16.417 105.084 16.0557C104.667 15.6943 104.459 15.2174 104.459 14.625H105.367C105.367 14.9993 105.489 15.2988 105.733 15.5234C105.978 15.748 106.305 15.8604 106.715 15.8604C107.151 15.8604 107.485 15.7464 107.716 15.5186C107.947 15.2907 108.062 14.9635 108.062 14.5371C108.062 14.1237 107.936 13.8063 107.682 13.585C107.428 13.3636 107.062 13.2497 106.583 13.2432H105.904V12.5059Z" fill="#005EFE"/>
<circle cx="145" cy="13" r="8" fill="white"/>
<path d="M146.404 14.1123H147.391V14.8496H146.404V16.5H145.496V14.8496H142.259V14.3174L145.442 9.39062H146.404V14.1123ZM143.284 14.1123H145.496V10.626L145.389 10.8213L143.284 14.1123Z" fill="#005EFE"/>
<circle cx="183" cy="13" r="8" fill="white"/>
<path d="M181.006 12.9355L181.367 9.39062H185.01V10.2256H182.134L181.919 12.1641C182.267 11.959 182.663 11.8564 183.105 11.8564C183.753 11.8564 184.268 12.0713 184.648 12.501C185.029 12.9274 185.22 13.5052 185.22 14.2344C185.22 14.9668 185.021 15.5446 184.624 15.9678C184.23 16.3877 183.678 16.5977 182.969 16.5977C182.34 16.5977 181.828 16.4235 181.431 16.0752C181.034 15.7269 180.807 15.2451 180.752 14.6299H181.606C181.662 15.0368 181.807 15.3444 182.041 15.5527C182.275 15.7578 182.585 15.8604 182.969 15.8604C183.389 15.8604 183.717 15.7171 183.955 15.4307C184.196 15.1442 184.316 14.7487 184.316 14.2441C184.316 13.7689 184.186 13.388 183.926 13.1016C183.669 12.8118 183.325 12.667 182.896 12.667C182.502 12.667 182.192 12.7533 181.968 12.9258L181.729 13.1211L181.006 12.9355Z" fill="#005EFE"/>
<circle cx="221" cy="13" r="8" fill="white"/>
<path d="M222.136 9.38574V10.1523H221.97C221.267 10.1654 220.707 10.3737 220.29 10.7773C219.873 11.181 219.632 11.749 219.567 12.4814C219.942 12.0518 220.453 11.8369 221.101 11.8369C221.719 11.8369 222.212 12.055 222.58 12.4912C222.951 12.9274 223.137 13.4906 223.137 14.1807C223.137 14.9131 222.937 15.499 222.536 15.9385C222.139 16.3779 221.605 16.5977 220.935 16.5977C220.254 16.5977 219.702 16.3372 219.279 15.8164C218.856 15.2923 218.645 14.6185 218.645 13.7949V13.4482C218.645 12.1396 218.923 11.1403 219.479 10.4502C220.039 9.75684 220.871 9.40202 221.975 9.38574H222.136ZM220.949 12.5889C220.64 12.5889 220.355 12.6816 220.095 12.8672C219.834 13.0527 219.654 13.2855 219.553 13.5654V13.8975C219.553 14.4834 219.685 14.9554 219.948 15.3135C220.212 15.6715 220.541 15.8506 220.935 15.8506C221.341 15.8506 221.66 15.7008 221.892 15.4014C222.126 15.1019 222.243 14.7096 222.243 14.2246C222.243 13.7363 222.124 13.3424 221.887 13.043C221.652 12.7402 221.34 12.5889 220.949 12.5889Z" fill="#005EFE"/>
<circle cx="107" cy="13" r="10.25" stroke="white" stroke-width="0.5"/>
</svg>
