<svg width="27" height="27" viewBox="0 0 27 27" fill="none" xmlns="http://www.w3.org/2000/svg">
<path fill-rule="evenodd" clip-rule="evenodd" d="M18.0772 16.9811H19.2967L27 24.6998L24.6998 27L16.9811 19.2967V18.0772L16.5643 17.6449C14.8045 19.1578 12.5197 20.0686 10.0343 20.0686C4.49228 20.0686 0 15.5763 0 10.0343C0 4.49228 4.49228 0 10.0343 0C15.5763 0 20.0686 4.49228 20.0686 10.0343C20.0686 12.5197 19.1578 14.8045 17.6449 16.5643L18.0772 16.9811ZM3 10C3 13.8733 6.12667 17 10 17C13.8733 17 17 13.8733 17 10C17 6.12667 13.8733 3 10 3C6.12667 3 3 6.12667 3 10Z" fill="white"/>
</svg>
