<?xml version="1.0" encoding="UTF-8"?>
<svg width="430px" height="357px" viewBox="0 0 430 357" version="1.1" xmlns="http://www.w3.org/2000/svg" xmlns:xlink="http://www.w3.org/1999/xlink">
    <!-- Generator: Sketch 60.1 (88133) - https://sketch.com -->
    <title>undraw_my_password_d6kg</title>
    <desc>Created with Sketch.</desc>
    <g id="Page-1" stroke="none" stroke-width="1" fill="none" fill-rule="evenodd">
        <g id="Şifremi-Unuttum" transform="translate(-145.000000, -449.000000)" fill-rule="nonzero">
            <g id="undraw_my_password_d6kg" transform="translate(145.000000, 449.000000)">
                <path d="M380.897672,203.8012 C378.541596,224.049366 373.646145,240.3062 366.926636,253.271305 C357.985145,270.546152 342.690764,277.506319 329.028208,284.789381 C325.080197,286.890042 320.975672,288.680302 316.751579,290.144045 C291.889841,298.799408 264.064007,296.50327 242.2066,291.933418 C226.876204,288.725442 211.314694,286.751893 195.670755,286.031627 C191.208965,285.829839 186.742704,285.729682 182.271972,285.731156 C175.378104,285.740125 51.2482413,288.103532 21.0260957,226.726699 C13.5644447,211.586542 8.44992772,193.091871 6.61245703,170.547567 C1.41299618,106.811811 29.9899126,64.9521465 66.8510946,37.5913352 C136.581095,-14.1659377 232.160866,-11.9953702 300.862599,41.1252345 C346.625016,76.5090912 389.472508,130.060208 380.897672,203.8012 Z" id="Path" fill="#0357E8"></path>
                <path d="M134,184.821332 C134,235.355395 104.003077,253 67,253 C29.9969229,253 0,235.355382 0,184.821332 C0,134.287283 67,70 67,70 C67,70 134,134.287274 134,184.821332 Z" id="Path" fill="#005EFE"></path>
                <polygon id="Path" fill="#3F3D56" points="64.8462285 246.966813 65.5302088 204.50591 94 151.976351 65.637526 197.845121 65.9447828 178.753343 85.5660236 140.748536 66.0262727 173.700827 66.0262727 173.700827 66.5793349 139.363024 87.5903561 109.106307 66.6661684 133.963343 67.0117209 71 64.8399943 154.352157 65.0185595 150.913751 43.6566421 117.935861 64.676124 157.514359 62.6856343 195.864085 62.6264095 194.845947 38 160.141668 62.5515991 198.441991 62.3026766 203.238065 62.2581466 203.309923 62.2786304 203.703795 57.2289318 301 63.9756676 301 64.7852224 250.744748 89.2767061 212.538289"></polygon>
                <path d="M430,187.821332 C430,238.355395 400.003077,256 363,256 C325.996923,256 296,238.355382 296,187.821332 C296,137.287283 363,73 363,73 C363,73 430,137.287274 430,187.821332 Z" id="Path" fill="#005EFE"></path>
                <polygon id="Path" fill="#3F3D56" points="359.846228 248.966813 360.530209 206.50591 389 153.976351 360.637526 199.845121 360.944783 180.753343 380.566024 142.748536 361.026273 175.700827 361.026273 175.700827 361.579335 141.363024 382.590356 111.106307 361.666168 135.963343 362.011721 73 359.839994 156.352157 360.018559 152.913751 338.656642 119.935861 359.676124 159.514359 357.685634 197.864085 357.626409 196.845947 333 162.141668 357.551599 200.441991 357.302677 205.238065 357.258147 205.309923 357.27863 205.703795 352.228932 303 358.975668 303 359.785222 252.744748 384.276706 214.538289"></polygon>
                <path d="M290,144.4878 C290,199.716278 257.09293,219 216.5,219 C175.90707,219 143,199.716278 143,144.4878 C143,89.2593221 216.5,19 216.5,19 C216.5,19 290,89.2593176 290,144.4878 Z" id="Path" fill="#005EFE"></path>
                <polygon id="Path" fill="#3F3D56" points="214.243354 212.033364 214.988247 165.695647 246 108.369712 215.105371 158.426801 215.440329 137.591684 236.813288 96.1168991 215.528616 132.077851 215.528616 132.077851 216.131096 94.6048536 239.018241 61.5855097 216.226037 88.7122244 216.602255 20 214.2367 110.962559 214.431019 107.210014 191.16189 71.2212695 214.057908 114.413412 211.889778 156.264751 211.825448 155.153467 185 117.281053 211.74426 159.078151 211.472744 164.311809 211.424386 164.390707 211.446569 164.820158 205.945722 271 213.295269 271 214.176806 216.156187 240.855406 174.461297"></polygon>
                <path d="M373,307.810256 C373,319.773595 295.097545,357 199,357 C102.902455,357 25,319.773595 25,307.810256 C25,295.846918 96.6241043,269 192.721649,269 C288.819195,269 373,295.846918 373,307.810256 Z" id="Path" fill="#3F3D56"></path>
                <path d="M373,307.810256 C373,319.773595 295.097545,357 199,357 C102.902455,357 25,319.773595 25,307.810256 C25,295.846918 96.6241043,269 192.721649,269 C288.819195,269 373,295.846918 373,307.810256 Z" id="Path" fill="#000000" opacity="0.1"></path>
                <path d="M373,307.507463 C373,319.377464 295.097545,329 199,329 C102.902455,329 25,319.377464 25,307.507463 C25,295.637461 96.6241043,269 192.721649,269 C288.819195,269 373,295.637461 373,307.507463 Z" id="Path" fill="#3F3D56"></path>
                <path d="M256,249 C256,266.134746 267.181643,280 281,280" id="Path" fill="#3F3D56"></path>
                <path d="M281,280 C281,262.865234 293.076178,249 308,249" id="Path" fill="#005EFE"></path>
                <path d="M267,249 C267,265.029296 273.261718,278 281,278" id="Path" fill="#005EFE"></path>
                <path d="M281,280 C281,257.337885 294.865231,239 312,239" id="Path" fill="#3F3D56"></path>
                <path d="M278,279.00184 C278,279.00184 281.224942,278.88773 282.196857,278.092691 C283.168773,277.297653 287.157637,276.348316 287.398747,277.623395 C287.639858,278.898475 292.245238,283.965075 288.604292,283.998804 C284.963345,284.032532 280.144361,283.347299 279.174304,282.668506 C278.204247,281.989712 278,279.00184 278,279.00184 Z" id="Path" fill="#A8A8A8"></path>
                <path d="M288.670012,282.555213 C285.028811,282.588941 280.20949,281.904106 279.23937,281.225711 C278.500575,280.709075 278.206175,278.855297 278.107671,278 C278.039455,278.003367 278,278.004816 278,278.004816 C278,278.004816 278.204274,280.990906 279.17439,281.669301 C280.144506,282.347695 284.963818,283.032531 288.605032,282.998803 C289.656103,282.989073 290.019163,282.559765 289.999227,281.923943 C289.85321,282.308094 289.452337,282.547984 288.670012,282.555213 Z" id="Path" fill="#000000" opacity="0.2"></path>
                <ellipse id="Oval" fill="#000000" opacity="0.1" cx="201" cy="306" rx="59" ry="9"></ellipse>
                <rect id="Rectangle" fill="#FFB9B9" x="222" y="285" width="5" height="13"></rect>
                <rect id="Rectangle" fill="#FF6584" x="204" y="103" width="22" height="41"></rect>
                <polygon id="Path" fill="#FFB9B9" points="244.224971 180 245 186.000217 224.584476 192 222 181.000253"></polygon>
                <path d="M214.080461,118.9246 C214.080461,118.9246 213.574713,123.668157 212.56322,123.668157 C211.551728,123.668157 208.011493,125.512886 208.011493,125.512886 L207,130.519972 L214.080461,135 L225.712646,133.682348 L229,128.411728 L225.712646,124.985822 C225.712646,124.985822 222.931036,118.661079 223.94252,117.343423 C224.954003,116.025767 214.080461,118.9246 214.080461,118.9246 Z" id="Path" fill="#FFB9B9"></path>
                <path d="M214.080461,118.9246 C214.080461,118.9246 213.574713,123.668157 212.56322,123.668157 C211.551728,123.668157 208.011493,125.512886 208.011493,125.512886 L207,130.519972 L214.080461,135 L225.712646,133.682348 L229,128.411728 L225.712646,124.985822 C225.712646,124.985822 222.931036,118.661079 223.94252,117.343423 C224.954003,116.025767 214.080461,118.9246 214.080461,118.9246 Z" id="Path" fill="#000000" opacity="0.1"></path>
                <path d="M181.699182,281 C181.699182,281 179.313774,297 176.398275,298.066666 C173.482776,299.133331 187.530176,301 187.530176,301 L188.59036,295.133332 C188.59036,295.133332 188.855404,284.466664 189.915588,282.866665 C190.975772,281.266665 181.699182,281 181.699182,281 Z" id="Path" fill="#FFB9B9"></path>
                <path d="M207.763999,190.160443 C207.763999,190.160443 245.134903,183.401585 245.392636,182.101804 C245.650369,180.802023 253.124546,191.980137 248.4854,213.816445 C243.846254,235.652752 232.248385,287.124068 232.248385,287.124068 C232.248385,287.124068 220.392787,290.763476 220.650516,287.903936 C220.908245,285.044396 224.774204,235.392811 224.774204,235.392811 L222.196898,214.336362 L217.815481,216.935921 L199.516623,253.32976 L190.238322,284.78445 C190.238322,284.78445 178.382724,286.8641 180.186835,282.444847 C181.990946,278.025593 187.918749,243.71139 187.918749,243.71139 L204.155764,195.359564 C204.155764,195.359564 203.640311,190.160443 207.763999,190.160443 Z" id="Path" fill="#2F2E41"></path>
                <circle id="Oval" fill="#FFB9B9" cx="217.5" cy="111.5" r="11.5"></circle>
                <path d="M229.314479,126 C229.314479,126 224.062776,130.952991 211.72127,129.649572 C199.379765,128.346152 215.13488,157.542726 215.13488,157.542726 L220.123995,187 C220.123995,187 242.181152,184.393166 242.968907,179.440174 C243.756662,174.487183 229.314479,126 229.314479,126 Z" id="Path" fill="#F2F2F2"></path>
                <path d="M222.900052,152.975095 C222.900052,152.975095 216.661119,149.875933 214.321521,141.353232 C211.981923,132.830532 209.902279,124.049574 208.602501,124.307836 C207.505062,124.525893 197.326944,128.426238 194.028182,131.034369 C193.419989,131.515211 193.045644,131.952177 193.005176,132.314008 C192.745222,134.638379 202.363573,157.882105 202.363573,157.882105 C202.363573,157.882105 209.902279,174.669236 206.782815,180.092774 C203.663351,185.516312 203.403393,192.489441 209.122413,191.972899 C214.841433,191.456357 233.818176,190.423318 231.218624,175.960555 C231.218624,175.960555 236.157774,186.032836 249.935413,178.801455 C249.935413,178.801455 258.253986,177.510136 257.994032,174.669236 C257.734078,171.828335 244.736323,147.293295 244.736323,147.293295 C244.736323,147.293295 242.656679,136.446223 246.556022,132.314008 L237.717547,121.983464 C237.717547,121.983464 235.637903,118.884302 233.558258,120.433883 C231.478614,121.983464 226.799418,124.566098 226.019552,124.824364 C225.239686,125.082631 224.726975,123.896121 224.726975,123.896121 C222.925843,127.638784 222.203517,131.803999 222.64013,135.929694 C223.419973,142.644551 222.900052,152.975095 222.900052,152.975095 Z" id="Path" fill="#2F2E41"></path>
                <path d="M183.148808,294.703705 C183.148808,294.703705 182.585958,292.888879 179.338066,294.703705 C179.338066,294.703705 180.375773,289 176.846455,289 C173.317137,289 172.056666,295.740741 172.056666,295.740741 C172.056666,295.740741 171.048291,300.148149 164.241748,301.962966 C157.435205,303.777784 162.729184,310 167.518973,310 C172.308763,310 178.611112,306.111112 178.611112,306.111112 C178.611112,306.111112 191.720008,306.370374 191.972101,303.777779 C192.224193,301.185184 190.711629,293.407408 189.703254,293.407408 C188.69488,293.407408 186.678126,297.037061 186.678126,297.037061 L183.148808,294.703705 Z" id="Path" fill="#2F2E41"></path>
                <path d="M226.363981,290.109865 C226.363981,290.109865 222.797091,286.379485 220.758865,292.596784 C218.720638,298.814084 217.191948,301.301011 218.465862,302.295778 C219.739776,303.290544 220.758865,302.793163 220.24932,304.782701 C219.739776,306.772238 221.777989,311 226.363995,311 C230.95,311 232.223897,307.767005 231.969116,305.528777 C231.714335,303.290549 229.676113,300.554935 229.676113,300.554935 L227.637887,293.591555 L226.363981,290.109865 Z" id="Path" fill="#2F2E41"></path>
                <path d="M245.726686,108 L232.229574,112.758045 C232.229574,112.758045 220.005759,120.159451 225.353684,121.745457 C230.701608,123.331463 235.285524,116.987412 235.285524,116.987412 L247,113.815382 L245.726686,108 Z" id="Path" fill="#FFB9B9"></path>
                <path d="M210.570697,95.3761848 C208.958865,96.4895677 207.675744,98.0145763 206.455749,99.5533441 C203.976865,102.679952 201.548064,106.414072 202.158832,110.369335 C202.390805,111.871581 203.052918,113.269691 203.425687,114.742833 C203.928788,116.730953 203.895636,118.811622 203.859296,120.86311 C203.889176,121.734822 203.78202,122.605808 203.541805,123.443734 C203.182992,124.260137 202.760979,125.046781 202.279679,125.796374 C201.046003,128.113305 201.015737,130.866274 201.014706,133.496024 C200.9556,134.38135 201.07506,135.269572 201.365874,136.107049 C201.702725,136.897759 202.329825,137.517728 202.849866,138.200075 C204.598721,140.539385 205.113267,143.588852 204.230041,146.379708 C205.594901,146.385683 206.839734,145.594235 207.422711,144.349854 C207.602489,145.676854 207.185106,147.015471 206.284588,148 C209.216769,147.121354 212.359946,145.639928 213.430219,142.750489 C213.744282,141.768694 213.921387,140.747624 213.956446,139.716626 C214.525745,132.468759 214.850837,124.94988 212.272927,118.159864 C211.448157,115.987485 210.325656,113.88473 210.049159,111.575392 C209.772662,109.266054 210.617872,106.597346 212.721979,105.643645 C212.770995,106.234856 213.031409,106.787962 213.454739,107.199991 C213.923058,107.550607 214.789129,107.330686 214.797606,106.742597 L215.813936,108.16947 C216.20374,107.976457 216.536522,107.683731 216.779068,107.320509 L217.475816,108.180551 L218.957766,107.09359 L220.244532,108.492864 C220.739959,108.208307 221.134929,107.774898 221.374324,107.253115 C221.650883,107.670172 221.993191,108.128533 222.48873,108.17367 C223.567795,108.271998 223.790496,106.545323 224.733151,106.00674 C225.452762,105.686145 226.296706,105.944075 226.718698,106.613572 C227.107425,107.280308 227.24905,108.064448 227.11839,108.82656 C226.72829,112.378101 223.722984,115.618784 224.614036,119.077239 C225.115085,121.02196 226.802618,122.581319 226.929912,124.586485 C227.031642,126.188948 226.097442,127.704894 226.111718,129.310595 C226.12845,131.192332 227.417849,132.790631 228.676578,134.179988 C230.916811,136.652709 233.274773,139.009559 235.750465,141.250536 L234.98568,139.901395 C235.708272,139.843999 236.419666,140.107808 236.933196,140.6236 C237.153033,139.848114 236.788624,139.040099 236.444722,138.311916 C234.385396,133.951501 232.722819,129.308602 232.474474,124.485501 C232.129275,117.781295 234.519901,110.972693 233.004875,104.435574 C232.13344,100.775471 230.102402,97.5015983 227.219601,95.1101687 C225.818334,93.9470643 224.755859,93.2503845 222.941246,93.1222009 C220.912797,92.9444956 218.872227,92.9606384 216.846794,93.1704136 C214.609076,93.3851033 212.455943,94.1418347 210.570697,95.3761848 L210.570697,95.3761848 Z" id="Path" fill="#FF6584"></path>
                <path d="M236,122.556728 C236,122.556728 238.832692,122.80538 240.120276,122.556728 C241.40786,122.308075 243.210489,121.064832 243.210489,121.064832 L252.99615,114.102647 L244.498073,115.345895 C244.498073,115.345895 246.043177,103.908023 245.528145,103.65937 C245.013113,103.410718 270.507336,98.6863821 269.9923,106.394515 C269.477263,114.102647 255.05629,129.270264 246.815733,132.254056 L241.40786,133 L236,122.556728 Z" id="Path" fill="#2F2E41"></path>
                <rect id="Rectangle" fill="#FFFFFF" x="142" y="214" width="122" height="25" rx="5"></rect>
                <rect id="Rectangle" fill="#3F3D56" x="147" y="218" width="112" height="17" rx="2"></rect>
                <path d="M166.999424,226.446222 C166.963358,226.058742 165.242315,225.886298 162.880951,225.983329 C164.249291,224.064467 165.04182,222.533378 164.735203,222.292116 C164.445965,222.06456 163.262315,223.048324 161.821133,224.646036 C161.684934,222.502667 161.368618,221 161,221 C160.597931,221 160.258082,222.787813 160.146394,225.245036 C158.141066,223.808947 156.521678,222.96612 156.272376,223.280329 C156.034401,223.580329 157.118243,224.847276 158.841255,226.362902 C156.567224,226.698867 154.965161,227.173098 155.000576,227.553764 C155.036642,227.941244 156.757685,228.113716 159.119049,228.016684 C157.750709,229.935547 156.95818,231.466636 157.264797,231.707871 C157.554035,231.935427 158.737685,230.951689 160.178867,229.353978 C160.315066,231.497369 160.631382,233 161,233 C161.402069,233 161.741918,231.212129 161.853606,228.754938 C163.858934,230.191027 165.478322,231.033853 165.727624,230.719644 C165.965599,230.419644 164.881757,229.152698 163.158745,227.637071 C165.432776,227.30108 167.034839,226.826876 166.999424,226.446222 Z" id="Path" fill="#FFFFFF"></path>
                <path d="M187.999424,226.446222 C187.963358,226.058742 186.242315,225.886298 183.880951,225.983329 C185.249291,224.064467 186.04182,222.533378 185.735203,222.292116 C185.445965,222.06456 184.262315,223.048324 182.821133,224.646036 C182.684934,222.502667 182.368618,221 182,221 C181.597931,221 181.258082,222.787813 181.146394,225.245036 C179.141066,223.808947 177.521678,222.96612 177.272376,223.280329 C177.034401,223.580329 178.118243,224.847276 179.841255,226.362902 C177.567224,226.698867 175.965161,227.173098 176.000576,227.553764 C176.036642,227.941244 177.757685,228.113716 180.119049,228.016684 C178.750709,229.935547 177.95818,231.466636 178.264797,231.707871 C178.554035,231.935427 179.737685,230.951689 181.178867,229.353978 C181.315066,231.497369 181.631382,233 182,233 C182.402069,233 182.741918,231.212129 182.853606,228.754938 C184.858934,230.191027 186.478322,231.033853 186.727624,230.719644 C186.965599,230.419644 185.881757,229.152698 184.158745,227.637071 C186.432776,227.30108 188.034839,226.826876 187.999424,226.446222 Z" id="Path" fill="#FFFFFF"></path>
                <path d="M208.999424,226.446222 C208.963358,226.058742 207.242315,225.886298 204.880951,225.983329 C206.249291,224.064467 207.04182,222.533378 206.735203,222.292116 C206.445965,222.06456 205.262315,223.048324 203.821133,224.646036 C203.684934,222.502667 203.368618,221 203,221 C202.597931,221 202.258082,222.787813 202.146394,225.245036 C200.141066,223.808947 198.521678,222.96612 198.272376,223.280329 C198.034401,223.580329 199.118243,224.847276 200.841255,226.362902 C198.567224,226.698867 196.965161,227.173098 197.000576,227.553764 C197.036642,227.941244 198.757685,228.113716 201.119049,228.016684 C199.750709,229.935547 198.95818,231.466636 199.264797,231.707871 C199.554035,231.935427 200.737685,230.951689 202.178867,229.353978 C202.315066,231.497369 202.631382,233 203,233 C203.402069,233 203.741918,231.212129 203.853606,228.754938 C205.858934,230.191027 207.478322,231.033853 207.727624,230.719644 C207.965599,230.419644 206.881757,229.152698 205.158745,227.637071 C207.432776,227.30108 209.034839,226.826876 208.999424,226.446222 Z" id="Path" fill="#FFFFFF"></path>
                <path d="M228.999424,226.446222 C228.963358,226.058742 227.242315,225.886298 224.880951,225.983329 C226.249291,224.064467 227.04182,222.533378 226.735203,222.292116 C226.445965,222.06456 225.262315,223.048324 223.821133,224.646036 C223.684934,222.502667 223.368618,221 223,221 C222.597931,221 222.258082,222.787813 222.146394,225.245036 C220.141066,223.808947 218.521678,222.96612 218.272376,223.280329 C218.034401,223.580329 219.118243,224.847276 220.841255,226.362902 C218.567224,226.698867 216.965161,227.173098 217.000576,227.553764 C217.036642,227.941244 218.757685,228.113716 221.119049,228.016684 C219.750709,229.935547 218.95818,231.466636 219.264797,231.707871 C219.554035,231.935427 220.737685,230.951689 222.178867,229.353978 C222.315066,231.497369 222.631382,233 223,233 C223.402069,233 223.741918,231.212129 223.853606,228.754938 C225.858934,230.191027 227.478322,231.033853 227.727624,230.719644 C227.965599,230.419644 226.881757,229.152698 225.158745,227.637071 C227.432776,227.30108 229.034839,226.826876 228.999424,226.446222 Z" id="Path" fill="#FFFFFF"></path>
                <path d="M249.999424,226.446222 C249.963358,226.058742 248.242315,225.886298 245.880951,225.983329 C247.249291,224.064467 248.04182,222.533378 247.735203,222.292116 C247.445965,222.06456 246.262315,223.048324 244.821133,224.646036 C244.684934,222.502667 244.368618,221 244,221 C243.597931,221 243.258082,222.787813 243.146394,225.245036 C241.141066,223.808947 239.521678,222.96612 239.272376,223.280329 C239.034401,223.580329 240.118243,224.847276 241.841255,226.362902 C239.567224,226.698867 237.965161,227.173098 238.000576,227.553764 C238.036642,227.941244 239.757685,228.113716 242.119049,228.016684 C240.750709,229.935547 239.95818,231.466636 240.264797,231.707871 C240.554035,231.935427 241.737685,230.951689 243.178867,229.353978 C243.315066,231.497369 243.631382,233 244,233 C244.402069,233 244.741918,231.212129 244.853606,228.754938 C246.858934,230.191027 248.478322,231.033853 248.727624,230.719644 C248.965599,230.419644 247.881757,229.152698 246.158745,227.637071 C248.432776,227.30108 250.034839,226.826876 249.999424,226.446222 Z" id="Path" fill="#FFFFFF"></path>
                <path d="M193.098803,201.598197 C193.098803,201.598197 191.956639,219.178425 197.439024,219.977526 C202.921409,220.776627 197.89589,200 197.89589,200 L193.098803,201.598197 Z" id="Path" fill="#FFB9B9"></path>
                <path d="M195.812765,132 L194.077902,132.51613 C194.077902,132.51613 186.890659,192.387091 191.599544,204 C191.599544,204 196.556264,201.16129 199.034622,201.67742 L203,152.903228 L195.812765,132 Z" id="Path" fill="#2F2E41"></path>
            </g>
        </g>
    </g>
</svg>