<?xml version="1.0" encoding="UTF-8"?>
<svg width="189px" height="209px" viewBox="0 0 189 209" version="1.1" xmlns="http://www.w3.org/2000/svg" xmlns:xlink="http://www.w3.org/1999/xlink">
    <!-- Generator: Sketch 60.1 (88133) - https://sketch.com -->
    <title>undraw_Notify_re_65on</title>
    <desc>Created with Sketch.</desc>
    <g id="Page-1" stroke="none" stroke-width="1" fill="none" fill-rule="evenodd">
        <g id="Web---Sonuç-Bulamadık" transform="translate(-633.000000, -375.000000)" fill-rule="nonzero">
            <g id="undraw_Notify_re_65on" transform="translate(633.000000, 375.000000)">
                <path d="M186.071455,156 L179,135.57273 C179,135.57273 186.778129,143.018184 186.778129,149.127273 L185.382056,135 C185.382056,135 189.37084,140.154546 188.971961,147.981819 C188.573081,155.809092 186.071455,156 186.071455,156 Z" id="Path" fill="#E6E6E6"></path>
                <path d="M38.0714564,137 L31,116.572728 C31,116.572728 38.778129,124.018182 38.778129,130.127275 L37.3820571,116 C37.3820571,116 41.3708419,121.154546 40.9719605,128.981818 C40.5730792,136.80909 38.0714564,137 38.0714564,137 Z" id="Path" fill="#E6E6E6"></path>
                <path d="M144,146.136971 C144.011579,159.432404 117.395104,155.342749 84.8103058,155.370612 C52.2255077,155.398474 26.0115864,159.533294 26,146.237882 C25.9884212,132.94247 52.5951585,130.028066 85.1799566,130 C117.764755,129.972335 143.988414,132.841538 144,146.136971 Z" id="Path" fill="#E6E6E6"></path>
                <path d="M6.51147461,203.269531 C10.4084473,203.269531 12.845459,201.31543 12.845459,198.21582 C12.845459,195.8125 11.4191895,194.442383 8.00512695,193.734863 L6.25317383,193.375488 C4.23168945,192.94873 3.4230957,192.241211 3.4230957,191.140625 C3.4230957,189.781738 4.70336914,188.928223 6.50024414,188.928223 C8.35327148,188.928223 9.63354492,189.849121 9.76831055,191.376465 L12.5422363,191.376465 C12.4748535,188.479004 10.1052246,186.524902 6.52270508,186.524902 C3.00756836,186.524902 0.503173828,188.456543 0.503173828,191.309082 C0.503173828,193.678711 2.01928711,195.206055 5.26489258,195.868652 L7.00561523,196.228027 C9.11694336,196.666016 9.92553711,197.384766 9.92553711,198.552734 C9.92553711,199.900391 8.56665039,200.866211 6.61254883,200.866211 C4.59106445,200.866211 3.13110352,199.967773 2.91772461,198.474121 L0.143798828,198.474121 C0.278564453,201.438965 2.76049805,203.269531 6.51147461,203.269531 Z M19.9992676,203.23584 C23.4919434,203.23584 25.760498,200.911133 25.760498,197.047852 C25.760498,193.195801 23.4694824,190.848633 19.9992676,190.848633 C16.5290527,190.848633 14.2380371,193.207031 14.2380371,197.047852 C14.2380371,200.911133 16.5065918,203.23584 19.9992676,203.23584 Z M19.9992676,201.023438 C18.2248535,201.023438 17.0793457,199.585938 17.0793457,197.047852 C17.0793457,194.520996 18.236084,193.072266 19.9992676,193.072266 C21.7736816,193.072266 22.9191895,194.520996 22.9191895,197.047852 C22.9191895,199.585938 21.7736816,201.023438 19.9992676,201.023438 Z M30.3537598,203 L30.3537598,196.104492 C30.3537598,194.397461 31.3757324,193.240723 32.9816895,193.240723 C34.576416,193.240723 35.3625488,194.184082 35.3625488,195.868652 L35.3625488,203 L38.1589355,203 L38.1589355,195.307129 C38.1589355,192.555664 36.6652832,190.871094 34.0373535,190.871094 C32.2067871,190.871094 30.9377441,191.724609 30.2976074,193.139648 L30.2414551,193.139648 L30.2414551,191.095703 L27.557373,191.095703 L27.557373,203 L30.3537598,203 Z M44.5603027,203.213379 C46.3684082,203.213379 47.5700684,202.382324 48.1989746,200.933594 L48.255127,200.933594 L48.255127,203 L50.9504395,203 L50.9504395,191.095703 L48.1540527,191.095703 L48.1540527,197.97998 C48.1540527,199.709473 47.154541,200.85498 45.5373535,200.85498 C43.9650879,200.85498 43.1340332,199.934082 43.1340332,198.227051 L43.1340332,191.095703 L40.3376465,191.095703 L40.3376465,198.788574 C40.3376465,201.540039 41.9772949,203.213379 44.5603027,203.213379 Z M58.2727051,208.199707 C59.8898926,208.188477 61.0466309,207.469727 61.0466309,206.144531 C61.0466309,204.999023 60.1706543,204.325195 58.8342285,204.291504 L59.395752,203.179688 C61.8664551,202.854004 63.5285645,201.191895 63.7307129,198.822266 L61.0915527,198.822266 C60.833252,200.169922 59.9123535,200.978516 58.4973145,200.978516 C56.7229004,200.978516 55.5773926,199.541016 55.5773926,197.047852 C55.5773926,194.599609 56.7116699,193.117188 58.4748535,193.117188 C59.9685059,193.117188 60.8557129,194.071777 61.0803223,195.34082 L63.7194824,195.34082 C63.5285645,192.836426 61.5856934,190.848633 58.4411621,190.848633 C54.9821777,190.848633 52.736084,193.240723 52.736084,197.047852 C52.736084,200.630371 54.6677246,202.898926 57.7336426,203.202148 L57.048584,204.572266 L57.048584,205.571777 L57.7897949,205.571777 C58.7893066,205.571777 59.2160645,205.751465 59.2160645,206.223145 C59.2160645,206.683594 58.5983887,206.852051 57.8684082,206.852051 C57.3630371,206.852051 56.8688965,206.784668 56.6442871,206.717285 L56.6442871,208.04248 C56.9362793,208.132324 57.6325684,208.210938 58.2727051,208.199707 Z M77.0725098,203 C80.5314941,203 82.6315918,201.248047 82.6315918,198.395508 C82.6315918,196.250488 81.0930176,194.666992 78.8918457,194.453613 L78.8918457,194.36377 C80.5539551,194.094238 81.845459,192.578125 81.845459,190.837402 C81.845459,188.37793 79.9475098,186.794434 77.005127,186.794434 L70.2780762,186.794434 L70.2780762,203 L77.0725098,203 Z M75.8259277,193.622559 L73.1755371,193.622559 L73.1755371,189.051758 L76.2751465,189.051758 C78.0046387,189.051758 78.9816895,189.849121 78.9816895,191.26416 C78.9816895,192.769043 77.8474121,193.622559 75.8259277,193.622559 Z M76.4099121,200.742676 L73.1755371,200.742676 L73.1755371,195.677734 L76.286377,195.677734 C78.5100098,195.677734 79.6779785,196.54248 79.6779785,198.193359 C79.6779785,199.855469 78.5437012,200.742676 76.4099121,200.742676 Z M88.5837402,203.213379 C90.3918457,203.213379 91.5935059,202.382324 92.2224121,200.933594 L92.2785645,200.933594 L92.2785645,203 L94.973877,203 L94.973877,191.095703 L92.1774902,191.095703 L92.1774902,197.97998 C92.1774902,199.709473 91.1779785,200.85498 89.560791,200.85498 C87.9885254,200.85498 87.1574707,199.934082 87.1574707,198.227051 L87.1574707,191.095703 L84.361084,191.095703 L84.361084,198.788574 C84.361084,201.540039 86.0007324,203.213379 88.5837402,203.213379 Z M100.128662,203 L100.128662,186.794434 L97.3322754,186.794434 L97.3322754,203 L100.128662,203 Z M106.013428,203.190918 C107.540771,203.190918 109.034424,202.393555 109.719482,201.102051 L109.775635,201.102051 L109.775635,203 L112.470947,203 L112.470947,194.801758 C112.470947,192.409668 110.550537,190.848633 107.596924,190.848633 C104.564697,190.848633 102.666748,192.443359 102.543213,194.666992 L105.137451,194.666992 C105.317139,193.678711 106.159424,193.038574 107.484619,193.038574 C108.865967,193.038574 109.708252,193.757324 109.708252,195.003906 L109.708252,195.857422 L106.563721,196.037109 C103.66626,196.216797 102.037842,197.48584 102.037842,199.597168 C102.037842,201.742188 103.711182,203.190918 106.013428,203.190918 Z M106.855713,201.07959 C105.642822,201.07959 104.834229,200.461914 104.834229,199.484863 C104.834229,198.541504 105.609131,197.935059 106.956787,197.845215 L109.708252,197.676758 L109.708252,198.586426 C109.708252,200.023926 108.439209,201.07959 106.855713,201.07959 Z M117.513428,203 L117.513428,195.711426 C117.513428,194.273926 118.456787,193.229492 119.804443,193.229492 C121.107178,193.229492 121.915771,194.049316 121.915771,195.374512 L121.915771,203 L124.633545,203 L124.633545,195.644043 C124.633545,194.217773 125.554443,193.229492 126.9021,193.229492 C128.272217,193.229492 129.035889,194.060547 129.035889,195.520508 L129.035889,203 L131.832275,203 L131.832275,194.835449 C131.832275,192.45459 130.293701,190.871094 127.946533,190.871094 C126.228271,190.871094 124.813232,191.791992 124.240479,193.263184 L124.173096,193.263184 C123.735107,191.73584 122.533447,190.871094 120.848877,190.871094 C119.231689,190.871094 117.973877,191.780762 117.457275,193.162109 L117.401123,193.162109 L117.401123,191.095703 L114.717041,191.095703 L114.717041,203 L117.513428,203 Z M137.571045,203.190918 C139.098389,203.190918 140.592041,202.393555 141.2771,201.102051 L141.333252,201.102051 L141.333252,203 L144.028564,203 L144.028564,194.801758 C144.028564,192.409668 142.108154,190.848633 139.154541,190.848633 C136.122314,190.848633 134.224365,192.443359 134.10083,194.666992 L136.695068,194.666992 C136.874756,193.678711 137.717041,193.038574 139.042236,193.038574 C140.423584,193.038574 141.265869,193.757324 141.265869,195.003906 L141.265869,195.857422 L138.121338,196.037109 C135.223877,196.216797 133.595459,197.48584 133.595459,199.597168 C133.595459,201.742188 135.268799,203.190918 137.571045,203.190918 Z M138.41333,201.07959 C137.200439,201.07959 136.391846,200.461914 136.391846,199.484863 C136.391846,198.541504 137.166748,197.935059 138.514404,197.845215 L141.265869,197.676758 L141.265869,198.586426 C141.265869,200.023926 139.996826,201.07959 138.41333,201.07959 Z M150.721924,203.190918 C152.462646,203.190918 153.832764,202.303711 154.484131,200.967285 L154.529053,200.967285 L154.529053,203 L157.269287,203 L157.269287,186.794434 L154.4729,186.794434 L154.4729,193.094727 L154.405518,193.094727 C153.776611,191.780762 152.428955,190.893555 150.721924,190.893555 C147.723389,190.893555 145.780518,193.274414 145.780518,197.036621 C145.780518,200.821289 147.723389,203.190918 150.721924,203.190918 Z M151.564209,200.899902 C149.756104,200.899902 148.644287,199.41748 148.644287,197.047852 C148.644287,194.689453 149.767334,193.195801 151.564209,193.195801 C153.327393,193.195801 154.484131,194.711914 154.484131,197.047852 C154.484131,199.40625 153.327393,200.899902 151.564209,200.899902 Z M162.480225,203 L162.480225,191.095703 L159.683838,191.095703 L159.683838,203 L162.480225,203 Z M167.702393,203 L167.702393,198.867188 L168.645752,197.912598 L172.407959,203 L175.642334,203 L170.678467,196.216797 L175.440186,191.095703 L172.217041,191.095703 L167.736084,196.05957 L167.702393,196.05957 L167.702393,186.794434 L164.906006,186.794434 L164.906006,203 L167.702393,203 Z" id="SonuçBulamadık" fill="#CCCCCC"></path>
                <polygon id="Path" fill="#A0616A" points="121 129 116.934671 129 115 112 121 112"></polygon>
                <path d="M113.563251,128 L122,128 L122,133 L109,133 L109,132.5426 C109,130.033788 111.043042,128 113.563251,128 L113.563251,128 Z" id="Path" fill="#2F2E41"></path>
                <polygon id="Path" fill="#A0616A" points="152 153 147.934671 153 146 136 152 136"></polygon>
                <path d="M144.563251,152 L153,152 L153,157 L140,157 L140,156.5426 C140,154.033788 142.043042,152 144.563251,152 L144.563251,152 Z" id="Path" fill="#2F2E41"></path>
                <path d="M171.269637,104.831984 C171.871484,104.112864 172.119136,103.168016 171.945953,102.251685 C171.77277,101.335355 171.196542,100.541671 170.372324,100.084203 L160.385487,60 L154,62.7069465 L165.87861,101.464971 C165.174954,102.911932 165.680897,104.648767 167.056287,105.507779 C168.431678,106.366791 170.241779,106.076463 171.269637,104.831984 Z" id="Path" fill="#A0616A"></path>
                <path d="M163.039515,23.0672872 C162.346189,22.3280546 161.367434,21.940005 160.366612,22.0075545 C159.365789,22.075104 158.445706,22.5913136 157.853936,23.4172824 L143,25.1565501 L145.259594,31 L158.768367,28.4214083 C160.226763,29.3640596 162.145951,29.0452142 163.235634,27.6792367 C164.325316,26.3132591 164.241061,24.331913 163.039515,23.0672872 L163.039515,23.0672872 Z" id="Path" fill="#A0616A"></path>
                <path d="M139,99.6251091 L145.686802,150 L154.009439,148.280076 C154.009439,148.280076 152.785506,111.593226 156.946843,107.170524 C161.10818,102.747822 151.59452,95 151.59452,95 L139,99.6251091 Z" id="Path" fill="#2F2E41"></path>
                <path d="M141.558342,87.0050191 L138.490514,91.5302546 C138.490514,91.5302546 114.868235,81.876633 114.868235,97.2622196 C114.868235,112.647806 113.516454,123.089078 113.027538,123.810268 C112.538621,124.531458 118.683883,126.402851 121.617457,125.922045 C121.617457,125.922045 125.236535,101.11807 124.992069,99.6756786 C124.992069,99.6756786 148.164466,110.847987 152.564827,109.886393 C156.965189,108.924798 158.004799,105.520747 158.738182,103.597549 C159.471565,101.674351 158.431399,86.4016544 158.431399,86.4016544 L143.764111,82 L141.558342,87.0050191 Z" id="Path" fill="#2F2E41"></path>
                <path d="M141.661705,58 L140.793453,56.9674475 C140.793453,56.9674475 131.069026,35.2838564 134.889334,29.4327284 C138.709642,23.5816004 155.380097,22.7211415 155.901053,23.0653226 C156.42201,23.4095038 154.656735,27.8781593 155.872279,29.9432735 C155.872279,29.9432735 142.958408,32.7179299 142.090147,33.0621141 C141.221886,33.4062982 148.781378,46.1256444 148.781378,46.1256444 L147.913129,53.8697808 L141.661705,58 Z" id="Path" fill="#CCCCCC"></path>
                <path d="M158.965635,48.2264029 C158.965635,48.2264029 149.93127,49.2776181 149.583782,49.2776181 C149.236293,49.2776181 149.062575,47 149.062575,47 L141.070618,58.0376845 C141.070618,58.0376845 137.13324,90.0593541 138.175669,89.5337481 C139.218098,89.008142 158.444425,92.0267504 158.618168,90.6251413 C158.791911,89.2235323 158.444425,82.2154749 158.965647,81.8650688 C159.486869,81.5146627 168,59.7897027 168,59.7897027 C168,59.7897027 167.131311,55.2344665 164.177764,53.6576513 C161.224217,52.0808362 158.965635,48.2264029 158.965635,48.2264029 Z" id="Path" fill="#CCCCCC"></path>
                <path d="M165.562231,56 L168.399939,58.9646202 C168.399939,58.9646202 172.616205,93.0309193 170.310568,94.0772574 C168.004931,95.1235956 163.46597,94.9949933 163.46597,94.9949933 L159,78.8450268 L165.562231,56 Z" id="Path" fill="#CCCCCC"></path>
                <circle id="Oval" fill="#A0616A" cx="150" cy="38" r="8"></circle>
                <path d="M148.880703,39.2324634 C148.772646,37.5173915 146.678517,37.4586258 145.015162,37.4423869 C143.351808,37.426148 141.363168,37.4874999 140.421983,36.0703703 C139.799992,35.133837 139.918798,33.8336779 140.432654,32.8295838 C140.946509,31.8254896 141.791735,31.0532261 142.62326,30.3102934 C144.770058,28.3922302 146.982601,26.4893885 149.560012,25.2617014 C152.137423,24.0340142 155.157795,23.5379508 157.830832,24.5234687 C161.114443,25.7340853 165.553288,31.9659255 165.936596,35.5463243 C166.319903,39.1267231 164.935035,42.7766641 162.6006,45.4521757 C160.266165,48.1276873 154.923081,47.0481885 151.560588,48 C153.604796,45.010641 152.25737,39.5788926 148.982585,38.1829381 L148.880703,39.2324634 Z" id="Path" fill="#2F2E41"></path>
                <circle id="Oval" fill="#005EFE" cx="76.5" cy="123.5" r="19.5"></circle>
                <path d="M64.1179231,103 C58.6199887,103 53.6368339,99.7829123 51.3999952,94.7885685 L20.5874189,25.7855011 C17.8062241,19.5572376 18.7268109,12.3090562 22.9779212,6.96403351 C27.2290316,1.61901083 34.1097272,-0.941546676 40.8451327,0.314993234 C47.5805382,1.57153314 53.0600958,6.43798767 55.0739868,12.9517929 L77.386017,85.1186084 C78.6813961,89.3075487 77.9019236,93.859199 75.2852796,97.3856496 C72.6686357,100.9121 68.5250248,102.995289 64.1179354,103 L64.1179231,103 Z" id="Path" fill="#005EFE"></path>
            </g>
        </g>
    </g>
</svg>