<svg width="30" height="32" viewBox="0 0 30 32" fill="none" xmlns="http://www.w3.org/2000/svg">
<path d="M29.4995 20.9019L21.0038 16L29.4995 11.0981C29.9783 10.8219 30.142 10.2106 29.8658 9.73188L27.8645 6.2675C27.5882 5.78937 26.9764 5.625 26.4976 5.90125L18.0019 10.8031V1C18.0019 0.4475 17.5538 0 17.0013 0H12.9987C12.4462 0 11.9981 0.4475 11.9981 1V10.8038L3.50239 5.90188C3.02364 5.62563 2.41176 5.79 2.1355 6.26813L0.134233 9.73188C-0.142019 10.21 0.0217324 10.8219 0.500487 11.0981L8.99619 16L0.500487 20.9019C0.0217324 21.1781 -0.142019 21.79 0.134233 22.2681L2.1355 25.7325C2.41176 26.2106 3.02364 26.3744 3.50239 26.0987L11.9981 21.1969V31C11.9981 31.5525 12.4462 32 12.9987 32H17.0013C17.5538 32 18.0019 31.5525 18.0019 31V21.1963L26.4976 26.0981C26.9764 26.3744 27.5882 26.2106 27.8645 25.7319L29.8658 22.2675C30.142 21.7894 29.9783 21.1781 29.4995 20.9019Z" fill="#454D65"/>
</svg>
