<svg width="31" height="36" viewBox="0 0 31 36" fill="none" xmlns="http://www.w3.org/2000/svg">
<path d="M30.7221 6.76752C29.9603 3.58799 27.4623 0.997668 24.3554 0.177823C22.128 -0.409991 19.996 0.536417 18.1872 1.88853C17.9624 2.05658 17.7056 2.1508 17.4607 2.27384L19.4203 3.55424C19.9338 3.88963 20.0832 4.58572 19.7525 5.10885C19.4438 5.59752 18.765 5.80213 18.2225 5.44635L11.2676 0.902746C9.83529 0.139854 8.26592 -0.250381 6.64466 0.177823C3.53775 0.998371 1.03977 3.58799 0.277926 6.76752C-0.42303 9.69393 0.248864 12.4495 1.76564 14.5321C3.38206 16.7519 4.02697 19.3598 4.27677 22.0802C4.58123 25.3962 4.99156 28.7008 5.72573 31.9465L6.26546 34.3336C6.4862 35.3088 7.33731 36 8.31851 36C9.28518 36 10.128 35.3285 10.3626 34.3716L12.7477 24.6389C13.0633 23.3508 14.1981 22.4479 15.499 22.4479C16.7999 22.4479 17.9347 23.3515 18.2502 24.6389L20.6354 34.3716C20.87 35.3285 21.7128 36 22.6795 36C23.6607 36 24.5118 35.3088 24.7325 34.3336L25.2722 31.9465C26.0064 28.7015 26.416 25.3962 26.7212 22.0802C26.971 19.3591 27.6159 16.7519 29.2323 14.5321C30.7512 12.4502 31.4231 9.69464 30.7221 6.76752Z" fill="#454D65"/>
</svg>
