<?xml version="1.0" encoding="UTF-8"?>
<svg width="382px" height="326px" viewBox="0 0 382 326" version="1.1" xmlns="http://www.w3.org/2000/svg" xmlns:xlink="http://www.w3.org/1999/xlink">
    <!-- Generator: Sketch 60.1 (88133) - https://sketch.com -->
    <title>undraw_synchronize_ccxk</title>
    <desc>Created with Sketch.</desc>
    <g id="Page-1" stroke="none" stroke-width="1" fill="none" fill-rule="evenodd">
        <g id="Üye-Kayıt-Ol" transform="translate(-169.000000, -451.000000)">
            <g id="undraw_synchronize_ccxk" transform="translate(169.000000, 457.000000)">
                <rect id="Rectangle" stroke="#3F3D56" stroke-width="6" fill="#F2F2F2" fill-rule="nonzero" x="78" y="-3" width="178" height="150" rx="9"></rect>
                <g id="LOGO" transform="translate(132.000000, 16.000000)" fill="#E6E6E6">
                    <polygon id="Rectangle" transform="translate(26.281108, 31.964780) rotate(-150.000000) translate(-26.281108, -31.964780) " points="13.9796037 16.4497384 38.3270422 2.45491879 38.5826114 47.2850843 14.0055782 61.474641"></polygon>
                    <path d="M38.3801735,15.2955578 L60.7196304,2.45491879 L60.7196304,2.45491879 L60.9751995,47.2850843 L36.3981664,61.474641 L36.3735279,18.7657957 C36.3727015,17.3331683 37.1381103,16.0094912 38.3801735,15.2955578 Z" id="Rectangle-Copy-15" opacity="0.793619792" transform="translate(48.673696, 31.964780) scale(-1, 1) rotate(-150.000000) translate(-48.673696, -31.964780) "></path>
                </g>
                <rect id="Rectangle" fill="#005EFE" fill-rule="nonzero" x="146" y="86" width="45" height="11"></rect>
                <rect id="Rectangle" fill="#E5E5E5" fill-rule="nonzero" x="131" y="109" width="67" height="11"></rect>
                <ellipse id="Oval-Copy" fill-opacity="0.196268575" fill="#000000" cx="73" cy="314.5" rx="41" ry="5.5"></ellipse>
                <path d="M291,247.307194 C291,247.307194 294.870968,261.515878 294.870968,263.475697 C294.870968,265.435515 301.16129,264.945561 301.16129,264.945561 L306,257.106286 C306,257.106286 302.129032,249.267012 301.16129,245.347375 C300.193548,241.427738 291,247.307194 291,247.307194 Z" id="Path" fill="#FBBEBE" fill-rule="nonzero"></path>
                <path d="M297.833236,260.799596 C297.833236,260.799596 303.622617,262.263424 303.622617,257.87194 C303.622617,253.480455 306.034859,255.432226 306.034859,255.432226 C306.034859,255.432226 311.82424,258.847825 309.411998,262.263424 C306.999756,265.679023 302.65772,269.582564 301.210375,272.998163 C299.76303,276.413762 295.420994,285.684674 290.59651,283.732903 C285.772026,281.781132 289.149165,277.389648 289.149165,277.389648 C289.149165,277.389648 293.008752,271.534335 292.043856,266.654908 C291.078959,261.775481 290.59651,259.335768 292.043856,259.335768 C293.491201,259.335768 295.903443,257.87194 295.903443,259.82371 C295.903443,261.775481 297.833236,260.799596 297.833236,260.799596 Z" id="Path" fill="#2F2E41" fill-rule="nonzero"></path>
                <circle id="Oval" fill="#2F2E41" fill-rule="nonzero" cx="298.5" cy="60.5" r="18.5"></circle>
                <circle id="Oval" fill="#2F2E41" fill-rule="nonzero" cx="296.5" cy="45.5" r="16.5"></circle>
                <polygon id="Path" fill="#3F3D56" fill-rule="nonzero" points="287 144 277.058583 143 273 133.014 273.579088 124 287 124"></polygon>
                <polygon id="Path" fill="#000000" fill-rule="nonzero" opacity="0.1" points="287 144 277.058583 143 273 133.014 273.579088 124 287 124"></polygon>
                <path d="M287.891892,73 C287.891892,73 287.405405,85.2093023 285.459459,86.6744186 C283.513514,88.1395349 288.378378,94 288.378378,94 L296.162162,92.0465116 L302,86.6744186 L299.567568,86.1860465 C299.567568,86.1860465 299.567568,79.3488372 301.027027,77.3953488 C302.486486,75.4418605 287.891892,73 287.891892,73 Z" id="Path" fill="#FBBEBE" fill-rule="nonzero"></path>
                <path d="M287.891892,73 C287.891892,73 287.405405,85.2093023 285.459459,86.6744186 C283.513514,88.1395349 288.378378,94 288.378378,94 L296.162162,92.0465116 L302,86.6744186 L299.567568,86.1860465 C299.567568,86.1860465 299.567568,79.3488372 301.027027,77.3953488 C302.486486,75.4418605 287.891892,73 287.891892,73 Z" id="Path" fill="#000000" fill-rule="nonzero" opacity="0.1"></path>
                <path d="M274,121.286217 C274,121.286217 278.943457,134.021533 277.954766,144.797569 C276.966074,155.573606 300.200323,146.267029 300.200323,146.267029 L307.121163,141.85865 C307.121163,141.85865 309.098546,128.633514 307.121163,125.694595 C305.14378,122.755676 301.189015,112.46946 301.189015,112.46946 L290.807754,111 L274,121.286217 Z" id="Path" fill="#FBBEBE" fill-rule="nonzero"></path>
                <path d="M356.640347,177 C356.640347,177 365.207897,167.964527 366.640909,167.095432 C368.07392,166.226336 364.75529,162 364.75529,162 L356.746042,162.05821 C356.746042,162.05821 352.83577,168.269125 350.425191,170.690948 C348.014612,173.112772 356.640347,177 356.640347,177 Z" id="Path" fill="#FBBEBE" fill-rule="nonzero"></path>
                <path d="M362.493769,165.894904 C362.493769,165.894904 360.904844,161.122573 357.814708,163.085731 C354.724572,165.04889 355.006728,162.460577 355.006728,162.460577 C355.006728,162.460577 354.791195,156.81573 358.28588,157.004638 C361.780565,157.193546 366.491571,158.536964 369.549758,158.039555 C372.607945,157.542146 381.095792,156.486149 381.904871,160.790283 C382.71395,165.094417 378.096081,164.655442 378.096081,164.655442 C378.096081,164.655442 372.229918,164.527697 369.232927,167.395308 C366.235936,170.26292 364.737455,171.696728 364.082699,170.667239 C363.427942,169.637751 361.306673,168.576331 362.680064,167.703819 C364.053456,166.831307 362.493769,165.894904 362.493769,165.894904 Z" id="Path" fill="#2F2E41" fill-rule="nonzero"></path>
                <path d="M283,82.3210178 C283,82.3210178 277.131847,78.904303 275.664808,69.1422608 C274.19777,59.3802185 263.928502,25.2130705 263.928502,25.2130705 C263.928502,25.2130705 257.082323,1.78416899 254.637259,9.59380282 C252.192196,17.4034367 257.571336,26.1892747 257.571336,26.1892747 L264.417515,57.9159121 C264.417515,57.9159121 270.285668,98.9164897 273.219745,100.868898 C276.153821,102.821307 283,82.3210178 283,82.3210178 Z" id="Path" fill="#FBBEBE" fill-rule="nonzero"></path>
                <path d="M306.093587,84.1383907 C306.093587,84.1383907 312.89852,84.0648947 319.019984,76.3367167 C325.141447,68.6085386 351.037447,44.0831321 351.037447,44.0831321 C351.037447,44.0831321 368.624362,27.1695893 366.878054,35.1304108 C365.131746,43.0912323 356.088328,48.0520388 356.088328,48.0520388 L334.383924,72.1473171 C334.383924,72.1473171 308.929184,104.749855 305.405614,104.997832 C301.882044,105.245809 306.093587,84.1383907 306.093587,84.1383907 Z" id="Path" fill="#FBBEBE" fill-rule="nonzero"></path>
                <circle id="Oval" fill="#FBBEBE" fill-rule="nonzero" cx="296" cy="69" r="12"></circle>
                <path d="M307.895088,134 C307.895088,134 290.841955,146.124781 284.467461,144.164129 C278.092968,142.203477 277.112277,140.732987 277.112277,140.732987 C277.112277,140.732987 271.228129,180.926358 275.64124,196.611575 C275.64124,196.611575 276.131585,212.296793 280.544696,218.17875 L290.841955,252 C290.841955,252 302.119905,251.509837 302.119905,247.588533 C302.119905,247.588533 300.648868,239.255761 300.648868,233.373804 C300.648868,227.491847 292.803337,212.786956 292.803337,212.786956 L298.197139,171.61326 C298.197139,171.61326 318.791657,212.786956 327.127533,209.845978 C335.463409,206.904999 359,176.024727 359,176.024727 L351.644815,169.162444 C351.644815,169.162444 331.050298,181.416521 328.59857,187.78864 C328.59857,187.78864 312.199234,137.560432 307.895088,134 Z" id="Path" fill="#2F2E41" fill-rule="nonzero"></path>
                <path d="M294.459794,88.2066144 C294.459794,88.2066144 300.824743,83.288793 301.803966,83.288793 L308.168914,83.288793 C308.168914,83.288793 313.065029,95.0915643 311.106583,100.009386 C311.106583,100.009386 308.658526,112.795721 308.168914,113.779285 C307.679303,114.76285 308.168914,117.713542 309.148137,120.664235 C310.12736,123.614928 313.065029,130.008096 311.596195,131.483442 C310.12736,132.958789 308.658526,136.893046 307.679303,136.893046 C306.70008,136.893046 298.866297,129.516314 297.397463,124.598492 C295.928629,119.680671 295.928629,118.205325 292.501349,120.172453 C289.074069,122.139582 273.896114,121.156017 274.875337,129.024532 C275.31694,132.991221 275.9707,136.931172 276.833783,140.827303 C276.833783,140.827303 270.958446,142.794431 269.979223,133.450571 C269,124.10671 268.020777,123.614928 270.958446,120.172453 C273.896114,116.729978 269.979223,102.468296 269.979223,102.468296 C269.979223,102.468296 274.875337,94.108 275.85456,89.6819608 C276.833783,85.2559216 280.750674,80.8298824 280.750674,80.8298824 C280.750674,80.8298824 283.198732,79.3545359 284.667566,80.3381002 C286.1364,81.3216645 286.922006,80.8298824 286.922006,80.8298824 C286.922006,80.8298824 284.177954,87.7148322 287.115623,87.7148322 C290.053292,87.7148322 294.459794,88.2066144 294.459794,88.2066144 Z" id="Path" fill="#3F3D56" fill-rule="nonzero"></path>
                <ellipse id="Oval" fill="#000000" fill-rule="nonzero" opacity="0.1" cx="287.5" cy="139.5" rx="1" ry="1.5"></ellipse>
                <ellipse id="Oval" fill="#2F2E41" fill-rule="nonzero" cx="297.5" cy="57.5" rx="14.5" ry="9.5"></ellipse>
                <ellipse id="Oval" fill="#2F2E41" fill-rule="nonzero" cx="46.5" cy="93" rx="20.5" ry="28"></ellipse>
                <path d="M51.9410167,111.253907 C51.9410167,111.253907 60.2168597,103.1107 61.1922388,100.167072 C62.167618,97.2234442 73.8721672,47.1817728 73.8721672,47.1817728 C73.8721672,47.1817728 83.6259583,19.2173094 88.0151643,26.0857741 C92.4043703,32.9542388 80.699821,49.1441913 80.699821,49.1441913 C80.699821,49.1441913 77.7736837,80.0522825 75.8229255,87.4113518 C73.8721672,94.7704211 67.0445135,122.24428 62.6553075,125.187908 L58.2661015,134.018791 L53.389206,135 L49,122.734884 L49.4876896,117.828838 L51.9410167,111.253907 Z" id="Path" fill="#A0616A" fill-rule="nonzero"></path>
                <path d="M75.7257874,240 C75.7257874,240 87.5936192,243.5 89.0770982,241.5 C90.5605771,239.5 96,251.5 96,251.5 L96,256 L91.0550701,257 C91.0550701,257 76.2202804,250.5 73.7478155,250.5 C71.2753505,250.5 75.7257874,240 75.7257874,240 Z" id="Path" fill="#A0616A" fill-rule="nonzero"></path>
                <path d="M90.6435403,247.83523 C90.6435403,247.83523 83.7258844,242.02598 85.2082392,241.057772 C86.6905941,240.089563 92.6200134,233.312105 95.5847231,237.184938 C98.5494328,241.057772 111.890626,262.358356 108.431798,267.199397 C104.97297,272.040439 102.502379,269.135814 102.502379,269.135814 C102.502379,269.135814 93.3125597,257.03321 89.7545178,257.03321 C89.7545178,257.03321 94.5964865,251.708064 90.6435403,247.83523 Z" id="Path" fill="#2F2E41" fill-rule="nonzero"></path>
                <path d="M42.0868818,284 C42.0868818,284 42.5835402,300.12485 38.1136147,305.011169 C33.6436891,309.897487 44.0735154,308.920223 44.0735154,308.920223 L55,301.590746 C55,301.590746 52.0200496,293.772637 53.0133664,286.443159 L42.0868818,284 Z" id="Path" fill="#A0616A" fill-rule="nonzero"></path>
                <path d="M55.0728808,298.159092 C55.0728808,298.159092 54.091101,297.164766 51.6366515,300.147746 C49.1822021,303.130726 44.2733031,306.610869 41.3279637,303.627889 C38.3826243,300.644909 38.3826243,303.130726 38.3826243,303.130726 C38.3826243,303.130726 32.0010557,313.571156 26.6012668,315.062646 C21.2014779,316.554136 25.1285971,321.525769 30.0374961,319.537116 C34.946395,317.548463 59,309.096686 59,309.096686 C59,309.096686 58.5091101,302.136399 55.0728808,298.159092 Z" id="Path" fill="#2F2E41" fill-rule="nonzero"></path>
                <path d="M19.0439909,168 L11.6099772,179.247782 C11.6099772,179.247782 -6.72725667,193.429768 2.6891607,194.89687 C12.1055781,196.363972 17.5571881,181.692952 17.5571881,181.692952 L24,173.868408 L19.0439909,168 Z" id="Path" fill="#A0616A" fill-rule="nonzero"></path>
                <path d="M17,166 C17,166 25.3466934,177.977461 29.2745491,178.935658 C33.2024048,179.893855 31.7294589,169.832788 31.7294589,169.832788 L17,166 Z" id="Path" fill="#FFFFFF" fill-rule="nonzero"></path>
                <path d="M17,166 C17,166 25.3466934,177.977461 29.2745491,178.935658 C33.2024048,179.893855 31.7294589,169.832788 31.7294589,169.832788 L17,166 Z" id="Path" fill="#000000" fill-rule="nonzero" opacity="0.1"></path>
                <path d="M27.2475021,165 L28.7315389,190.385827 C28.7315389,190.385827 23.2900706,227.976378 31.6996125,236.76378 C31.6996125,236.76378 36.6464019,249.944882 36.6464019,254.826772 C36.6464019,259.708661 40.1091544,289 40.1091544,289 L54.4548436,289 C54.4548436,289 57.4229172,248.480315 49.5080543,235.787402 L49.5080543,166.464567 L27.2475021,165 Z" id="Path" fill="#2F2E41" fill-rule="nonzero"></path>
                <path d="M27,215 C27.0703774,223.991515 28.1561886,232.83076 31.696517,236.545156 C31.696517,236.545156 36.6439636,249.781425 36.6439636,254.683747 C36.6439636,259.586069 40.1071762,289 40.1071762,289 L54.4547712,289 C54.4547712,289 57.4232391,248.310728 49.5073246,235.564691 L49.5073246,217.362404" id="Path" fill="#000000" fill-rule="nonzero" opacity="0.1"></path>
                <path d="M42.9995186,171.017689 L28.3794731,209.772037 C28.3794731,209.772037 19.6074457,243.13021 30.3288125,246.56414 C41.0501792,249.99807 68.8282658,249.016947 73.2142795,252.450876 C77.6002931,255.884806 80.0369674,242.149088 78.5749628,240.677404 C77.1129583,239.20572 53.7208854,231.356738 43.9741883,231.356738 C43.9741883,231.356738 69.8029355,196.036319 63.4675824,188.187337 C57.1322293,180.338355 48.360202,170.527128 42.9995186,171.017689 Z" id="Path" fill="#2F2E41" fill-rule="nonzero"></path>
                <path d="M39,97 C39,97 39.5,109.980769 37,110.461538 C34.9484586,110.943005 32.941668,111.586207 31,112.384615 L31,119.596154 L35,122 L45,116.230769 L49,112.865385 L53,109.5 C53,109.5 50.5,102.769231 53,98.4423077 L39,97 Z" id="Path" fill="#A0616A" fill-rule="nonzero"></path>
                <path d="M39,97 C39,97 39.5,109.980769 37,110.461538 C34.9484586,110.943005 32.941668,111.586207 31,112.384615 L31,119.596154 L35,122 L45,116.230769 L49,112.865385 L53,109.5 C53,109.5 50.5,102.769231 53,98.4423077 L39,97 Z" id="Path" fill="#000000" fill-rule="nonzero" opacity="0.1"></path>
                <path d="M37.0535453,117.469565 C37.0535453,117.469565 45.384829,109.678261 47.345131,110.165217 C49.3054331,110.652174 54.9413014,107 54.9413014,107 C53.8508048,110.738326 53.1125134,114.56931 52.7359616,118.443478 C52.4705073,121.608696 53.0677869,123.345183 53.6710551,124.272017 C54.3704934,125.316265 54.9384972,126.441753 55.3623645,127.62331 C56.1734395,129.979011 57.6760649,132.824692 59.5970188,129.643478 C59.5970188,129.643478 58.6168677,135 57.6367167,150.582609 C56.6565657,166.165217 62.0473963,176.878261 62.0473963,176.878261 C62.0473963,176.878261 66.4580759,188.565217 64.4977739,191 C64.4977739,191 49.3054331,181.26087 50.2855841,176.878261 C50.2855841,176.878261 15,172.008696 15,165.678261 C14.9810489,161.975683 16.8185249,158.506698 19.9009025,156.426087 C20.2287413,153.441738 20.8861327,150.502304 21.8612046,147.66087 C21.8612046,147.66087 16.470374,136.46087 21.3711291,127.208696 C21.3711291,127.208696 16.9604495,114.547826 22.8413556,111.626087 C28.7222617,108.704348 36.0733943,110.165217 36.0733943,110.165217 C36.0733943,110.165217 29.2123372,114.547826 33.6230168,116.982609 L37.0535453,117.469565 Z" id="Path" fill="#FFFFFF" fill-rule="nonzero"></path>
                <circle id="Oval" fill="#A0616A" fill-rule="nonzero" cx="47" cy="90" r="12"></circle>
                <ellipse id="Oval" fill="#2F2E41" fill-rule="nonzero" cx="47.5" cy="83" rx="13.5" ry="7"></ellipse>
                <circle id="Oval" fill="#2F2E41" fill-rule="nonzero" cx="32" cy="70" r="4"></circle>
                <circle id="Oval" fill="#2F2E41" fill-rule="nonzero" cx="61" cy="70" r="4"></circle>
                <ellipse id="Oval" fill-opacity="0.196268575" fill="#000000" cx="317" cy="303.5" rx="33" ry="5.5"></ellipse>
            </g>
        </g>
    </g>
</svg>