<?xml version="1.0" encoding="UTF-8"?>
<svg width="539px" height="418px" viewBox="0 0 539 418" version="1.1" xmlns="http://www.w3.org/2000/svg" xmlns:xlink="http://www.w3.org/1999/xlink">
    <!-- Generator: Sketch 60.1 (88133) - https://sketch.com -->
    <title>undraw_Address_re_yaoj</title>
    <desc>Created with Sketch.</desc>
    <g id="Page-1" stroke="none" stroke-width="1" fill="none" fill-rule="evenodd">
        <g id="Uzman-Kayıt-Ol" transform="translate(-90.000000, -430.000000)">
            <g id="undraw_Address_re_yaoj" transform="translate(90.000000, 430.000000)">
                <ellipse id="Oval" fill="#0256E5" fill-rule="nonzero" cx="269.5" cy="411.5" rx="269.5" ry="6.5"></ellipse>
                <path d="M304.981517,397.162485 C304.854971,401.758837 304.063732,406.314926 302.631121,410.696463 C302.599357,410.798153 302.564101,410.89831 302.529798,411 L293.759324,411 C293.76851,410.908821 293.778057,410.807112 293.787276,410.696463 C294.372016,404.154028 291.031277,364.809504 287,358 C287.353215,358.552381 305.661537,376.374206 304.981517,397.162485 Z" id="e17a72e2-051a-4020-aba1-9f6eb9c0d39e" fill="#F1F1F1" fill-rule="nonzero"></path>
                <path d="M304.472644,410.698387 C304.402889,410.799432 304.330401,410.900497 304.25611,411 L298,411 C298.047414,410.913993 298.102371,410.812947 298.166087,410.698387 C299.199514,408.801472 302.258413,403.129793 305.097764,397.250193 C308.147879,390.931673 310.9486,384.373582 310.712739,382 C310.785832,382.535029 312.897367,398.854702 304.472644,410.698387 Z" id="eeb1bfad-c599-4325-99ca-33d947eaa4a4" fill="#F1F1F1" fill-rule="nonzero"></path>
                <path d="M534.987678,401.862022 C534.903312,404.897345 534.375819,407.90608 533.420745,410.799545 C533.399568,410.866701 533.376067,410.932838 533.353194,411 L527.506198,411 C527.512337,410.939787 527.518694,410.872625 527.52484,410.799545 C527.914662,406.479069 525.687503,380.496838 523,376 C523.235456,376.364776 535.441025,388.133908 534.987678,401.862022 Z" id="ae98919c-3cd0-4dbe-b2ac-5e07dd542ed3" fill="#F1F1F1" fill-rule="nonzero"></path>
                <path d="M534.481076,411.791985 C534.432779,411.861673 534.382597,411.931368 534.331164,412 L530,412 C530.032831,411.940686 530.070876,411.870998 530.114989,411.791985 C530.830436,410.483803 532.948131,406.572267 534.913828,402.517372 C537.025461,398.159767 538.964395,393.636951 538.801121,392 C538.851733,392.368985 540.313561,403.623938 534.481076,411.791985 Z" id="a16e0e44-34bc-470c-a8b9-bb95dad5f0bc" fill="#F1F1F1" fill-rule="nonzero"></path>
                <path d="M259.987678,401.862022 C259.903312,404.897345 259.375819,407.90608 258.420745,410.799545 C258.399568,410.866701 258.376067,410.932838 258.353194,411 L252.506198,411 C252.512337,410.939787 252.518694,410.872625 252.52484,410.799545 C252.914662,406.479069 250.687503,380.496838 248,376 C248.235456,376.364776 260.441025,388.133908 259.987678,401.862022 Z" id="a04afbcd-fd0f-46da-9369-89d0f07bdf03" fill="#F1F1F1" fill-rule="nonzero"></path>
                <path d="M259.481076,411.791985 C259.432779,411.861673 259.382597,411.931368 259.331164,412 L255,412 C255.032831,411.940686 255.070876,411.870998 255.114989,411.791985 C255.830436,410.483803 257.948131,406.572267 259.913828,402.517372 C262.025461,398.159767 263.964395,393.636951 263.801121,392 C263.851733,392.368985 265.313561,403.623938 259.481076,411.791985 Z" id="a6089e43-5613-4c9c-8352-b83c87f66fb2" fill="#F1F1F1" fill-rule="nonzero"></path>
                <polygon id="Path" fill="#0352D8" fill-rule="nonzero" points="137.000548 0 73 105.532405 257.999452 218 322 112.467595"></polygon>
                <path d="M257,89 C263.075132,89 268,93.9248678 268,100 C268,106.075132 263.075132,111 257,111 C250.924868,111 246,106.075132 246,100 C246,93.9248678 250.924868,89 257,89 Z M257,97 C255.343146,97 254,98.3431458 254,100 C254,101.656854 255.343146,103 257,103 C258.656854,103 260,101.656854 260,100 C260,98.3431458 258.656854,97 257,97 Z" id="Combined-Shape" fill="#FFFFFF" fill-rule="nonzero"></path>
                <polygon id="Path" fill="#FFFFFF" fill-rule="nonzero" points="253.536458 114.041539 250 108.083079 257 108.041539 264 108 260.536458 114 257.072917 120"></polygon>
                <path d="M137.000548,0 L73,105.532405 L257.999452,218 L322,112.467595 L137.000548,0 Z M256.798327,213.079461 L77.9145497,104.329795 L138.201673,4.92053927 L317.08547,113.670205 L256.798327,213.079461 Z" id="Shape" fill="#005EFE" fill-rule="nonzero"></path>
                <polygon id="Rectangle" fill="#005EFE" fill-rule="nonzero" transform="translate(207.126313, 92.221511) rotate(-58.734187) translate(-207.126313, -92.221511) " points="205.292023 -13.8980456 208.86743 -13.8964753 208.960603 198.341067 205.385197 198.339497"></polygon>
                <polygon id="Rectangle" fill="#005EFE" fill-rule="nonzero" transform="translate(181.664042, 134.114417) rotate(-58.734130) translate(-181.664042, -134.114417) " points="179.829755 27.9950274 183.405155 27.9965977 183.498329 240.233807 179.922928 240.232237"></polygon>
                <polygon id="Rectangle" fill="#005EFE" fill-rule="nonzero" transform="translate(156.889457, 84.196399) rotate(-58.734130) translate(-156.889457, -84.196399) " points="95.2666871 82.3808175 218.510656 82.4349472 218.512226 86.0119808 95.2682574 85.9578511"></polygon>
                <polygon id="Path" fill="#005EFE" fill-rule="nonzero" points="290 92.8526134 226.176084 198 223 196.356449 286.950599 91"></polygon>
                <polygon id="Path" fill="#005EFE" fill-rule="nonzero" points="227 199 225.56867 198.136792 222.372765 196.494577 222.25435 196.137853 220.507247 190.91233 207.583214 152.282025 205.836111 147.056502 183.615548 80.6261573 181.867798 75.4006343 175.586638 56.6151042 174.101601 52.173731 163.74775 21.225523 162 16 166.746297 18.8621468 168.4934 24.0876698 176.548839 48.1707105 178.03323 52.6120836 186.614094 78.2634239 188.361197 83.4889469 210.58176 149.919292 212.329511 155.144814 224.822592 192.486415 225.252897 193.77512 226.30763 196.927788"></polygon>
                <path d="M220,163.994502 L218.214873,163.994502 L218.214873,115.225939 C218.21488,107.739962 215.232901,100.560587 209.924937,95.2671969 C204.616974,89.9738065 197.417826,87 189.911225,87 L86.303726,87 C78.7971255,87 71.5979697,89.9737632 66.2899912,95.2671381 C60.9820127,100.560513 58,107.739878 58,115.225856 L58,382.774061 C58,390.260038 60.9819723,397.439413 66.289936,402.732803 C71.5978998,408.026194 78.7970474,411 86.3036486,411 L189.911089,411 C205.542776,411 218.214798,398.36291 218.214848,382.77417 L218.214848,198.708802 L220,198.708802 L220,163.994502 Z" id="Path" fill="#3F3D56" fill-rule="nonzero"></path>
                <path d="M190.918017,94 L177.428944,94 C178.688641,97.0947938 178.328304,100.6149 176.46784,103.388974 C174.607375,106.163049 171.490917,107.827071 168.155492,107.827326 L108.954276,107.827326 C105.618844,107.827087 102.502375,106.163068 100.641907,103.388988 C98.7814391,100.614909 98.4211102,97.0947936 99.6808239,94 L87.0819956,94 C75.4387542,94 66,103.458217 66,115.125556 L66,382.874386 C66,388.477244 68.221123,393.850625 72.1747569,397.812446 C76.1283907,401.774267 81.4906709,404 87.0819569,404 L190.918017,404 C196.509303,404 201.871586,401.77428 205.825225,397.812464 C209.778864,393.850648 212,388.47727 212,382.874412 L212,382.874412 L212,115.125581 C212,109.522723 209.778868,104.149344 205.825228,100.187528 C201.871589,96.2257122 196.509304,94 190.918017,94 L190.918017,94 Z" id="Path" fill="#FFFFFF" fill-rule="nonzero"></path>
                <g id="LOGO" transform="translate(118.000000, 130.000000)" fill="#E6E6E6">
                    <polygon id="Rectangle" transform="translate(16.389117, 20.977670) rotate(-150.000000) translate(-16.389117, -20.977670) " points="8.59409417 11.1473129 24.0262461 2.27695474 24.1841407 30.6846072 8.60645899 39.6783859"></polygon>
                    <path d="M24.7948594,9.99332284 L38.2193641,2.27695474 L38.2193641,2.27695474 L38.3772587,30.6846072 L22.799577,39.6783859 L22.7882157,13.4629854 C22.7875949,12.030564 23.5529752,10.7071544 24.7948594,9.99332284 Z" id="Rectangle-Copy-15" opacity="0.754906064" transform="translate(30.582235, 20.977670) scale(-1, 1) rotate(-150.000000) translate(-30.582235, -20.977670) "></path>
                </g>
                <rect id="Rectangle" fill="#005EFE" fill-rule="nonzero" x="117" y="191" width="45" height="11"></rect>
                <rect id="Rectangle" fill="#E5E5E5" fill-rule="nonzero" x="115" y="237" width="49" height="11"></rect>
                <rect id="Rectangle" fill="#E5E5E5" fill-rule="nonzero" x="85" y="261" width="109" height="11"></rect>
                <rect id="Rectangle" fill="#E5E5E5" fill-rule="nonzero" x="85" y="284" width="109" height="11"></rect>
                <rect id="Rectangle" fill="#005EFE" fill-rule="nonzero" x="117" y="335" width="45" height="16"></rect>
                <path d="M361.038896,288.308917 C362.644913,287.501875 363.797063,286.051566 364.185328,284.348238 C364.573594,282.644909 364.158091,280.86353 363.050624,279.483432 L370,267.797037 L363.651851,262 L354.078796,278.636117 C351.742105,280.624235 351.319579,283.980392 353.095288,286.448184 C354.870998,288.915976 358.283667,289.715369 361.038896,288.308917 L361.038896,288.308917 Z" id="Path" fill="#FFB7B7" fill-rule="nonzero"></path>
                <polygon id="Path" fill="#FFB7B7" fill-rule="nonzero" points="398.998682 404 390.190742 404 386 371 399 371.00064"></polygon>
                <path d="M400.999493,412 L373,411.998984 L373,411.652799 C373.000416,405.769527 377.879477,401.000319 383.898173,401 L383.898862,401 L401,401.00068 L400.999493,412 Z" id="Path" fill="#2F2E41" fill-rule="nonzero"></path>
                <polygon id="Path" fill="#FFB7B7" fill-rule="nonzero" points="472 392.982359 464.368509 397 445 369.929224 456.263005 364"></polygon>
                <path d="M478,398.869777 L453.448168,412 L453.282111,411.689381 C450.460633,406.410221 452.451338,399.842721 457.728676,397.019798 L457.729283,397.019475 L472.724729,389 L478,398.869777 Z" id="Path" fill="#2F2E41" fill-rule="nonzero"></path>
                <path d="M431.17152,273 L433.099197,312.687836 C433.099197,312.687836 437.546839,314.353202 435.990711,320.790196 C435.990711,320.790196 433.808185,328.205912 438.744518,328.205912 C443.680851,328.205912 463,374.028001 463,374.028001 L450.374751,380.407966 L417.212393,332.390309 L407.785541,300.322607 L402.735442,336.755567 L402.398768,393 L385.90177,391.153168 L381.188376,326.178258 L379,276.649576 L431.17152,273 Z" id="Path" fill="#2F2E41" fill-rule="nonzero"></path>
                <polygon id="Path" fill="#3F3D56" fill-rule="nonzero" points="373 285 377.093307 255.637518 391.273273 187 418.222281 188.507791 431.088628 213.041622 428.853202 260.897791 434 279.791676"></polygon>
                <path d="M383.786573,243.419365 L367.814292,274 L365.312623,280 L358,271.290324 L368.024437,235.666128 C368.024437,235.666128 377.094162,191.495964 391.512977,187 L395,187.572809 L383.786573,243.419365 Z" id="Path" fill="#3F3D56" fill-rule="nonzero"></path>
                <path d="M422.072481,279.668309 C423.764194,279.104005 425.113255,277.836401 425.756661,276.206581 C426.400066,274.57676 426.271726,272.752141 425.406172,271.223687 L434,260.668205 L428.709969,254 L416.78805,269.072974 C414.200178,270.699915 413.266467,273.961301 414.614665,276.664452 C415.962864,279.367602 419.166827,280.658094 422.072481,279.668309 L422.072481,279.668309 Z" id="Path" fill="#FFB7B7" fill-rule="nonzero"></path>
                <path d="M414,193.525931 L418.683927,189 C418.683927,189 424.186106,191.062494 428.147372,201.711112 C432.108638,212.359729 445,241.192594 445,241.192594 L432.382082,267 L423.874536,261.318515 L428.462872,238.592595 L414,193.525931 Z" id="Path" fill="#3F3D56" fill-rule="nonzero"></path>
                <circle id="Oval" fill="#FFB7B7" fill-rule="nonzero" cx="403" cy="170" r="14"></circle>
                <path d="M415.490425,159.029469 L416.173589,157.618793 L412.736049,155.866578 C412.736049,155.866578 408.943896,149.536303 402.081849,151.315248 C395.219803,153.094194 392.132464,154.158852 392.132464,154.158852 L388.703624,155.928879 L390.424545,157.685547 L387.337277,158.750245 L389.399789,159.801571 L387,161.216694 L388.291851,168.471106 C388.291851,168.471106 390.437534,162.968915 394.562553,165.071561 C398.687571,167.174208 406.232859,163.984612 406.232859,163.984612 L412.788049,177 C412.788049,177 414.140383,172.43744 416.551523,173.654041 C416.551567,173.654074 422.711392,163.589678 415.490425,159.029469 Z" id="Path" fill="#2F2E41" fill-rule="nonzero"></path>
            </g>
        </g>
    </g>
</svg>